<svg width="80" height="80" viewBox="0 0 80 80" fill="none" xmlns="http://www.w3.org/2000/svg">
<g clip-path="url(#clip0_222_279)">
<rect x="69" y="28" width="58" height="18" transform="rotate(-180 69 28)" fill="#84DEC9" fill-opacity="0.55"/>
<rect x="55" y="72" width="31" height="12" rx="4" transform="rotate(-180 55 72)" fill="#84DEC9" fill-opacity="0.55"/>
<path d="M56.25 50H23.75C23.0872 50.0008 22.4517 50.2644 21.9831 50.7331C21.5144 51.2017 21.2508 51.8372 21.25 52.5V57.5C21.2524 58.273 21.494 59.0263 21.9416 59.6564C22.3892 60.2866 23.0209 60.7628 23.75 61.0196V68.75C23.7514 70.0756 24.2787 71.3466 25.216 72.284C26.1534 73.2213 27.4244 73.7486 28.75 73.75H51.25C52.5756 73.7486 53.8466 73.2213 54.784 72.284C55.7213 71.3466 56.2486 70.0756 56.25 68.75V61.0197C56.9791 60.7629 57.6108 60.2867 58.0584 59.6565C58.506 59.0263 58.7476 58.273 58.75 57.5V52.5C58.7492 51.8372 58.4856 51.2017 58.0169 50.7331C57.5483 50.2644 56.9128 50.0008 56.25 50ZM41.25 52.5V56.25H38.75V52.5H41.25ZM42.5 61.25H37.5V58.75H42.5V61.25ZM38.75 63.75H41.25V66.25H38.75V63.75ZM23.75 52.5H36.25V56.25C36.0858 56.25 35.9233 56.2823 35.7716 56.3451C35.6199 56.4079 35.4821 56.4999 35.366 56.616C35.2499 56.7321 35.1579 56.8699 35.0951 57.0216C35.0323 57.1733 35 57.3358 35 57.5V58.75H25C24.6686 58.7497 24.3508 58.6179 24.1165 58.3835C23.8821 58.1492 23.7503 57.8314 23.75 57.5V52.5ZM53.75 68.75C53.7492 69.4128 53.4856 70.0483 53.0169 70.5169C52.5483 70.9856 51.9128 71.2492 51.25 71.25H28.75C28.0872 71.2492 27.4517 70.9856 26.9831 70.5169C26.5144 70.0483 26.2508 69.4128 26.25 68.75V61.25H35V62.5C35 62.6642 35.0323 62.8267 35.0951 62.9784C35.1579 63.1301 35.2499 63.2679 35.366 63.384C35.4821 63.5001 35.6199 63.5921 35.7716 63.6549C35.9233 63.7177 36.0858 63.75 36.25 63.75V67.5C36.25 67.6642 36.2823 67.8267 36.3451 67.9784C36.4079 68.1301 36.4999 68.2679 36.616 68.384C36.7321 68.5001 36.8699 68.5921 37.0216 68.6549C37.1733 68.7177 37.3358 68.75 37.5 68.75H42.5C42.6642 68.75 42.8267 68.7177 42.9784 68.6549C43.1301 68.5921 43.2679 68.5001 43.384 68.384C43.5001 68.2679 43.5921 68.1301 43.6549 67.9784C43.7177 67.8267 43.75 67.6642 43.75 67.5V63.75C43.9142 63.75 44.0767 63.7177 44.2284 63.6549C44.3801 63.5921 44.5179 63.5001 44.634 63.384C44.7501 63.2679 44.8421 63.1301 44.9049 62.9784C44.9677 62.8267 45 62.6642 45 62.5V61.25H53.75V68.75ZM56.25 57.5C56.2497 57.8314 56.1179 58.1492 55.8835 58.3835C55.6492 58.6179 55.3314 58.7497 55 58.75H45V57.5C45 57.3358 44.9677 57.1733 44.9049 57.0216C44.8421 56.8699 44.7501 56.7321 44.634 56.616C44.5179 56.4999 44.3801 56.4079 44.2284 56.3451C44.0767 56.2823 43.9142 56.25 43.75 56.25V52.5H56.25V57.5Z" fill="black"/>
<path d="M71.25 52.5H65V29.8737C66.4106 29.5837 67.6781 28.8164 68.5889 27.7009C69.4996 26.5854 69.998 25.1901 70 23.75V12.5C69.9989 11.5058 69.6035 10.5526 68.9005 9.84955C68.1974 9.14652 67.2442 8.75109 66.25 8.75H57.5V7.5C57.5 7.33584 57.4677 7.17327 57.4049 7.0216C57.3421 6.86992 57.2501 6.7321 57.134 6.61602C57.0179 6.49994 56.8801 6.40787 56.7284 6.34506C56.5767 6.28226 56.4142 6.24996 56.25 6.25H51.25C51.0858 6.24996 50.9233 6.28226 50.7716 6.34506C50.6199 6.40787 50.4821 6.49994 50.366 6.61602C50.2499 6.7321 50.1579 6.86992 50.0951 7.0216C50.0323 7.17327 50 7.33584 50 7.5V8.75H48.75C48.0872 8.74924 47.4517 8.48561 46.9831 8.01693C46.5144 7.54825 46.2508 6.91281 46.25 6.25C46.25 4.5924 45.5915 3.00269 44.4194 1.83058C43.2473 0.65848 41.6576 0 40 0C38.3424 0 36.7527 0.65848 35.5806 1.83058C34.4085 3.00269 33.75 4.5924 33.75 6.25C33.7492 6.91281 33.4856 7.54825 33.0169 8.01693C32.5483 8.48561 31.9128 8.74924 31.25 8.75H30V7.5C30 7.33584 29.9677 7.17327 29.9049 7.0216C29.8421 6.86992 29.7501 6.7321 29.634 6.61602C29.5179 6.49994 29.3801 6.40787 29.2284 6.34506C29.0767 6.28226 28.9142 6.24996 28.75 6.25H23.75C23.5858 6.24996 23.4233 6.28226 23.2716 6.34506C23.1199 6.40787 22.9821 6.49994 22.866 6.61602C22.7499 6.7321 22.6579 6.86992 22.5951 7.0216C22.5323 7.17327 22.5 7.33584 22.5 7.5V8.75H13.75C12.7558 8.75109 11.8026 9.14652 11.0995 9.84955C10.3965 10.5526 10.0011 11.5058 10 12.5V23.75C10.002 25.1901 10.5004 26.5854 11.4111 27.7009C12.3219 28.8164 13.5894 29.5837 15 29.8737V52.5H8.75C7.75577 52.5011 6.80257 52.8965 6.09955 53.5995C5.39652 54.3026 5.00109 55.2558 5 56.25V57.5C5.00238 58.273 5.24397 59.0263 5.69159 59.6564C6.13921 60.2866 6.77093 60.7628 7.5 61.0196V71.25C7.50141 72.5756 8.02865 73.8466 8.96603 74.784C9.9034 75.7213 11.1744 76.2486 12.5 76.25H15.1775C15.453 77.3206 16.0759 78.2696 16.9486 78.9482C17.8213 79.6268 18.8945 79.9967 20 80H60C61.1055 79.9967 62.1787 79.6268 63.0514 78.9482C63.9241 78.2696 64.547 77.3206 64.8225 76.25H67.5C68.8256 76.2486 70.0966 75.7213 71.034 74.784C71.9713 73.8466 72.4986 72.5756 72.5 71.25V61.0197C73.2291 60.7629 73.8608 60.2867 74.3084 59.6565C74.756 59.0263 74.9976 58.273 75 57.5V56.25C74.9989 55.2558 74.6035 54.3026 73.9005 53.5995C73.1974 52.8965 72.2442 52.5011 71.25 52.5ZM66.25 11.25C66.5814 11.2503 66.8992 11.3821 67.1335 11.6165C67.3679 11.8508 67.4997 12.1686 67.5 12.5V23.75C67.4989 24.7442 67.1035 25.6974 66.4005 26.4005C65.6974 27.1035 64.7442 27.4989 63.75 27.5H58.75V25C58.75 24.8358 58.7177 24.6733 58.6549 24.5216C58.5921 24.3699 58.5001 24.2321 58.384 24.116C58.2679 23.9999 58.1301 23.9079 57.9784 23.8451C57.8267 23.7823 57.6642 23.75 57.5 23.75V11.25H66.25ZM56.25 31.25H51.25V26.25H56.25V31.25ZM52.5 33.75H55V36.25H52.5V33.75ZM52.5 8.75H55V23.75H52.5V8.75ZM36.25 6.25C36.25 5.25544 36.6451 4.30161 37.3483 3.59835C38.0516 2.89509 39.0054 2.5 40 2.5C40.9946 2.5 41.9484 2.89509 42.6516 3.59835C43.3549 4.30161 43.75 5.25544 43.75 6.25C43.755 7.1304 43.9951 7.99348 44.4454 8.75H35.5546C36.0049 7.99348 36.245 7.1304 36.25 6.25ZM50 11.25V23.75C49.8358 23.75 49.6733 23.7823 49.5216 23.8451C49.3699 23.9079 49.2321 23.9999 49.116 24.116C48.9999 24.2321 48.9079 24.3699 48.8451 24.5216C48.7823 24.6733 48.75 24.8358 48.75 25V27.5H31.25V25C31.25 24.8358 31.2177 24.6733 31.1549 24.5216C31.0921 24.3699 31.0001 24.2321 30.884 24.116C30.7679 23.9999 30.6301 23.9079 30.4784 23.8451C30.3267 23.7823 30.1642 23.75 30 23.75V11.25H50ZM28.75 31.25H23.75V26.25H28.75V31.25ZM25 33.75H27.5V36.25H25V33.75ZM25 8.75H27.5V23.75H25V8.75ZM12.5 23.75V12.5C12.5003 12.1686 12.6321 11.8508 12.8665 11.6165C13.1008 11.3821 13.4186 11.2503 13.75 11.25H22.5V23.75C22.3358 23.75 22.1733 23.7823 22.0216 23.8451C21.8699 23.9079 21.7321 23.9999 21.616 24.116C21.4999 24.2321 21.4079 24.3699 21.3451 24.5216C21.2823 24.6733 21.25 24.8358 21.25 25V27.5H16.25C15.2558 27.4989 14.3026 27.1035 13.5995 26.4005C12.8965 25.6974 12.5011 24.7442 12.5 23.75ZM7.5 56.25C7.50033 55.9186 7.63213 55.6008 7.86648 55.3665C8.10083 55.1321 8.41858 55.0003 8.75 55H15V58.75H8.75C8.41858 58.7497 8.10083 58.6179 7.86648 58.3835C7.63213 58.1492 7.50033 57.8314 7.5 57.5V56.25ZM10 71.25V61.25H15V73.75H12.5C11.8372 73.7492 11.2017 73.4856 10.7331 73.0169C10.2644 72.5483 10.0008 71.9128 10 71.25ZM60 77.5H20C19.3372 77.4992 18.7017 77.2356 18.2331 76.7669C17.7644 76.2983 17.5008 75.6628 17.5 75V30H21.25V32.5C21.25 32.6642 21.2823 32.8267 21.3451 32.9784C21.4079 33.1301 21.4999 33.2679 21.616 33.384C21.7321 33.5001 21.8699 33.5921 22.0216 33.6549C22.1733 33.7177 22.3358 33.75 22.5 33.75V37.5C22.5 37.6642 22.5323 37.8267 22.5951 37.9784C22.6579 38.1301 22.7499 38.2679 22.866 38.384C22.9821 38.5001 23.1199 38.5921 23.2716 38.6549C23.4233 38.7177 23.5858 38.75 23.75 38.75H28.75C28.9142 38.75 29.0767 38.7177 29.2284 38.6549C29.3801 38.5921 29.5179 38.5001 29.634 38.384C29.7501 38.2679 29.8421 38.1301 29.9049 37.9784C29.9677 37.8267 30 37.6642 30 37.5V33.75C30.1642 33.75 30.3267 33.7177 30.4784 33.6549C30.6301 33.5921 30.7679 33.5001 30.884 33.384C31.0001 33.2679 31.0921 33.1301 31.1549 32.9784C31.2177 32.8267 31.25 32.6642 31.25 32.5V30H48.75V32.5C48.75 32.6642 48.7823 32.8267 48.8451 32.9784C48.9079 33.1301 48.9999 33.2679 49.116 33.384C49.2321 33.5001 49.3699 33.5921 49.5216 33.6549C49.6733 33.7177 49.8358 33.75 50 33.75V37.5C50 37.6642 50.0323 37.8267 50.0951 37.9784C50.1579 38.1301 50.2499 38.2679 50.366 38.384C50.4821 38.5001 50.6199 38.5921 50.7716 38.6549C50.9233 38.7177 51.0858 38.75 51.25 38.75H56.25C56.4142 38.75 56.5767 38.7177 56.7284 38.6549C56.8801 38.5921 57.0179 38.5001 57.134 38.384C57.2501 38.2679 57.3421 38.1301 57.4049 37.9784C57.4677 37.8267 57.5 37.6642 57.5 37.5V33.75C57.6642 33.75 57.8267 33.7177 57.9784 33.6549C58.1301 33.5921 58.2679 33.5001 58.384 33.384C58.5001 33.2679 58.5921 33.1301 58.6549 32.9784C58.7177 32.8267 58.75 32.6642 58.75 32.5V30H62.5V75C62.4992 75.6628 62.2356 76.2983 61.7669 76.7669C61.2983 77.2356 60.6628 77.4992 60 77.5ZM70 71.25C69.9992 71.9128 69.7356 72.5483 69.2669 73.0169C68.7983 73.4856 68.1628 73.7492 67.5 73.75H65V61.25H70V71.25ZM72.5 57.5C72.4997 57.8314 72.3679 58.1492 72.1335 58.3835C71.8992 58.6179 71.5814 58.7497 71.25 58.75H65V55H71.25C71.5814 55.0003 71.8992 55.1321 72.1335 55.3665C72.3679 55.6008 72.4997 55.9186 72.5 56.25V57.5Z" fill="black"/>
<path d="M25 45H50V46.25C50 46.5815 50.1317 46.8995 50.3661 47.1339C50.6005 47.3683 50.9185 47.5 51.25 47.5C51.5815 47.5 51.8995 47.3683 52.1339 47.1339C52.3683 46.8995 52.5 46.5815 52.5 46.25V45H55C55.3315 45 55.6495 44.8683 55.8839 44.6339C56.1183 44.3995 56.25 44.0815 56.25 43.75C56.25 43.4185 56.1183 43.1005 55.8839 42.8661C55.6495 42.6317 55.3315 42.5 55 42.5H25C24.6685 42.5 24.3505 42.6317 24.1161 42.8661C23.8817 43.1005 23.75 43.4185 23.75 43.75C23.75 44.0815 23.8817 44.3995 24.1161 44.6339C24.3505 44.8683 24.6685 45 25 45Z" fill="black"/>
</g>
<defs>
<clipPath id="clip0_222_279">
<rect width="80" height="80" fill="white"/>
</clipPath>
</defs>
</svg>
