<svg width="60" height="90" viewBox="0 0 60 90" fill="none" xmlns="http://www.w3.org/2000/svg">
<path d="M43 31.5C43 47.7924 35.165 61 25.5 61C15.835 61 8 47.7924 8 31.5C8 15.2076 15.835 2 25.5 2C35.165 2 43 15.2076 43 31.5Z" fill="#84DEC9" fill-opacity="0.55"/>
<path d="M59.502 33.5391C59.502 15.0469 46.1559 0 29.7513 0C13.3467 0 0 15.0469 0 33.5391C0 45.3973 5.60812 56.4047 14.6587 62.4262L17.183 74.6128V84.5473C17.1846 85.992 17.7593 87.377 18.7809 88.3986C19.8024 89.4202 21.1875 89.9948 22.6322 89.9965H36.8705C38.3152 89.9948 39.7002 89.4202 40.7218 88.3986C41.7434 87.377 42.318 85.992 42.3197 84.5473V74.6142L44.8432 62.4277C53.8938 56.4061 59.502 45.3987 59.502 33.5391ZM57.041 33.5391C57.041 44.6323 51.814 54.9141 43.3744 60.4645H41.1652C45.9316 54.2109 48.8236 44.2118 48.8236 33.5391C48.8236 21.0361 44.9107 10.1166 39.1282 4.34813C49.571 8.71453 57.041 20.1523 57.041 33.5391ZM40.0873 73.2572H38.378L40.5176 62.9297H42.2269L40.0873 73.2572ZM33.267 73.2572V62.9297H38.0046L35.865 73.26L33.267 73.2572ZM23.6377 73.2572L21.498 62.9297H26.2357V73.26L23.6377 73.2572ZM17.2758 62.9297H18.9844L21.124 73.26H19.4154L17.2758 62.9297ZM37.9737 60.4688H34.9685C36.9127 54.3354 38.0974 44.2877 38.0974 33.5433C38.0974 21.6802 36.687 9.16102 33.6677 3.34195C40.943 6.64312 46.3627 18.926 46.3627 33.5391C46.3627 44.6203 43.1585 54.8691 37.9737 60.4688ZM35.6365 33.5391C35.6365 44.5212 34.3983 54.7031 32.3838 60.4688H27.1188C25.1044 54.7031 23.8662 44.5212 23.8662 33.5391C23.8662 13.4297 27.7537 2.46094 29.7513 2.46094C31.7489 2.46094 35.6365 13.4297 35.6365 33.5391ZM25.8349 3.33914C22.8157 9.1582 21.4052 21.6773 21.4052 33.5405C21.4052 44.2849 22.59 54.3326 24.5341 60.4659H21.529C16.3441 54.8691 13.14 44.6203 13.14 33.5391C13.14 18.926 18.5597 6.64312 25.8349 3.33914ZM28.6966 62.9297H30.806V73.26H28.6966V62.9297ZM2.46094 33.5391C2.46094 20.1509 9.93164 8.71313 20.3737 4.34813C14.592 10.118 10.6791 21.0375 10.6791 33.5391C10.6791 44.2104 13.571 54.2109 18.3368 60.4645H16.1283C7.68867 54.9141 2.46094 44.6337 2.46094 33.5391ZM39.8587 84.5473C39.8578 85.3395 39.5427 86.0991 38.9825 86.6593C38.4223 87.2195 37.6627 87.5346 36.8705 87.5355H22.6322C21.8399 87.5346 21.0804 87.2195 20.5202 86.6593C19.96 86.0991 19.6448 85.3395 19.6439 84.5473V75.7181H39.8587V84.5473Z" fill="black"/>
</svg>
