<svg width="74" height="80" viewBox="0 0 74 80" fill="none" xmlns="http://www.w3.org/2000/svg">
<ellipse cx="50.5" cy="36.5" rx="17.5" ry="20.5" fill="#84DEC9" fill-opacity="0.55"/>
<ellipse cx="15" cy="26.5" rx="15" ry="22.5" fill="#84DEC9" fill-opacity="0.55"/>
<path d="M38.49 45.58C35.55 48.6 31.9 50.66 27.88 51.35L28.58 57.7H21.14L21.84 51.35C11.75 49.61 4 39.28 4 26.81C4 13.11 13.34 2 24.86 2C32.73 2 39.58 7.18 43.13 14.84C43.36 15.34 43.58 15.85 43.78 16.36" stroke="black" stroke-width="2.63" stroke-miterlimit="10" stroke-linecap="square"/>
<path d="M24.86 58.3701C24.86 58.3701 24.1099 63.5701 26.2099 68.0701C27.8299 71.5301 25.7099 77.4301 25.7099 77.4301" stroke="black" stroke-width="2.63" stroke-miterlimit="10" stroke-linecap="square"/>
<path d="M17.3 13.05C17.3 13.05 11.44 18.01 12.49 28.08" stroke="black" stroke-width="2.63" stroke-miterlimit="10" stroke-linecap="square"/>
<path d="M72.26 36.4401C72.26 25.3501 64.7 16.3601 55.37 16.3601C46.04 16.3601 38.48 25.3501 38.48 36.4401C38.48 46.5401 44.75 54.9001 52.92 56.3101L52.25 61.4501H58.49L57.82 56.3101C65.99 54.9001 72.26 46.5401 72.26 36.4401Z" stroke="black" stroke-width="2.63" stroke-miterlimit="10" stroke-linecap="square"/>
<path d="M54.6299 77.43C54.6299 77.43 54.0199 73.22 55.7299 69.58C57.0399 66.78 55.3199 62 55.3199 62" stroke="black" stroke-width="2.63" stroke-miterlimit="10" stroke-linecap="square"/>
<path d="M49.2599 25.3C49.2599 25.3 44.5099 29.32 45.3599 37.47" stroke="black" stroke-width="2.63" stroke-miterlimit="10" stroke-linecap="square"/>
</svg>
