<svg width="56" height="56" viewBox="0 0 56 56" fill="none" xmlns="http://www.w3.org/2000/svg">
<circle cx="38" cy="21" r="17" fill="#84DEC9" fill-opacity="0.55"/>
<path d="M1.12012 24.64H54.8801V29.12H1.12012V24.64Z" stroke="black" stroke-width="2" stroke-miterlimit="10" stroke-linejoin="round"/>
<path d="M54.8801 29.12C52.9761 29.12 51.5201 30.576 51.5201 32.48V38.08C51.5201 44.24 46.4801 49.28 40.3201 49.28H15.6801C9.52012 49.28 4.48012 44.24 4.48012 38.08V32.48C4.48012 30.576 3.02412 29.12 1.12012 29.12M45.9201 52.64C44.0161 52.64 42.5601 51.184 42.5601 49.28M10.0801 52.64C11.9841 52.64 13.4401 51.184 13.4401 49.28" stroke="black" stroke-width="2" stroke-miterlimit="10" stroke-linecap="round" stroke-linejoin="round"/>
<path d="M43.6799 6.72C43.6799 3.584 46.1439 1.12 49.2799 1.12C52.4159 1.12 54.8799 3.584 54.8799 6.72V24.64" stroke="black" stroke-width="2" stroke-miterlimit="10" stroke-linejoin="round"/>
<path d="M48.16 11.2H39.2C39.2 8.73597 41.216 6.71997 43.68 6.71997C46.144 6.71997 48.16 8.73597 48.16 11.2Z" stroke="black" stroke-width="2" stroke-miterlimit="10" stroke-linejoin="round"/>
<path d="M43.68 13.4399C43.3829 13.4399 43.098 13.5579 42.888 13.768C42.678 13.978 42.56 14.2629 42.56 14.5599C42.56 14.857 42.678 15.1419 42.888 15.3519C43.098 15.5619 43.3829 15.6799 43.68 15.6799C43.977 15.6799 44.2619 15.5619 44.4719 15.3519C44.682 15.1419 44.8 14.857 44.8 14.5599C44.8 14.2629 44.682 13.978 44.4719 13.768C44.2619 13.5579 43.977 13.4399 43.68 13.4399ZM43.68 16.7999C43.3829 16.7999 43.098 16.9179 42.888 17.128C42.678 17.338 42.56 17.6229 42.56 17.9199C42.56 18.217 42.678 18.5019 42.888 18.7119C43.098 18.9219 43.3829 19.0399 43.68 19.0399C43.977 19.0399 44.2619 18.9219 44.4719 18.7119C44.682 18.5019 44.8 18.217 44.8 17.9199C44.8 17.6229 44.682 17.338 44.4719 17.128C44.2619 16.9179 43.977 16.7999 43.68 16.7999ZM43.68 20.1599C43.3829 20.1599 43.098 20.2779 42.888 20.488C42.678 20.698 42.56 20.9829 42.56 21.2799C42.56 21.577 42.678 21.8619 42.888 22.0719C43.098 22.2819 43.3829 22.3999 43.68 22.3999C43.977 22.3999 44.2619 22.2819 44.4719 22.0719C44.682 21.8619 44.8 21.577 44.8 21.2799C44.8 20.9829 44.682 20.698 44.4719 20.488C44.2619 20.2779 43.977 20.1599 43.68 20.1599ZM47.04 13.4399C46.7429 13.4399 46.458 13.5579 46.248 13.768C46.038 13.978 45.92 14.2629 45.92 14.5599C45.92 14.857 46.038 15.1419 46.248 15.3519C46.458 15.5619 46.7429 15.6799 47.04 15.6799C47.337 15.6799 47.6219 15.5619 47.8319 15.3519C48.042 15.1419 48.16 14.857 48.16 14.5599C48.16 14.2629 48.042 13.978 47.8319 13.768C47.6219 13.5579 47.337 13.4399 47.04 13.4399ZM48.16 16.7999C47.8629 16.7999 47.578 16.9179 47.368 17.128C47.158 17.338 47.04 17.6229 47.04 17.9199C47.04 18.217 47.158 18.5019 47.368 18.7119C47.578 18.9219 47.8629 19.0399 48.16 19.0399C48.457 19.0399 48.7419 18.9219 48.9519 18.7119C49.162 18.5019 49.28 18.217 49.28 17.9199C49.28 17.6229 49.162 17.338 48.9519 17.128C48.7419 16.9179 48.457 16.7999 48.16 16.7999ZM49.28 20.1599C48.9829 20.1599 48.698 20.2779 48.488 20.488C48.278 20.698 48.16 20.9829 48.16 21.2799C48.16 21.577 48.278 21.8619 48.488 22.0719C48.698 22.2819 48.9829 22.3999 49.28 22.3999C49.577 22.3999 49.8619 22.2819 50.0719 22.0719C50.282 21.8619 50.4 21.577 50.4 21.2799C50.4 20.9829 50.282 20.698 50.0719 20.488C49.8619 20.2779 49.577 20.1599 49.28 20.1599ZM40.32 13.4399C40.0229 13.4399 39.738 13.5579 39.528 13.768C39.318 13.978 39.2 14.2629 39.2 14.5599C39.2 14.857 39.318 15.1419 39.528 15.3519C39.738 15.5619 40.0229 15.6799 40.32 15.6799C40.617 15.6799 40.9019 15.5619 41.1119 15.3519C41.322 15.1419 41.44 14.857 41.44 14.5599C41.44 14.2629 41.322 13.978 41.1119 13.768C40.9019 13.5579 40.617 13.4399 40.32 13.4399ZM39.2 16.7999C38.9029 16.7999 38.618 16.9179 38.408 17.128C38.198 17.338 38.08 17.6229 38.08 17.9199C38.08 18.217 38.198 18.5019 38.408 18.7119C38.618 18.9219 38.9029 19.0399 39.2 19.0399C39.497 19.0399 39.7819 18.9219 39.9919 18.7119C40.202 18.5019 40.32 18.217 40.32 17.9199C40.32 17.6229 40.202 17.338 39.9919 17.128C39.7819 16.9179 39.497 16.7999 39.2 16.7999ZM38.08 20.1599C37.7829 20.1599 37.498 20.2779 37.288 20.488C37.078 20.698 36.96 20.9829 36.96 21.2799C36.96 21.577 37.078 21.8619 37.288 22.0719C37.498 22.2819 37.7829 22.3999 38.08 22.3999C38.377 22.3999 38.6619 22.2819 38.8719 22.0719C39.082 21.8619 39.2 21.577 39.2 21.2799C39.2 20.9829 39.082 20.698 38.8719 20.488C38.6619 20.2779 38.377 20.1599 38.08 20.1599Z" fill="black"/>
</svg>
