<svg width="91" height="98" viewBox="0 0 91 98" fill="none" xmlns="http://www.w3.org/2000/svg">
<circle cx="75" cy="16" r="16" fill="#A6CB71" fill-opacity="0.55"/>
<g clip-path="url(#clip0_243_276)">
<path d="M65.3955 50.1875L79.4793 50.1374C81.1035 50.1371 82.665 49.5097 83.838 48.3862C85.011 47.2627 85.705 45.7297 85.7753 44.107C85.8456 42.4843 85.2868 40.897 84.2154 39.6763C83.1439 38.4555 81.6426 37.6955 80.0245 37.5546C79.7077 35.9638 78.8497 34.5318 77.5964 33.502C76.3431 32.4723 74.7718 31.9084 73.1498 31.9063C71.3756 31.9011 69.6674 32.5789 68.3796 33.7994C67.6692 33.4779 66.8983 33.3119 66.1185 33.3125C64.6338 33.3143 63.2105 33.9049 62.1607 34.9548C61.1109 36.0047 60.5205 37.4281 60.5189 38.9128C60.5192 39.1975 60.5438 39.4817 60.5924 39.7622C59.8024 40.6786 59.2927 41.803 59.1241 43.0011C58.9554 44.1992 59.135 45.4206 59.6412 46.5195C60.1475 47.6184 60.9592 48.5485 61.9795 49.1989C62.9998 49.8493 64.1856 50.1925 65.3955 50.1875ZM63.0753 41.2405C63.2798 41.0595 63.4273 40.8229 63.4996 40.5595C63.5719 40.2962 63.5659 40.0174 63.4825 39.7574C63.3881 39.4855 63.3371 39.2005 63.3314 38.9128C63.3277 38.3925 63.4706 37.8817 63.744 37.4389C64.0173 36.9962 64.4098 36.6394 64.8767 36.4096C65.3435 36.1798 65.8656 36.0862 66.3832 36.1396C66.9008 36.193 67.3928 36.3912 67.8029 36.7114C68.1028 36.9397 68.4812 37.0395 68.8547 36.9888C69.0397 36.9629 69.2176 36.9004 69.378 36.8049C69.5385 36.7094 69.6783 36.5829 69.7893 36.4327C70.1744 35.902 70.6796 35.4701 71.2637 35.1722C71.8478 34.8743 72.4941 34.7189 73.1498 34.7188C74.2501 34.7202 75.306 35.1534 76.0902 35.9253C76.8744 36.6972 77.3243 37.746 77.3431 38.8462C77.3383 38.8956 77.3342 38.9471 77.3335 38.9829C77.3297 39.1879 77.3707 39.3914 77.4536 39.579C77.5365 39.7666 77.6593 39.9338 77.8135 40.0691C77.9672 40.2053 78.1492 40.3057 78.3464 40.3632C78.5436 40.4207 78.7511 40.4337 78.9539 40.4015C79.4284 40.328 79.913 40.3535 80.3772 40.4763C80.8414 40.5992 81.2752 40.8166 81.6513 41.1151C82.0274 41.4136 82.3377 41.7867 82.5627 42.2109C82.7877 42.635 82.9226 43.1012 82.9588 43.58C82.995 44.0587 82.9318 44.5399 82.7732 44.9931C82.6146 45.4463 82.364 45.8618 82.0371 46.2135C81.7102 46.5652 81.3141 46.8454 80.8736 47.0367C80.4332 47.228 79.958 47.3261 79.4778 47.3249H79.473L65.3907 47.375C64.4586 47.3739 63.565 47.0032 62.906 46.3441C62.2469 45.685 61.8762 44.7915 61.8751 43.8594C61.8755 43.3623 61.9829 42.8712 62.19 42.4193C62.3971 41.9674 62.699 41.5654 63.0753 41.2405Z" fill="black"/>
<path d="M88.5938 55.8125H31.0131C30.6933 47.1209 28.938 42.6466 27.5226 40.428C29.4571 40.1799 31.4168 40.6262 33.0531 41.6875C33.2367 41.8056 33.4453 41.8794 33.6623 41.903C33.8794 41.9266 34.099 41.8993 34.3037 41.8234C34.5084 41.7474 34.6926 41.6249 34.8418 41.4654C34.9909 41.306 35.101 41.114 35.1631 40.9047C35.5297 39.6682 36.1791 38.534 37.06 37.592C37.9409 36.65 39.029 35.926 40.2382 35.4774C41.4474 35.0289 42.7444 34.868 44.0265 35.0075C45.3087 35.1471 46.5407 35.5833 47.625 36.2815C47.8732 36.4413 48.1653 36.519 48.4601 36.5035C48.7548 36.4881 49.0372 36.3803 49.2673 36.1954C49.4973 36.0105 49.6634 35.7579 49.7419 35.4735C49.8205 35.189 49.8075 34.887 49.7049 34.6102L47.9025 29.7529C46.7812 26.705 45.0665 23.9098 42.8576 21.5291C40.6487 19.1484 37.9896 17.2295 35.034 15.8834C30.5903 13.8448 25.6418 13.1696 20.8144 13.9434C15.9869 14.7171 11.4973 16.905 7.91332 20.2303C4.3293 23.5556 1.81183 27.869 0.679246 32.625C-0.453336 37.3811 -0.150156 42.3662 1.55045 46.9499L3.3522 51.8073C3.45192 52.0764 3.63163 52.3086 3.86718 52.4726C4.10274 52.6366 4.38284 52.7245 4.66986 52.7246L4.71793 52.7239C5.0129 52.7139 5.29725 52.6113 5.53075 52.4308C5.76426 52.2503 5.9351 52.0009 6.01912 51.718C6.38574 50.4815 7.0352 49.3474 7.91607 48.4054C8.79694 47.4634 9.88503 46.7394 11.0942 46.2907C12.3033 45.8421 13.6003 45.6811 14.8824 45.8206C16.1646 45.96 17.3966 46.396 18.4811 47.0941C18.6647 47.2123 18.8733 47.286 19.0903 47.3096C19.3074 47.3332 19.527 47.3059 19.7317 47.23C19.9364 47.1541 20.1206 47.0315 20.2698 46.8721C20.4189 46.7126 20.529 46.5207 20.5911 46.3114C20.9022 45.2461 21.4258 44.2549 22.1304 43.3974C22.8349 42.54 23.7058 41.8341 24.6905 41.3223C25.6742 42.5686 27.8172 46.3479 28.1912 55.8125H1.40625C1.03329 55.8125 0.675604 55.9606 0.411881 56.2244C0.148158 56.4881 0 56.8458 0 57.2187C0 57.5917 0.148158 57.9494 0.411881 58.2131C0.675604 58.4768 1.03329 58.625 1.40625 58.625H28.2494C28.2535 61.5895 28.0916 65.0358 27.7076 69.0137C12.5129 65.9594 0.550434 77.6836 0.410625 77.8222C0.149728 78.0866 0.00404845 78.4436 0.0053919 78.815C0.00673535 79.1865 0.154993 79.5423 0.417796 79.8049C0.680598 80.0674 1.0366 80.2153 1.40807 80.2163C1.77954 80.2173 2.1363 80.0712 2.40047 79.8101C3.00614 79.2079 17.4038 65.1467 34.2802 74.4034L34.4607 74.5023C48.0275 81.9421 51.6516 83.9299 57.0974 83.9299C58.8791 83.896 60.6575 83.7629 62.4244 83.531C62.7948 83.4884 63.133 83.3004 63.3649 83.0085C63.5968 82.7166 63.7032 82.3445 63.6609 81.9741C63.6186 81.6037 63.4309 81.2653 63.1392 81.0332C62.8475 80.8011 62.4755 80.6943 62.1051 80.7363C55.2822 81.5156 53.6401 81.5612 44.6827 76.8473C47.127 74.3062 53.5406 68.8467 62.6709 70.0597C66.4937 70.5563 70.2281 71.5862 73.765 73.1194C78.4348 75.2967 83.6383 76.0646 88.738 75.329C89.109 75.2908 89.4495 75.1067 89.6848 74.8174C89.9201 74.528 90.0308 74.1571 89.9925 73.7861C89.9543 73.4151 89.7702 73.0746 89.4809 72.8393C89.1915 72.604 88.8206 72.4934 88.4496 72.5316C83.8046 73.2134 79.0616 72.5103 74.8142 70.5101C71.0609 68.8852 67.098 67.7952 63.0417 67.2719C51.8479 65.7741 44.4288 72.8604 42.1088 75.4729C40.2898 74.4908 38.2204 73.3565 35.8134 72.0365L35.6329 71.937C33.9866 71.0286 32.2552 70.2837 30.4636 69.7131C30.8853 65.4815 31.0646 61.8076 31.0627 58.625H88.5938C88.9667 58.625 89.3244 58.4768 89.5881 58.2131C89.8518 57.9494 90 57.5917 90 57.2187C90 56.8458 89.8518 56.4881 89.5881 56.2244C89.3244 55.9606 88.9667 55.8125 88.5938 55.8125ZM45.2658 30.7307L45.9195 32.4933C43.7172 31.918 41.3908 32.0394 39.2604 32.8408C37.8898 33.3464 36.632 34.1168 35.5588 35.1081C35.5215 31.5895 34.7422 28.1184 33.2719 24.9216C31.8016 21.7247 29.6734 18.874 27.0263 16.5557C31.0834 16.9903 34.9391 18.5468 38.1608 21.0506C41.3826 23.5545 43.8429 26.9065 45.2658 30.7307ZM10.1157 43.654C7.97888 44.4379 6.13654 45.8629 4.84082 47.7341L4.18714 45.9722C2.77749 42.1555 2.45824 38.0218 3.26512 34.034C4.072 30.0462 5.97315 26.3618 8.75565 23.3934C8.27214 26.868 8.52479 30.4055 9.4972 33.7761C10.4696 37.1467 12.14 40.2751 14.4 42.9582C12.94 42.9063 11.4842 43.1427 10.1157 43.654ZM18.6869 43.5647C15.526 40.6921 13.2511 36.9766 12.1296 32.8552C11.0082 28.7338 11.0869 24.378 12.3564 20.2998C15.308 18.245 18.73 16.9676 22.306 16.5859C25.935 18.8469 28.842 22.0982 30.6843 25.9567C32.5267 29.8151 33.2277 34.1197 32.7047 38.3633C30.1403 37.3265 27.281 37.2852 24.6877 38.2474C22.0945 39.2097 19.9542 41.1061 18.6869 43.5647Z" fill="black"/>
<path d="M88.5938 95.1875H1.40625C1.03329 95.1875 0.675604 95.3357 0.411881 95.5994C0.148158 95.8631 0 96.2208 0 96.5938C0 96.9667 0.148158 97.3244 0.411881 97.5881C0.675604 97.8518 1.03329 98 1.40625 98H88.5938C88.9667 98 89.3244 97.8518 89.5881 97.5881C89.8518 97.3244 90 96.9667 90 96.5938C90 96.2208 89.8518 95.8631 89.5881 95.5994C89.3244 95.3357 88.9667 95.1875 88.5938 95.1875Z" fill="black"/>
<path d="M88.5938 22.0625C88.9667 22.0625 89.3244 21.9143 89.5881 21.6506C89.8518 21.3869 90 21.0292 90 20.6562C90 20.2833 89.8518 19.9256 89.5881 19.6619C89.3244 19.3982 88.9667 19.25 88.5938 19.25C85.9839 19.2471 83.4818 18.209 81.6364 16.3636C79.791 14.5182 78.7529 12.0161 78.75 9.40625C78.75 9.03329 78.6018 8.6756 78.3381 8.41188C78.0744 8.14816 77.7167 8 77.3438 8C76.9708 8 76.6131 8.14816 76.3494 8.41188C76.0857 8.6756 75.9375 9.03329 75.9375 9.40625C75.9414 12.7617 77.2761 15.9786 79.6487 18.3513C82.0214 20.7239 85.2383 22.0586 88.5938 22.0625Z" fill="black"/>
<path d="M68.9062 10.8125H71.7188C72.0917 10.8125 72.4494 10.6643 72.7131 10.4006C72.9768 10.1369 73.125 9.77921 73.125 9.40625C73.125 9.03329 72.9768 8.6756 72.7131 8.41188C72.4494 8.14816 72.0917 8 71.7188 8H68.9062C68.5333 8 68.1756 8.14816 67.9119 8.41188C67.6482 8.6756 67.5 9.03329 67.5 9.40625C67.5 9.77921 67.6482 10.1369 67.9119 10.4006C68.1756 10.6643 68.5333 10.8125 68.9062 10.8125Z" fill="black"/>
<path d="M70.3255 19.9531C70.5121 20.276 70.8193 20.5117 71.1796 20.6082C71.5398 20.7048 71.9237 20.6544 72.2468 20.4681L74.683 19.0618C74.843 18.9695 74.9834 18.8466 75.0959 18.7001C75.2084 18.5536 75.291 18.3863 75.3389 18.2079C75.3868 18.0294 75.399 17.8433 75.375 17.6601C75.3509 17.4769 75.2909 17.3003 75.1986 17.1402C75.1062 16.9802 74.9832 16.84 74.8366 16.7275C74.6901 16.615 74.5227 16.5325 74.3443 16.4848C74.1658 16.437 73.9797 16.4248 73.7965 16.449C73.6133 16.4731 73.4367 16.5332 73.2767 16.6256L70.8405 18.0319C70.5176 18.2185 70.282 18.5257 70.1854 18.8859C70.0889 19.2462 70.1393 19.63 70.3255 19.9531Z" fill="black"/>
<path d="M78.9381 23.317L77.5319 25.7532C77.3456 26.0763 77.2953 26.46 77.3919 26.8202C77.4886 27.1804 77.7243 27.4874 78.0472 27.6738C78.3702 27.8602 78.7539 27.9108 79.1142 27.8143C79.4744 27.7179 79.7815 27.4823 79.9681 27.1595L81.3744 24.7232C81.5606 24.4002 81.6109 24.0164 81.5143 23.6562C81.4177 23.2961 81.182 22.989 80.859 22.8026C80.5361 22.6162 80.1523 22.5657 79.7921 22.6621C79.4319 22.7586 79.1247 22.9941 78.9381 23.317Z" fill="black"/>
<path d="M88.5938 24.875C88.2208 24.875 87.8631 25.0232 87.5994 25.2869C87.3357 25.5506 87.1875 25.9083 87.1875 26.2812V29.0938C87.1875 29.4667 87.3357 29.8244 87.5994 30.0881C87.8631 30.3518 88.2208 30.5 88.5938 30.5C88.9667 30.5 89.3244 30.3518 89.5881 30.0881C89.8518 29.8244 90 29.4667 90 29.0938V26.2812C90 25.9083 89.8518 25.5506 89.5881 25.2869C89.3244 25.0232 88.9667 24.875 88.5938 24.875Z" fill="black"/>
<path d="M47.8125 45.9688C47.8125 46.3417 47.9607 46.6994 48.2244 46.9631C48.4881 47.2268 48.8458 47.375 49.2188 47.375H56.25C56.623 47.375 56.9806 47.2268 57.2444 46.9631C57.5081 46.6994 57.6562 46.3417 57.6562 45.9688C57.6562 45.5958 57.5081 45.2381 57.2444 44.9744C56.9806 44.7107 56.623 44.5625 56.25 44.5625H49.2188C48.8458 44.5625 48.4881 44.7107 48.2244 44.9744C47.9607 45.2381 47.8125 45.5958 47.8125 45.9688Z" fill="black"/>
<path d="M42.1875 44.5625C41.8145 44.5625 41.4569 44.7107 41.1931 44.9744C40.9294 45.2381 40.7812 45.5958 40.7812 45.9688C40.7812 46.3417 40.9294 46.6994 41.1931 46.9631C41.4569 47.2268 41.8145 47.375 42.1875 47.375H45C45.373 47.375 45.7306 47.2268 45.9944 46.9631C46.2581 46.6994 46.4062 46.3417 46.4062 45.9688C46.4062 45.5958 46.2581 45.2381 45.9944 44.9744C45.7306 44.7107 45.373 44.5625 45 44.5625H42.1875Z" fill="black"/>
</g>
<defs>
<clipPath id="clip0_243_276">
<rect width="90" height="90" fill="white" transform="translate(0 8)"/>
</clipPath>
</defs>
</svg>
