<svg width="67" height="84" viewBox="0 0 67 84" fill="none" xmlns="http://www.w3.org/2000/svg">
<circle cx="39.5" cy="37.5" r="14.5" fill="#84DEC9" fill-opacity="0.55"/>
<path d="M22.5321 64.5531V73.9704C22.5321 75.2638 23.583 76.3012 24.8629 76.3012H25.9946L26.0754 76.611C26.9511 79.7905 29.8477 82 33.1485 82C36.3819 82 39.2381 79.8848 40.1677 76.7862L40.3159 76.3012H41.4476C42.741 76.3012 43.7784 75.2503 43.7784 73.9704V64.5531H22.5187H22.5321Z" stroke="black" stroke-width="3" stroke-linecap="round" stroke-linejoin="round"/>
<path d="M53.9366 35.1155C53.9366 23.7177 44.7619 14.4621 33.4045 14.3274C22.0471 14.1926 12.3873 23.6234 12.3604 35.0751C12.3604 39.4267 13.6807 43.4685 15.9575 46.8097C19.8646 52.5355 22.4917 57.6416 22.4917 64.5665H43.8053C43.8053 57.6685 46.392 52.5625 50.2991 46.8771C52.5894 43.5359 53.9366 39.4941 53.9366 35.129V35.1155Z" stroke="black" stroke-width="3" stroke-linecap="round" stroke-linejoin="round"/>
<path d="M35.7757 64.3914C35.8835 54.5969 39.09 46.2574 40.9627 42.1887C41.5555 40.9088 40.4507 39.4942 39.063 39.7501C38.4029 39.8714 37.6484 40.2756 36.8535 40.801C34.4824 42.3908 31.3971 42.3908 29.0125 40.801C28.2176 40.2621 27.4631 39.8714 26.803 39.7501C25.4153 39.4942 24.324 40.9088 24.9034 42.1887C26.776 46.2574 29.9825 54.5969 30.0903 64.3914" stroke="black" stroke-width="3" stroke-linecap="round" stroke-linejoin="round"/>
<path d="M7.69886 45.476L3.29333 47.187" stroke="black" stroke-width="3" stroke-linecap="round" stroke-linejoin="round"/>
<path d="M6.56719 27.5574L2 26.5604" stroke="black" stroke-width="3" stroke-linecap="round" stroke-linejoin="round"/>
<path d="M15.4995 13.1957L12.3065 10.0431" stroke="black" stroke-width="3" stroke-linecap="round" stroke-linejoin="round"/>
<path d="M33.4854 6.60761V2" stroke="black" stroke-width="3" stroke-linecap="round" stroke-linejoin="round"/>
<path d="M59.1101 45.476L63.5156 47.187" stroke="black" stroke-width="3" stroke-linecap="round" stroke-linejoin="round"/>
<path d="M60.39 27.5574L64.9572 26.5604" stroke="black" stroke-width="3" stroke-linecap="round" stroke-linejoin="round"/>
<path d="M51.4576 13.1957L54.6506 10.0431" stroke="black" stroke-width="3" stroke-linecap="round" stroke-linejoin="round"/>
<path d="M25.9948 76.3146H40.3161" stroke="black" stroke-width="3" stroke-linecap="round" stroke-linejoin="round"/>
<path d="M22.9634 70.4406H43.3608" stroke="black" stroke-width="3" stroke-linecap="round" stroke-linejoin="round"/>
</svg>
