<svg width="81" height="61" viewBox="0 0 81 61" fill="none" xmlns="http://www.w3.org/2000/svg">
<rect x="9" y="28" width="52" height="29" rx="11" fill="#84DEC9" fill-opacity="0.55"/>
<path d="M62.1672 25.7407H7.76881C6.97503 25.7407 6.33154 26.3842 6.33154 27.178V58.0575C6.33154 58.8513 6.97503 59.4947 7.76881 59.4947H62.1672C62.961 59.4947 63.6045 58.8513 63.6045 58.0575V27.178C63.6045 26.3842 62.961 25.7407 62.1672 25.7407Z" stroke="black" stroke-width="3" stroke-linecap="round" stroke-linejoin="round"/>
<path d="M8.34825 25.7477C6.41715 22.5245 5.70741 18.7152 6.34818 15.0128C6.98895 11.3104 8.93765 7.96114 11.8397 5.57442C14.7417 3.1877 18.4041 1.92218 22.1606 2.00814C25.917 2.09409 29.5177 3.52582 32.3075 6.04279" stroke="black" stroke-width="3" stroke-linecap="round" stroke-linejoin="round"/>
<path d="M21.7931 21.5965C24.748 21.5965 27.1435 19.201 27.1435 16.2461C27.1435 13.2911 24.748 10.8956 21.7931 10.8956C18.8381 10.8956 16.4426 13.2911 16.4426 16.2461C16.4426 19.201 18.8381 21.5965 21.7931 21.5965Z" stroke="black" stroke-width="3" stroke-linecap="round" stroke-linejoin="round"/>
<path d="M42.8228 21.5965C45.7778 21.5965 48.1733 19.201 48.1733 16.2461C48.1733 13.2911 45.7778 10.8956 42.8228 10.8956C39.8679 10.8956 37.4724 13.2911 37.4724 16.2461C37.4724 19.201 39.8679 21.5965 42.8228 21.5965Z" stroke="black" stroke-width="3" stroke-linecap="round" stroke-linejoin="round"/>
<path d="M32.3076 6.04272C35.0977 3.52428 38.6993 2.09119 42.4569 2.00421C46.2145 1.91722 49.8785 3.18213 52.7822 5.56877C55.6858 7.95542 57.6362 11.3052 58.2784 15.0085C58.9205 18.7119 58.2118 22.5227 56.2813 25.7477" stroke="black" stroke-width="3" stroke-linecap="round" stroke-linejoin="round"/>
<path d="M63.6042 36.3159L79.2015 30.058V55.1786L63.6042 48.9193" stroke="black" stroke-width="3" stroke-linecap="round" stroke-linejoin="round"/>
<path d="M6.33768 46.9688H2V38.292H6.33768" stroke="black" stroke-width="3" stroke-linecap="round" stroke-linejoin="round"/>
<path d="M56.2424 33.3594H35.2126" stroke="black" stroke-width="3" stroke-linecap="round" stroke-linejoin="round"/>
<path d="M27.5368 33.3594H23.7544" stroke="black" stroke-width="3" stroke-linecap="round" stroke-linejoin="round"/>
<path d="M17.476 33.3594H13.6936" stroke="black" stroke-width="3" stroke-linecap="round" stroke-linejoin="round"/>
</svg>
