<svg width="81" height="81" viewBox="0 0 81 81" fill="none" xmlns="http://www.w3.org/2000/svg">
<rect x="2" y="26" width="63" height="9" rx="4.5" fill="#84DEC9" fill-opacity="0.55"/>
<circle cx="22.5" cy="72.5" r="7.5" fill="#84DEC9" fill-opacity="0.55"/>
<circle cx="59.5" cy="72.5" r="7.5" fill="#84DEC9" fill-opacity="0.55"/>
<g clip-path="url(#clip0_318_770)">
<path d="M79.7344 69.6094H78.4688V62.0156C78.4666 61.0049 78.2903 60.0022 77.9476 59.0513C77.9363 59.0201 77.9277 58.9893 77.9139 58.9592C77.288 57.2596 76.1567 55.7924 74.672 54.7549C73.1873 53.7175 71.4206 53.1596 69.6094 53.1562H61.5015L56.4266 43.8519C55.6649 42.4542 54.5405 41.2877 53.1717 40.4751C51.803 39.6625 50.2405 39.2339 48.6487 39.2344H46.8281V35.4375H58.2188C59.2254 35.4364 60.1905 35.036 60.9023 34.3242C61.6141 33.6124 62.0145 32.6473 62.0156 31.6406V29.1094C62.0157 28.9431 61.983 28.7785 61.9195 28.6249C61.8559 28.4713 61.7627 28.3318 61.6451 28.2142C61.5276 28.0967 61.388 28.0035 61.2344 27.9399C61.0808 27.8763 60.9162 27.8437 60.75 27.8438H58.2188V15.1875C58.2188 15.0213 58.1862 14.8566 58.1226 14.7031C58.059 14.5495 57.9658 14.4099 57.8483 14.2924C57.7307 14.1748 57.5912 14.0816 57.4376 14.018C57.284 13.9545 57.1194 13.9218 56.9531 13.9219H53.1562V11.3906C53.1562 10.3836 52.7562 9.41788 52.0442 8.70583C51.3321 7.99378 50.3664 7.59375 49.3594 7.59375C48.3524 7.59375 47.3866 7.99378 46.6746 8.70583C45.9625 9.41788 45.5625 10.3836 45.5625 11.3906V13.9219H43.0312V11.3906C43.0313 11.2244 42.9987 11.0598 42.9351 10.9062C42.8715 10.7526 42.7783 10.613 42.6608 10.4955C42.5432 10.3779 42.4037 10.2847 42.2501 10.2211C42.0965 10.1576 41.9319 10.1249 41.7656 10.125H37.9688V6.32812H40.5C40.6662 6.32822 40.8308 6.29555 40.9844 6.23198C41.138 6.16841 41.2776 6.07519 41.3951 5.95764C41.5127 5.8401 41.6059 5.70054 41.6695 5.54695C41.733 5.39335 41.7657 5.22873 41.7656 5.0625V1.26563C41.7657 1.09939 41.733 0.934775 41.6695 0.781179C41.6059 0.627584 41.5127 0.488025 41.3951 0.370482C41.2776 0.252939 41.138 0.159717 40.9844 0.096147C40.8308 0.032577 40.6662 -9.46269e-05 40.5 2.05854e-07H27.8438C27.6775 -9.46269e-05 27.5129 0.032577 27.3593 0.096147C27.2057 0.159717 27.0662 0.252939 26.9486 0.370482C26.8311 0.488025 26.7378 0.627584 26.6743 0.781179C26.6107 0.934775 26.578 1.09939 26.5781 1.26563V5.0625C26.578 5.22873 26.6107 5.39335 26.6743 5.54695C26.7378 5.70054 26.8311 5.8401 26.9486 5.95764C27.0662 6.07519 27.2057 6.16841 27.3593 6.23198C27.5129 6.29555 27.6775 6.32822 27.8438 6.32812H30.375V10.125H26.5781C26.4119 10.1249 26.2473 10.1576 26.0937 10.2211C25.9401 10.2847 25.8005 10.3779 25.683 10.4955C25.5654 10.613 25.4722 10.7526 25.4086 10.9062C25.3451 11.0598 25.3124 11.2244 25.3125 11.3906V15.1875H22.7812V12.6562C22.7804 11.9852 22.5134 11.3419 22.0389 10.8673C21.5644 10.3928 20.9211 10.1259 20.25 10.125H15.1875C14.5164 10.1259 13.8731 10.3928 13.3986 10.8673C12.9241 11.3419 12.6571 11.9852 12.6562 12.6562V15.1875H8.85938C8.69314 15.1874 8.52852 15.2201 8.37493 15.2836C8.22133 15.3472 8.08177 15.4404 7.96423 15.558C7.84669 15.6755 7.75347 15.8151 7.6899 15.9687C7.62633 16.1223 7.59366 16.2869 7.59375 16.4531V27.8438H5.0625C4.89627 27.8437 4.73165 27.8763 4.57805 27.9399C4.42446 28.0035 4.2849 28.0967 4.16736 28.2142C4.04981 28.3318 3.95659 28.4713 3.89302 28.6249C3.82945 28.7785 3.79678 28.9431 3.79688 29.1094V31.6406C3.79797 32.6473 4.19835 33.6124 4.91017 34.3242C5.62198 35.036 6.58709 35.4364 7.59375 35.4375H18.9844V39.2517C17.1935 39.2922 15.4456 39.8084 13.92 40.7474C12.3944 41.6863 11.1461 43.0142 10.303 44.5947L2.67957 58.8886C2.66767 58.9109 2.66312 58.9361 2.65261 58.9589C2.63978 58.9866 2.63098 59.0145 2.62024 59.0432C2.56438 59.1837 2.53424 59.3332 2.53125 59.4844V69.6094H1.26563C1.09939 69.6093 0.934775 69.642 0.781179 69.7055C0.627584 69.7691 0.488025 69.8623 0.370482 69.9799C0.252939 70.0974 0.159717 70.237 0.096147 70.3906C0.032577 70.5442 -9.46269e-05 70.7088 2.05854e-07 70.875V75.9375C-9.46269e-05 76.1037 0.032577 76.2683 0.096147 76.4219C0.159717 76.5755 0.252939 76.7151 0.370482 76.8326C0.488025 76.9502 0.627584 77.0434 0.781179 77.107C0.934775 77.1705 1.09939 77.2032 1.26563 77.2031H14.9493C15.6136 78.3572 16.5703 79.3159 17.7231 79.9825C18.8759 80.649 20.184 81 21.5156 81C22.8473 81 24.1554 80.649 25.3082 79.9825C26.4609 79.3159 27.4177 78.3572 28.082 77.2031H51.6524C52.3167 78.3572 53.2734 79.3159 54.4262 79.9825C55.579 80.649 56.8871 81 58.2188 81C59.5504 81 60.8585 80.649 62.0113 79.9825C63.1641 79.3159 64.1208 78.3572 64.7851 77.2031H79.7344C79.9006 77.2032 80.0652 77.1705 80.2188 77.107C80.3724 77.0434 80.512 76.9502 80.6295 76.8326C80.7471 76.7151 80.8403 76.5755 80.9039 76.4219C80.9674 76.2683 81.0001 76.1037 81 75.9375V70.875C81.0001 70.7088 80.9674 70.5442 80.9039 70.3906C80.8403 70.237 80.7471 70.0974 80.6295 69.9799C80.512 69.8623 80.3724 69.7691 80.2188 69.7055C80.0652 69.642 79.9006 69.6093 79.7344 69.6094ZM75.9375 62.0156V63.2812H70.875V60.75H75.8096C75.8946 61.1665 75.9375 61.5905 75.9375 62.0156ZM55.1669 46.8281L58.6183 53.1562H40.5V46.8281H55.1669ZM44.2969 39.2344H41.7656V35.4375H44.2969V39.2344ZM26.5781 39.2344V35.4375H39.2344V39.2344H26.5781ZM48.0938 11.3906C48.0938 11.055 48.2271 10.733 48.4644 10.4957C48.7018 10.2583 49.0237 10.125 49.3594 10.125C49.695 10.125 50.017 10.2583 50.2543 10.4957C50.4917 10.733 50.625 11.055 50.625 11.3906V13.9219H48.0938V11.3906ZM55.6875 16.4531V27.8438H43.0312V16.4531H55.6875ZM29.1094 2.53125H39.2344V3.79688H29.1094V2.53125ZM32.9062 6.32812H35.4375V10.125H32.9062V6.32812ZM27.8438 12.6562H40.5V27.8438H27.8438V12.6562ZM25.3125 27.8438H22.7812V17.7188H25.3125V27.8438ZM15.1875 17.7188H20.25V27.8438H15.1875V17.7188ZM15.1875 12.6562H20.25V15.1875H15.1875V12.6562ZM10.125 17.7188H12.6562V27.8438H10.125V17.7188ZM6.32812 31.6406V30.375H59.4844V31.6406C59.4842 31.9762 59.3507 32.298 59.1134 32.5353C58.8761 32.7726 58.5543 32.906 58.2188 32.9062H7.59375C7.25815 32.906 6.93637 32.7726 6.69907 32.5353C6.46176 32.298 6.32835 31.9762 6.32812 31.6406ZM24.0469 35.4375V39.2344H21.5156V35.4375H24.0469ZM8.85938 60.75V63.2812H5.0625V60.75H8.85938ZM5.0625 65.8125H10.125C10.2912 65.8126 10.4559 65.7799 10.6094 65.7164C10.763 65.6528 10.9026 65.5596 11.0201 65.442C11.1377 65.3245 11.2309 65.1849 11.2945 65.0313C11.358 64.8777 11.3907 64.7131 11.3906 64.5469V59.4844C11.3907 59.3181 11.358 59.1535 11.2945 58.9999C11.2309 58.8463 11.1377 58.7068 11.0201 58.5892C10.9026 58.4717 10.763 58.3785 10.6094 58.3149C10.4559 58.2513 10.2912 58.2187 10.125 58.2188H5.90636L12.5376 45.7862C13.1839 44.5707 14.1491 43.5541 15.3295 42.8458C16.51 42.1374 17.8611 41.764 19.2378 41.7656H48.6487C49.6306 41.7657 50.599 41.9945 51.4772 42.4338C52.3553 42.8732 53.119 43.5111 53.7078 44.2969H39.2344C39.0681 44.2968 38.9035 44.3295 38.7499 44.393C38.5963 44.4566 38.4568 44.5498 38.3392 44.6674C38.2217 44.7849 38.1285 44.9245 38.0649 45.0781C38.0013 45.2317 37.9687 45.3963 37.9688 45.5625V54.4219C37.9687 54.5881 38.0013 54.7527 38.0649 54.9063C38.1285 55.0599 38.2217 55.1995 38.3392 55.317C38.4568 55.4346 38.5963 55.5278 38.7499 55.5914C38.9035 55.6549 39.0681 55.6876 39.2344 55.6875H69.6094C70.5867 55.6904 71.5499 55.9207 72.4229 56.36C73.2959 56.7993 74.0548 57.4356 74.6395 58.2188H69.6094C69.4431 58.2187 69.2785 58.2513 69.1249 58.3149C68.9713 58.3785 68.8318 58.4717 68.7142 58.5892C68.5967 58.7068 68.5035 58.8463 68.4399 58.9999C68.3763 59.1535 68.3437 59.3181 68.3438 59.4844V64.5469C68.3437 64.7131 68.3763 64.8777 68.4399 65.0313C68.5035 65.1849 68.5967 65.3245 68.7142 65.442C68.8318 65.5596 68.9713 65.6528 69.1249 65.7164C69.2785 65.7799 69.4431 65.8126 69.6094 65.8125H75.9375V69.6094H64.7851C64.1208 68.4553 63.1641 67.4966 62.0113 66.83C60.8585 66.1635 59.5504 65.8125 58.2188 65.8125C56.8871 65.8125 55.579 66.1635 54.4262 66.83C53.2734 67.4966 52.3167 68.4553 51.6524 69.6094H28.082C27.4177 68.4553 26.4609 67.4966 25.3082 66.83C24.1554 66.1635 22.8473 65.8125 21.5156 65.8125C20.184 65.8125 18.8759 66.1635 17.7231 66.83C16.5703 67.4966 15.6136 68.4553 14.9493 69.6094H5.0625V65.8125ZM2.53125 74.6719V72.1406H14.0362C13.8838 72.9775 13.8838 73.835 14.0362 74.6719H2.53125ZM21.5156 78.4688C20.5144 78.4688 19.5356 78.1718 18.7031 77.6156C17.8705 77.0593 17.2217 76.2686 16.8385 75.3436C16.4553 74.4185 16.3551 73.4006 16.5504 72.4186C16.7457 71.4366 17.2279 70.5345 17.9359 69.8265C18.6439 69.1185 19.546 68.6364 20.528 68.441C21.51 68.2457 22.5279 68.3459 23.453 68.7291C24.378 69.1123 25.1687 69.7611 25.7249 70.5937C26.2812 71.4262 26.5781 72.405 26.5781 73.4062C26.5768 74.7485 26.043 76.0354 25.0939 76.9845C24.1448 77.9336 22.8579 78.4674 21.5156 78.4688ZM28.9951 74.6719C29.1475 73.835 29.1475 72.9775 28.9951 72.1406H50.7393C50.5869 72.9775 50.5869 73.835 50.7393 74.6719H28.9951ZM58.2188 78.4688C57.2175 78.4688 56.2387 78.1718 55.4062 77.6156C54.5736 77.0593 53.9248 76.2686 53.5416 75.3436C53.1584 74.4185 53.0582 73.4006 53.2535 72.4186C53.4489 71.4366 53.931 70.5345 54.639 69.8265C55.347 69.1185 56.2491 68.6364 57.2311 68.441C58.2131 68.2457 59.231 68.3459 60.1561 68.7291C61.0811 69.1123 61.8718 69.7611 62.4281 70.5937C62.9843 71.4262 63.2812 72.405 63.2812 73.4062C63.2799 74.7485 62.7461 76.0354 61.797 76.9845C60.8479 77.9336 59.561 78.4674 58.2188 78.4688ZM78.4688 74.6719H65.6982C65.8506 73.835 65.8506 72.9775 65.6982 72.1406H78.4688V74.6719Z" fill="black"/>
<path d="M58.2188 69.6094C57.4678 69.6094 56.7337 69.8321 56.1093 70.2493C55.4849 70.6665 54.9983 71.2595 54.7109 71.9533C54.4235 72.647 54.3483 73.4105 54.4948 74.147C54.6413 74.8835 55.003 75.56 55.534 76.091C56.065 76.622 56.7415 76.9837 57.478 77.1302C58.2145 77.2767 58.978 77.2015 59.6717 76.9141C60.3655 76.6267 60.9585 76.1401 61.3757 75.5157C61.7929 74.8913 62.0156 74.1572 62.0156 73.4062C62.0145 72.3996 61.6141 71.4345 60.9023 70.7227C60.1905 70.0109 59.2254 69.6105 58.2188 69.6094ZM58.2188 74.6719C57.9684 74.6719 57.7237 74.5976 57.5156 74.4586C57.3075 74.3195 57.1453 74.1218 57.0495 73.8906C56.9537 73.6593 56.9286 73.4048 56.9774 73.1593C57.0263 72.9138 57.1468 72.6883 57.3238 72.5113C57.5008 72.3343 57.7263 72.2138 57.9718 72.1649C58.2173 72.1161 58.4718 72.1412 58.7031 72.237C58.9343 72.3328 59.132 72.495 59.2711 72.7031C59.4102 72.9112 59.4844 73.1559 59.4844 73.4062C59.4842 73.7418 59.3507 74.0636 59.1134 74.3009C58.8761 74.5382 58.5543 74.6717 58.2188 74.6719Z" fill="black"/>
<path d="M39.2344 60.75H43.0312C43.3669 60.75 43.6888 60.6167 43.9262 60.3793C44.1635 60.142 44.2969 59.82 44.2969 59.4844C44.2969 59.1487 44.1635 58.8268 43.9262 58.5894C43.6888 58.3521 43.3669 58.2188 43.0312 58.2188H39.2344C38.8987 58.2188 38.5768 58.3521 38.3394 58.5894C38.1021 58.8268 37.9688 59.1487 37.9688 59.4844C37.9688 59.82 38.1021 60.142 38.3394 60.3793C38.5768 60.6167 38.8987 60.75 39.2344 60.75Z" fill="black"/>
<path d="M34.1719 55.6875C34.3381 55.6876 34.5028 55.6549 34.6564 55.5914C34.8099 55.5278 34.9495 55.4346 35.0671 55.317C35.1846 55.1995 35.2778 55.0599 35.3414 54.9063C35.405 54.7527 35.4376 54.5881 35.4375 54.4219V45.5625C35.4376 45.3963 35.405 45.2317 35.3414 45.0781C35.2778 44.9245 35.1846 44.7849 35.0671 44.6674C34.9495 44.5498 34.8099 44.4566 34.6564 44.393C34.5028 44.3295 34.3381 44.2968 34.1719 44.2969H19.2378C18.3196 44.2986 17.419 44.549 16.6317 45.0215C15.8444 45.4939 15.1997 46.1708 14.7661 46.9802L11.1212 53.8274C11.0186 54.0202 10.9677 54.2364 10.9733 54.4547C10.979 54.6731 11.0411 54.8863 11.1536 55.0736C11.2661 55.2608 11.4251 55.4158 11.6152 55.5234C11.8053 55.631 12.0201 55.6875 12.2385 55.6875H34.1719ZM16.997 48.1778C17.2138 47.7715 17.5367 47.4315 17.9312 47.1938C18.3257 46.9562 18.7772 46.8298 19.2378 46.8281H32.9063V53.1562H14.3459L16.997 48.1778Z" fill="black"/>
<path d="M21.5156 69.6094C20.7647 69.6094 20.0306 69.8321 19.4062 70.2493C18.7818 70.6665 18.2951 71.2595 18.0078 71.9533C17.7204 72.647 17.6452 73.4105 17.7917 74.147C17.9382 74.8835 18.2998 75.56 18.8308 76.091C19.3618 76.622 20.0384 76.9837 20.7749 77.1302C21.5114 77.2767 22.2748 77.2015 22.9686 76.9141C23.6624 76.6267 24.2554 76.1401 24.6726 75.5157C25.0898 74.8913 25.3125 74.1572 25.3125 73.4062C25.3114 72.3996 24.911 71.4345 24.1992 70.7227C23.4874 70.0109 22.5223 69.6105 21.5156 69.6094ZM21.5156 74.6719C21.2653 74.6719 21.0206 74.5976 20.8125 74.4586C20.6044 74.3195 20.4421 74.1218 20.3463 73.8906C20.2505 73.6593 20.2255 73.4048 20.2743 73.1593C20.3232 72.9138 20.4437 72.6883 20.6207 72.5113C20.7977 72.3343 21.0232 72.2138 21.2687 72.1649C21.5142 72.1161 21.7687 72.1412 22 72.237C22.2312 72.3328 22.4289 72.495 22.568 72.7031C22.707 72.9112 22.7813 73.1559 22.7813 73.4062C22.781 73.7418 22.6476 74.0636 22.4103 74.3009C22.173 74.5382 21.8512 74.6717 21.5156 74.6719Z" fill="black"/>
<path d="M49.3594 22.7812C50.366 22.7802 51.3311 22.3798 52.043 21.668C52.7548 20.9561 53.1552 19.991 53.1562 18.9844C53.1563 18.6487 53.0229 18.3268 52.7856 18.0894C52.5482 17.8521 52.2263 17.7188 51.8906 17.7188C51.555 17.7188 51.233 17.8521 50.9957 18.0894C50.7583 18.3268 50.625 18.6487 50.625 18.9844C50.625 19.32 50.4917 19.642 50.2543 19.8793C50.017 20.1167 49.695 20.25 49.3594 20.25C49.0237 20.25 48.7018 20.1167 48.4644 19.8793C48.2271 19.642 48.0938 19.32 48.0938 18.9844C48.0938 18.6487 47.9604 18.3268 47.7231 18.0894C47.4857 17.8521 47.1638 17.7188 46.8281 17.7188C46.4925 17.7188 46.1705 17.8521 45.9332 18.0894C45.6958 18.3268 45.5625 18.6487 45.5625 18.9844C45.5636 19.991 45.964 20.9561 46.6758 21.668C47.3876 22.3798 48.3527 22.7802 49.3594 22.7812Z" fill="black"/>
<path d="M35.4375 13.9219H32.9062V26.5781H35.4375V13.9219Z" fill="black"/>
<path d="M31.6406 13.9219H29.1094V26.5781H31.6406V13.9219Z" fill="black"/>
<path d="M39.2344 13.9219H36.7031V26.5781H39.2344V13.9219Z" fill="black"/>
</g>
<defs>
<clipPath id="clip0_318_770">
<rect width="81" height="81" fill="white"/>
</clipPath>
</defs>
</svg>
