<svg width="87" height="87" viewBox="0 0 87 87" fill="none" xmlns="http://www.w3.org/2000/svg">
<circle cx="49.5" cy="47.5" r="31.5" fill="#84DEC9" fill-opacity="0.55"/>
<path d="M67.6591 61.5522C77.8663 47.9723 75.1321 28.689 61.5522 18.4818C47.9723 8.27458 28.689 11.0087 18.4818 24.5886C8.27459 38.1685 11.0087 57.4518 24.5886 67.659C38.1685 77.8663 57.4518 75.1321 67.6591 61.5522Z" stroke="black" stroke-width="2.63" stroke-miterlimit="10" stroke-linecap="square"/>
<path d="M7.53133 56.2995C6.71133 54.0795 6.08134 51.7495 5.67134 49.3295C5.22134 46.6495 5.07132 43.9895 5.18132 41.3795" stroke="black" stroke-width="2.63" stroke-miterlimit="10" stroke-linecap="square"/>
<path d="M13.9514 37.0695C13.9514 37.0695 26.9914 26.2896 43.0714 26.2896C52.1013 26.2896 60.1714 29.6895 65.5114 32.6695C65.9214 32.8995 66.3113 33.1195 66.6913 33.3495" stroke="black" stroke-width="2.63" stroke-miterlimit="10" stroke-linecap="square"/>
<path d="M43.0714 17.9495V73.8295" stroke="black" stroke-width="2.63" stroke-miterlimit="10" stroke-linecap="square"/>
<path d="M78.6113 29.8295C79.4313 32.0495 80.0613 34.3795 80.4713 36.7995C80.9213 39.4795 81.0713 42.1395 80.9613 44.7495" stroke="black" stroke-width="2.63" stroke-miterlimit="10" stroke-linecap="square"/>
<path d="M12.3113 43.0594H73.2813" stroke="black" stroke-width="2.63" stroke-miterlimit="10" stroke-linecap="square"/>
<path d="M72.1913 49.0594C72.1913 49.0594 59.1513 59.8394 43.0713 59.8394C33.5913 59.8394 25.1613 56.0895 19.8413 53.0095" stroke="black" stroke-width="2.63" stroke-miterlimit="10" stroke-linecap="square"/>
<path d="M49.0714 13.9495C49.0714 13.9495 59.8513 26.9895 59.8513 43.0695C59.8513 59.1495 49.0714 72.1895 49.0714 72.1895" stroke="black" stroke-width="2.63" stroke-miterlimit="10" stroke-linecap="square"/>
<path d="M37.0714 72.1795C37.0714 72.1795 26.2914 59.1394 26.2914 43.0594C26.2914 26.9794 37.0714 13.9395 37.0714 13.9395" stroke="black" stroke-width="2.63" stroke-miterlimit="10" stroke-linecap="square"/>
<path d="M7.76135 19.4495V25.1095" stroke="black" stroke-width="2.63" stroke-miterlimit="10" stroke-linecap="square"/>
<path d="M10.5913 22.2795H4.93134" stroke="black" stroke-width="2.63" stroke-miterlimit="10" stroke-linecap="square"/>
<path d="M79.1013 58.8795V64.5395" stroke="black" stroke-width="2.63" stroke-miterlimit="10" stroke-linecap="square"/>
<path d="M81.9314 61.7095H76.2714" stroke="black" stroke-width="2.63" stroke-miterlimit="10" stroke-linecap="square"/>
<path d="M75.2814 13.9495L71.2814 17.9495" stroke="black" stroke-width="2.63" stroke-miterlimit="10" stroke-linecap="square"/>
<path d="M75.2814 17.9495L71.2814 13.9495" stroke="black" stroke-width="2.63" stroke-miterlimit="10" stroke-linecap="square"/>
<path d="M15.9514 69.1694L11.9514 73.1694" stroke="black" stroke-width="2.63" stroke-miterlimit="10" stroke-linecap="square"/>
<path d="M15.9514 73.1694L11.9514 69.1694" stroke="black" stroke-width="2.63" stroke-miterlimit="10" stroke-linecap="square"/>
<path d="M43.0714 5.25951V1.8595" stroke="black" stroke-width="2.63" stroke-miterlimit="10" stroke-linecap="square"/>
<path d="M45.8714 6.39954H40.2814V11.9895H45.8714V6.39954Z" stroke="black" stroke-width="2.63" stroke-miterlimit="10" stroke-linecap="square"/>
</svg>
