<svg width="107" height="76" viewBox="0 0 107 76" fill="none" xmlns="http://www.w3.org/2000/svg">
<rect width="107" height="76" rx="11" fill="#A6CB71"/>
<circle cx="17.5" cy="60.5" r="4.5" fill="black"/>
<circle cx="35.5" cy="60.5" r="4.5" fill="black"/>
<circle cx="53.5" cy="60.5" r="4.5" fill="black"/>
<circle cx="71.5" cy="60.5" r="4.5" fill="black"/>
<circle cx="89.5" cy="60.5" r="4.5" fill="black"/>
<circle cx="17.5" cy="45.5" r="4.5" fill="black"/>
<circle cx="35.5" cy="45.5" r="4.5" fill="black"/>
<circle cx="53.5" cy="45.5" r="4.5" fill="black"/>
<circle cx="71.5" cy="45.5" r="4.5" fill="black"/>
<circle cx="89.5" cy="45.5" r="4.5" fill="black"/>
<circle cx="17.5" cy="30.5" r="4.5" fill="black"/>
<circle cx="35.5" cy="30.5" r="4.5" fill="black"/>
<circle cx="53.5" cy="30.5" r="4.5" fill="black"/>
<circle cx="71.5" cy="30.5" r="4.5" fill="black"/>
<circle cx="89.5" cy="30.5" r="4.5" fill="black"/>
<circle cx="17.5" cy="15.5" r="4.5" fill="black"/>
<circle cx="35.5" cy="15.5" r="4.5" fill="black"/>
<circle cx="53.5" cy="15.5" r="4.5" fill="black"/>
<circle cx="71.5" cy="15.5" r="4.5" fill="black"/>
<circle cx="89.5" cy="15.5" r="4.5" fill="black"/>
</svg>
