<svg width="78" height="94" viewBox="0 0 78 94" fill="none" xmlns="http://www.w3.org/2000/svg">
<circle cx="35.5" cy="43.5" r="21.5" fill="#84DEC9" fill-opacity="0.55"/>
<g clip-path="url(#clip0_318_775)">
<path d="M59.96 20.2C58.22 17.45 55.89 15.1 53.17 13.33C53.66 9.08 50.75 5.42 46.9 4.6C45.3 1.77 42.3 0 39 0C35.7 0 32.7 1.78 31.1 4.6C27.26 5.41 24.33 9.06 24.83 13.33C22.11 15.1 19.78 17.45 18.04 20.2C6.91 32.27 0 52.72 0 73.62C0 75.53 0.06 77.45 0.19 79.49C0.24 80.28 0.82 80.95 1.6 81.1C3 81.37 4.28 81.6 5.51 81.81C5.51 81.97 5.49 82.12 5.49 82.28V91.75C5.49 92.72 6.27 93.5 7.24 93.5H70.76C71.73 93.5 72.51 92.72 72.51 91.75V82.28C72.51 82.12 72.49 81.97 72.49 81.81C73.71 81.6 75 81.37 76.4 81.1C77.18 80.95 77.76 80.29 77.81 79.49C77.94 77.45 78 75.53 78 73.62C78 52.72 71.09 32.27 59.96 20.2ZM38.53 60.99C29.54 60.99 22.2 53.76 22.2 44.67V36.59C25.24 33.46 28.68 33.05 32.44 33.17C35.02 33.25 37.94 33.35 43.61 31.13C45.93 30.22 47.9 28.39 49.27 26.83C50.33 29.29 52.14 32.6 54.85 34.6V44.67C54.85 53.7 47.54 61 38.53 60.99ZM18.7 37.68V44.67C18.7 45.12 18.73 45.57 18.76 46.03C16.47 46.01 14.61 44.15 14.61 41.85C14.61 39.55 16.39 37.73 18.7 37.68ZM58.29 46.03C58.32 45.57 58.35 45.12 58.35 44.67V37.68C60.63 37.73 62.44 39.59 62.44 41.85C62.44 44.11 60.67 46 58.29 46.03ZM32.4 7.94C33.05 7.89 33.62 7.48 33.87 6.88C34.75 4.82 36.76 3.49 39 3.49C41.24 3.49 43.25 4.82 44.13 6.88C44.39 7.48 44.95 7.89 45.6 7.94C47.59 8.09 49.2 9.56 49.62 11.45C46.88 10.3 43.92 9.7 40.91 9.7H37.09C34.08 9.7 31.11 10.3 28.38 11.45C28.8 9.57 30.41 8.1 32.4 7.94ZM27.65 15.7C30.5 14.06 33.77 13.19 37.1 13.19H40.92C47.59 13.19 53.65 16.65 57.1 22.18C58.99 25.18 59.99 28.67 59.99 32.26V34.35C59.46 34.23 58.92 34.17 58.37 34.16V33.65C58.37 33.03 58.04 32.46 57.51 32.14C53.5 29.77 51.53 22.79 51.52 22.72C51.33 22.05 50.77 21.55 50.08 21.45C49.39 21.35 48.71 21.67 48.34 22.27C47.62 23.45 45.13 26.77 42.35 27.85C37.35 29.81 35.03 29.73 32.57 29.65C27.9 29.5 23.51 30.17 19.68 34.15C18.98 34.15 18.61 34.13 18.02 34.19V32.25C18.02 28.66 19.02 25.17 20.92 22.17C22.59 19.5 24.91 17.26 27.65 15.69V15.7ZM3.5 73.62C3.5 57.73 7.62 42.19 14.57 30.71C14.53 31.23 14.52 31.75 14.52 32.27V35.49C12.45 36.88 11.12 39.22 11.12 41.85C11.12 45.88 14.25 49.19 18.21 49.5C17.91 49.94 17.52 50.42 16.95 50.89C15.21 52.34 14.17 54.26 14.02 56.28C13.87 58.27 14.59 60.2 16.08 61.88C17.43 63.39 16.62 64.56 16.23 64.97C15.54 65.65 15.54 66.76 16.22 67.45C16.56 67.79 17.01 67.97 17.46 67.97C17.91 67.97 18.35 67.8 18.69 67.46C20.19 65.97 21.44 62.63 18.69 59.55C17.83 58.59 17.43 57.57 17.51 56.54C17.59 55.47 18.19 54.42 19.19 53.58C19.63 53.22 20 52.85 20.33 52.48C22.17 56.77 25.37 60.13 29.22 62.17L29.06 63.74C28.86 65.77 27.46 67.47 25.5 68.05C8.58 73.11 13.79 71.49 12.8 71.85C9.76 72.96 7.36 75.39 6.22 78.37C5.38 78.23 4.53 78.08 3.61 77.91C3.54 76.44 3.5 75.02 3.5 73.61V73.62ZM18.19 90V88.37C18.19 85.81 20.27 83.72 22.84 83.72H30.44C33.36 83.72 36.06 85.31 37.47 87.88C37.78 88.44 38.36 88.78 39 88.78C39.64 88.78 40.22 88.43 40.53 87.88C41.95 85.32 44.64 83.72 47.56 83.72H56.07C58.13 83.72 59.81 85.4 59.81 87.46V90H18.19ZM69.01 90H63.32V87.46C63.32 83.47 60.07 80.22 56.08 80.22H47.57C44.27 80.22 41.17 81.64 39.01 84.03C36.85 81.63 33.75 80.22 30.45 80.22H22.85C18.36 80.22 14.7 83.87 14.7 88.37V90H9.01V82.28C9.01 79 11.12 76.22 13.97 75.16L26.52 71.4C29.85 70.4 32.22 67.53 32.56 64.08L32.61 63.58C36.71 64.87 41.33 64.76 45.4 63.27L45.48 64.07C45.82 67.52 48.19 70.39 51.52 71.39L64.07 75.14C66.9 76.19 69.03 78.95 69.03 82.26V89.98L69.01 90ZM74.39 77.92C73.47 78.09 72.62 78.24 71.78 78.38C70.54 75.13 67.76 72.65 65.1 71.83L52.5 68.06C50.54 67.47 49.14 65.78 48.94 63.74L48.73 61.67C52.51 59.4 55.26 56.09 56.84 52.28C57.21 52.71 57.63 53.15 58.14 53.58C59.15 54.42 59.74 55.47 59.82 56.54C59.9 57.57 59.5 58.58 58.64 59.55C55.89 62.63 57.14 65.96 58.64 67.46C58.98 67.8 59.42 67.96 59.86 67.96C60.3 67.96 60.75 67.79 61.09 67.46C61.77 66.79 61.78 65.69 61.13 64.99C60.72 64.56 59.91 63.39 61.26 61.88C62.76 60.21 63.47 58.27 63.32 56.28C63.17 54.25 62.13 52.34 60.39 50.89C59.81 50.41 59.41 49.93 59.12 49.48C62.95 49.06 65.96 45.81 65.96 41.85C65.96 39.71 65.07 37.71 63.49 36.23V32.27C63.49 31.75 63.47 31.23 63.44 30.71C70.39 42.19 74.51 57.73 74.51 73.62C74.51 75.03 74.47 76.45 74.4 77.92H74.39Z" fill="black"/>
</g>
<defs>
<clipPath id="clip0_318_775">
<rect width="78" height="93.5" fill="white"/>
</clipPath>
</defs>
</svg>
