<svg width="67" height="59" viewBox="0 0 67 59" fill="none" xmlns="http://www.w3.org/2000/svg">
<circle cx="17" cy="17" r="17" fill="#84DEC9" fill-opacity="0.55"/>
<path d="M48.0185 12.5173C43.6231 12.5173 38.4483 10.526 32.9695 8.41694C27.3278 6.24532 21.4942 4 16.2954 4C8.96429 4 3 9.95854 3 17.2837C3 22.2596 5.75357 26.6043 9.81716 28.8798V43.3194C9.81716 46.4352 12.0321 49.043 14.9714 49.6556C14.5933 53.7393 12.1039 55.8904 7.70989 55.8904C7.00772 55.8904 6.43809 56.4593 6.43809 57.1611C6.43809 57.8629 7.00747 58.4323 7.70989 58.4323C13.4899 58.4323 17.0888 55.1835 17.523 49.6743C20.51 49.0989 22.774 46.4693 22.774 43.3197V29.6404C26.1223 28.7851 29.5805 27.4545 32.9692 26.1504C38.4478 24.0414 43.6228 22.0496 48.0183 22.0496C48.721 22.0496 49.2906 21.4805 49.2906 20.7784V13.7885C49.2908 13.0867 48.7212 12.5173 48.0185 12.5173ZM20.2299 43.3194C20.2299 45.4869 18.4649 47.2504 16.2954 47.2504C14.126 47.2504 12.3613 45.4869 12.3613 43.3194V29.9734C13.605 30.3591 14.9264 30.5671 16.2954 30.5671C17.5726 30.5671 18.8882 30.4308 20.2299 30.1943V43.3194ZM46.7465 19.5539C42.1815 19.8801 37.0408 21.8592 32.0549 23.7782C26.6303 25.866 21.021 28.0248 16.2957 28.0248C10.3677 28.0248 5.54482 23.2062 5.54482 17.2834C5.54482 11.3602 10.3677 6.5416 16.2957 6.5416C21.021 6.5416 26.6305 8.70064 32.0549 10.7886C37.0408 12.7077 42.1815 14.6865 46.7465 15.0127V19.5539Z" fill="black"/>
<path d="M56.1417 12.8767H60.7178C61.4202 12.8767 61.9899 12.3075 61.9899 11.6055C61.9899 10.9035 61.4205 10.3348 60.7178 10.3348H56.1417C55.439 10.3348 54.8694 10.9037 54.8694 11.6055C54.8694 12.3073 55.4388 12.8767 56.1417 12.8767Z" fill="black"/>
<path d="M64.7519 16.0126H56.1414C55.4388 16.0126 54.8691 16.5815 54.8691 17.2837C54.8691 17.9855 55.4385 18.5549 56.1414 18.5549H64.7519C65.4543 18.5549 66.0242 17.9858 66.0242 17.2837C66.0242 16.5815 65.4546 16.0126 64.7519 16.0126Z" fill="black"/>
<path d="M60.7178 21.6902H56.1417C55.439 21.6902 54.8694 22.2593 54.8694 22.9614C54.8694 23.6634 55.4388 24.2321 56.1417 24.2321H60.7178C61.4202 24.2321 61.9899 23.6632 61.9899 22.9614C61.9899 22.2596 61.4202 21.6902 60.7178 21.6902Z" fill="black"/>
<path d="M16.2954 9.87366C12.2062 9.87366 8.87915 13.1981 8.87915 17.2837C8.87915 21.3693 12.2062 24.6931 16.2954 24.6931C20.3849 24.6931 23.7117 21.3693 23.7117 17.2837C23.7117 13.1981 20.3852 9.87366 16.2954 9.87366ZM16.2954 22.1511C13.6091 22.1511 11.4232 19.9681 11.4232 17.2837C11.4232 14.5992 13.6089 12.4153 16.2954 12.4153C18.982 12.4153 21.1676 14.5992 21.1676 17.2837C21.1676 19.9681 18.982 22.1511 16.2954 22.1511Z" fill="black"/>
</svg>
