<svg width="82" height="58" viewBox="0 0 82 58" fill="none" xmlns="http://www.w3.org/2000/svg">
<rect y="40" width="81" height="9" rx="4.5" fill="#84DEC9" fill-opacity="0.55"/>
<rect y="17" width="81" height="9" rx="4.5" fill="#84DEC9" fill-opacity="0.55"/>
<path d="M81.6796 6.12615C81.2806 4.00684 79.3894 0 75.0838 0C70.7781 0 68.8869 4.00684 68.4885 6.12615C68.4757 6.19157 68.4693 6.25809 68.4694 6.32474V14.304H65.3338V6.32474C65.3338 6.25812 65.3276 6.19164 65.3154 6.12615C64.9163 4.00684 63.0251 0 58.7195 0C54.4138 0 52.5195 4.00991 52.1211 6.12615C52.1083 6.19157 52.102 6.25809 52.1021 6.32474V14.304H48.9634V6.32474C48.9635 6.25809 48.9571 6.19157 48.9443 6.12615C48.5459 4.00991 46.6528 0 42.349 0C38.0452 0 36.1522 4.00991 35.7532 6.12615C35.7409 6.19164 35.7347 6.25812 35.7347 6.32474V14.304H32.5991V6.32474C32.5992 6.25809 32.5928 6.19157 32.58 6.12615C32.1816 4.00684 30.2904 0 25.9848 0C21.6791 0 19.7848 4.00991 19.3858 6.12615C19.3735 6.19164 19.3673 6.25812 19.3674 6.32474V14.304H16.2287V6.32474C16.2288 6.25809 16.2224 6.19157 16.2096 6.12615C15.8112 4.00684 13.92 0 9.61433 0C5.30868 0 3.41747 4.00991 3.01845 6.12615C3.00616 6.19164 2.99998 6.25812 3 6.32474V56.4991C2.99992 56.6404 3.02769 56.7803 3.08174 56.9109C3.13578 57.0415 3.21503 57.1601 3.31496 57.2601C3.41489 57.36 3.53353 57.4392 3.66411 57.4933C3.79468 57.5473 3.93463 57.5751 4.07595 57.575H15.1527C15.4381 57.575 15.7117 57.4617 15.9135 57.2599C16.1153 57.0581 16.2287 56.7844 16.2287 56.4991V48.194H19.3674V56.4991C19.3673 56.6404 19.3951 56.7803 19.4491 56.9109C19.5031 57.0415 19.5824 57.1601 19.6823 57.2601C19.7822 57.36 19.9009 57.4392 20.0315 57.4933C20.162 57.5473 20.302 57.5751 20.4433 57.575H31.5201C31.8054 57.575 32.0791 57.4617 32.2809 57.2599C32.4827 57.0581 32.596 56.7844 32.596 56.4991V48.194H35.7316V56.4991C35.7316 56.6404 35.7593 56.7803 35.8134 56.9109C35.8674 57.0415 35.9467 57.1601 36.0466 57.2601C36.1465 57.36 36.2652 57.4392 36.3957 57.4933C36.5263 57.5473 36.6663 57.5751 36.8076 57.575H47.8874C48.0287 57.5751 48.1687 57.5473 48.2993 57.4933C48.4298 57.4392 48.5485 57.36 48.6484 57.2601C48.7483 57.1601 48.8276 57.0415 48.8816 56.9109C48.9357 56.7803 48.9635 56.6404 48.9634 56.4991V48.194H52.1021V56.4991C52.102 56.6404 52.1298 56.7803 52.1838 56.9109C52.2379 57.0415 52.3171 57.1601 52.417 57.2601C52.517 57.36 52.6356 57.4392 52.7662 57.4933C52.8968 57.5473 53.0367 57.5751 53.178 57.575H64.2548C64.3961 57.5751 64.536 57.5473 64.6666 57.4933C64.7972 57.4392 64.9158 57.36 65.0158 57.2601C65.1157 57.1601 65.195 57.0415 65.249 56.9109C65.303 56.7803 65.3308 56.6404 65.3307 56.4991V48.194H68.4664V56.4991C68.4664 56.7844 68.5797 57.0581 68.7815 57.2599C68.9833 57.4617 69.2569 57.575 69.5423 57.575H80.6221C80.7635 57.5751 80.9034 57.5473 81.034 57.4933C81.1646 57.4392 81.2832 57.36 81.3831 57.2601C81.4831 57.1601 81.5623 57.0415 81.6164 56.9109C81.6704 56.7803 81.6982 56.6404 81.6981 56.4991V6.32474C81.6981 6.25812 81.6919 6.19164 81.6796 6.12615ZM64.2548 46.0421H5.1519V39.279H79.5462V46.0421H64.2548ZM79.5462 16.4559V23.219H5.1519V16.4559H79.5462ZM79.5462 37.1252H70.6213V25.3721H79.5462V37.1252ZM65.3307 37.1252V25.3721H68.4664V37.1252H65.3307ZM48.9634 37.1252V25.3721H52.1021V37.1252H48.9634ZM32.596 37.1252V25.3721H35.7316V37.1252H32.596ZM16.2287 37.1252V25.3721H19.3674V37.1252H16.2287ZM5.1519 25.3721H14.0768V37.1252H5.1519V25.3721ZM21.5193 25.3721H30.4441V37.1252H21.5193V25.3721ZM37.8866 25.3721H46.8115V37.1252H37.8866V25.3721ZM54.254 25.3721H63.1788V37.1252H54.254V25.3721ZM70.6213 6.43541C70.767 5.79415 71.7397 2.15006 75.0838 2.15006C78.4278 2.15006 79.4011 5.79415 79.5462 6.43541V14.304H70.6213V6.43541ZM54.254 6.43541C54.3997 5.79415 55.3724 2.15006 58.7164 2.15006C62.0605 2.15006 63.0337 5.79415 63.1788 6.43541V14.304H54.254V6.43541ZM37.8866 6.43541C38.0317 5.79415 39.0044 2.15006 42.349 2.15006C45.6937 2.15006 46.6658 5.79415 46.8115 6.43541V14.304H37.8866V6.43541ZM21.5193 6.43541C21.6644 5.79415 22.637 2.15006 25.9817 2.15006C29.3264 2.15006 30.2984 5.79415 30.4441 6.43541V14.304H21.5193V6.43541ZM9.61433 2.15006C12.9584 2.15006 13.931 5.79415 14.0768 6.43541V14.304H5.1519V6.43726C5.297 5.79599 6.26966 2.1519 9.61433 2.1519V2.15006ZM14.0768 55.4213H5.1519V48.194H14.0768V55.4213ZM30.4441 55.4213H21.5193V48.194H30.4441V55.4213ZM46.8115 55.4213H37.8866V48.194H46.8115V55.4213ZM63.1788 55.4213H54.254V48.194H63.1788V55.4213ZM79.5462 55.4213H70.6213V48.194H79.5462V55.4213Z" fill="black"/>
<path d="M8.19216 20.914H11.0357C11.3211 20.914 11.5948 20.8006 11.7966 20.5988C11.9983 20.3971 12.1117 20.1234 12.1117 19.838C12.1117 19.5527 11.9983 19.279 11.7966 19.0772C11.5948 18.8754 11.3211 18.7621 11.0357 18.7621H8.19216C7.9068 18.7621 7.63313 18.8754 7.43135 19.0772C7.22957 19.279 7.11621 19.5527 7.11621 19.838C7.11621 20.1234 7.22957 20.3971 7.43135 20.5988C7.63313 20.8006 7.9068 20.914 8.19216 20.914Z" fill="black"/>
<path d="M24.5596 20.914H27.4032C27.6885 20.914 27.9622 20.8006 28.164 20.5988C28.3658 20.3971 28.4791 20.1234 28.4791 19.838C28.4791 19.5527 28.3658 19.279 28.164 19.0772C27.9622 18.8754 27.6885 18.7621 27.4032 18.7621H24.5596C24.2742 18.7621 24.0006 18.8754 23.7988 19.0772C23.597 19.279 23.4836 19.5527 23.4836 19.838C23.4836 20.1234 23.597 20.3971 23.7988 20.5988C24.0006 20.8006 24.2742 20.914 24.5596 20.914Z" fill="black"/>
<path d="M40.927 20.914H43.7706C44.056 20.914 44.3296 20.8006 44.5314 20.5988C44.7332 20.3971 44.8466 20.1234 44.8466 19.838C44.8466 19.5527 44.7332 19.279 44.5314 19.0772C44.3296 18.8754 44.056 18.7621 43.7706 18.7621H40.927C40.6417 18.7621 40.368 18.8754 40.1662 19.0772C39.9644 19.279 39.8511 19.5527 39.8511 19.838C39.8511 20.1234 39.9644 20.3971 40.1662 20.5988C40.368 20.8006 40.6417 20.914 40.927 20.914Z" fill="black"/>
<path d="M57.2949 20.914H60.1385C60.4239 20.914 60.6976 20.8006 60.8993 20.5988C61.1011 20.3971 61.2145 20.1234 61.2145 19.838C61.2145 19.5527 61.1011 19.279 60.8993 19.0772C60.6976 18.8754 60.4239 18.7621 60.1385 18.7621H57.2949C57.0096 18.7621 56.7359 18.8754 56.5341 19.0772C56.3324 19.279 56.219 19.5527 56.219 19.838C56.219 20.1234 56.3324 20.3971 56.5341 20.5988C56.7359 20.8006 57.0096 20.914 57.2949 20.914Z" fill="black"/>
<path d="M73.6624 20.914H76.506C76.7913 20.914 77.065 20.8006 77.2668 20.5988C77.4685 20.3971 77.5819 20.1234 77.5819 19.838C77.5819 19.5527 77.4685 19.279 77.2668 19.0772C77.065 18.8754 76.7913 18.7621 76.506 18.7621H73.6624C73.377 18.7621 73.1033 18.8754 72.9016 19.0772C72.6998 19.279 72.5864 19.5527 72.5864 19.838C72.5864 20.1234 72.6998 20.3971 72.9016 20.5988C73.1033 20.8006 73.377 20.914 73.6624 20.914Z" fill="black"/>
<path d="M11.0357 41.584H8.19216C7.9068 41.584 7.63313 41.6973 7.43135 41.8991C7.22957 42.1009 7.11621 42.3746 7.11621 42.6599C7.11621 42.9453 7.22957 43.219 7.43135 43.4207C7.63313 43.6225 7.9068 43.7359 8.19216 43.7359H11.0357C11.3211 43.7359 11.5948 43.6225 11.7966 43.4207C11.9983 43.219 12.1117 42.9453 12.1117 42.6599C12.1117 42.3746 11.9983 42.1009 11.7966 41.8991C11.5948 41.6973 11.3211 41.584 11.0357 41.584Z" fill="black"/>
<path d="M27.4032 41.584H24.5596C24.2742 41.584 24.0006 41.6973 23.7988 41.8991C23.597 42.1009 23.4836 42.3746 23.4836 42.6599C23.4836 42.9453 23.597 43.219 23.7988 43.4207C24.0006 43.6225 24.2742 43.7359 24.5596 43.7359H27.4032C27.6885 43.7359 27.9622 43.6225 28.164 43.4207C28.3658 43.219 28.4791 42.9453 28.4791 42.6599C28.4791 42.3746 28.3658 42.1009 28.164 41.8991C27.9622 41.6973 27.6885 41.584 27.4032 41.584Z" fill="black"/>
<path d="M43.7706 41.584H40.927C40.6417 41.584 40.368 41.6973 40.1662 41.8991C39.9644 42.1009 39.8511 42.3746 39.8511 42.6599C39.8511 42.9453 39.9644 43.219 40.1662 43.4207C40.368 43.6225 40.6417 43.7359 40.927 43.7359H43.7706C44.056 43.7359 44.3296 43.6225 44.5314 43.4207C44.7332 43.219 44.8466 42.9453 44.8466 42.6599C44.8466 42.3746 44.7332 42.1009 44.5314 41.8991C44.3296 41.6973 44.056 41.584 43.7706 41.584Z" fill="black"/>
<path d="M60.1385 41.584H57.2949C57.0096 41.584 56.7359 41.6973 56.5341 41.8991C56.3324 42.1009 56.219 42.3746 56.219 42.6599C56.219 42.9453 56.3324 43.219 56.5341 43.4207C56.7359 43.6225 57.0096 43.7359 57.2949 43.7359H60.1385C60.4239 43.7359 60.6976 43.6225 60.8993 43.4207C61.1011 43.219 61.2145 42.9453 61.2145 42.6599C61.2145 42.3746 61.1011 42.1009 60.8993 41.8991C60.6976 41.6973 60.4239 41.584 60.1385 41.584Z" fill="black"/>
<path d="M76.506 41.584H73.6624C73.377 41.584 73.1033 41.6973 72.9016 41.8991C72.6998 42.1009 72.5864 42.3746 72.5864 42.6599C72.5864 42.9453 72.6998 43.219 72.9016 43.4207C73.1033 43.6225 73.377 43.7359 73.6624 43.7359H76.506C76.7913 43.7359 77.065 43.6225 77.2668 43.4207C77.4685 43.219 77.5819 42.9453 77.5819 42.6599C77.5819 42.3746 77.4685 42.1009 77.2668 41.8991C77.065 41.6973 76.7913 41.584 76.506 41.584Z" fill="black"/>
</svg>
