<svg width="38" height="66" viewBox="0 0 38 66" fill="none" xmlns="http://www.w3.org/2000/svg">
<rect x="32" width="60" height="32" rx="11" transform="rotate(90 32 0)" fill="#84DEC9" fill-opacity="0.55"/>
<path d="M35.8184 3H5.27181C4.56915 3 4 3.56888 4 4.27068V63.3768C4 64.0786 4.56939 64.6479 5.27181 64.6479H5.76331C5.76331 65.3493 6.33294 65.9186 7.03512 65.9186H11.8991C12.6018 65.9186 13.1714 65.3495 13.1714 64.6479H27.9186C27.9186 65.3493 28.488 65.9186 29.1909 65.9186H34.0548C34.757 65.9186 35.3266 65.3495 35.3266 64.6479H35.8184C36.5203 64.6479 37.0902 64.0788 37.0902 63.3768V4.27068C37.0902 3.56888 36.5206 3 35.8184 3ZM6.5441 5.5416H34.5463V24.4718H6.5441V5.5416ZM6.5441 62.1056V27.0137H34.5463V62.1056H6.5441Z" fill="black"/>
<path d="M13.4124 34.2264C12.9159 33.7295 12.1102 33.7295 11.6136 34.2264C11.1168 34.7226 11.1168 35.5273 11.6136 36.0234L12.7623 37.1714V43.0586L11.6179 44.2027C11.1209 44.6988 11.1209 45.5035 11.6179 46.0002C11.8661 46.2479 12.1919 46.3721 12.5172 46.3721C12.8428 46.3721 13.1684 46.2479 13.4168 45.9997L14.9336 44.4837C15.1724 44.2459 15.3064 43.9226 15.3064 43.5854V36.6445C15.3064 36.3074 15.1724 35.9843 14.9336 35.7458L13.4124 34.2264Z" fill="black"/>
<path d="M13.4315 9.24515C12.9349 8.74901 12.1292 8.74901 11.6326 9.24515C11.1358 9.74154 11.1358 10.5463 11.6326 11.0427L12.7433 12.1522V17.8661L11.637 18.9715C11.1399 19.4681 11.1399 20.2726 11.637 20.769C11.8851 21.0172 12.211 21.1412 12.5363 21.1412C12.8621 21.1412 13.1874 21.0172 13.4361 20.769L14.9152 19.2912C15.1539 19.053 15.2877 18.7298 15.2877 18.3925V11.6261C15.2877 11.2889 15.1539 10.9658 14.9152 10.7273L13.4315 9.24515Z" fill="black"/>
</svg>
