<svg width="35" height="35" viewBox="0 0 35 35" fill="none" xmlns="http://www.w3.org/2000/svg">
<path d="M25.9125 10.125C25.9125 16.2738 19.0805 15.8563 19.0805 20.1073V20.1302C19.0805 20.6207 18.683 21.0182 18.1926 21.0182H14.465C13.9746 21.0182 13.5771 20.6207 13.5771 20.1302V19.8795C13.5771 13.3132 19.574 13.7308 19.574 10.6564C19.574 9.32796 18.5872 8.53089 16.9551 8.53089C15.6274 8.53089 14.2706 9.11147 13.0371 10.298C12.7211 10.6021 12.2268 10.6213 11.8814 10.3511L9.42989 8.43361C9.01673 8.11048 8.96881 7.49812 9.33405 7.12159C11.3807 5.01168 14.0403 3.74854 17.5624 3.74854C23.1418 3.7486 25.9125 6.74705 25.9125 10.125ZM19.8396 27.926C19.8396 29.8238 18.3214 31.3799 16.3857 31.3799C14.4879 31.3799 12.9318 29.8238 12.9318 27.926C12.9318 26.0283 14.4879 24.4722 16.3857 24.4722C18.3215 24.4722 19.8396 26.0283 19.8396 27.926Z" fill="white"/>
</svg>
