<svg width="485" height="73" viewBox="0 0 485 73" fill="none" xmlns="http://www.w3.org/2000/svg">
<path d="M73 16V71.5H22.5L22.6866 66.5074C23.7104 39.1227 45.6195 17.1291 73 16Z" fill="white" stroke="white"/>
<path d="M1 1H73C36.5595 2.7216 6.19555 30.4356 1.67063 66.635L1 72V1Z" fill="white" stroke="white"/>
<path d="M159.648 34.0838H131.466V41.7042H152.047V43.5628C152.047 55.644 143.147 64.3796 130.817 64.3796C123.957 64.3796 117.746 61.8704 113.76 57.5026C109.31 52.6702 106.622 44.5851 106.622 36.2212C106.622 19.5864 116.077 8.62042 130.354 8.62042C140.644 8.62042 148.06 13.9175 149.914 22.6531H158.721C156.311 8.89922 145.928 1 130.447 1C122.196 1 115.521 3.13744 110.237 7.50524C102.357 14.0105 98 24.5118 98 36.6859C98 57.5026 110.7 72 128.963 72C138.141 72 145.372 68.5615 152.047 61.2199L154.179 70.2343H159.648V34.0838Z" fill="white"/>
<path d="M209.473 49.5105L216.426 69.8626H226.067L202.335 2.11519H191.211L167.107 69.8626H176.285L183.423 49.5105H209.473ZM207.063 42.2618H185.556L196.68 11.4084L207.063 42.2618Z" fill="white"/>
<path d="M275.278 2.11519V49.6963C275.278 58.8037 268.696 64.3796 257.85 64.3796C252.844 64.3796 248.765 63.1715 245.52 60.8482C242.183 58.2461 240.607 54.8076 240.607 49.6963V2.11519H231.985V49.6963C231.985 63.4503 241.812 72 257.85 72C273.702 72 283.9 63.2644 283.9 49.6963V2.11519H275.278Z" fill="white"/>
<path d="M299.259 69.8626H325.309C342.366 69.8626 352.842 57.038 352.842 35.9424C352.842 14.9398 342.459 2.11519 325.309 2.11519H299.259V69.8626ZM307.88 62.2421V9.73561H323.826C337.175 9.73561 344.22 18.75 344.22 36.0353C344.22 53.2277 337.175 62.2421 323.826 62.2421H307.88Z" fill="white"/>
<path d="M373.79 39.0092H410.593V31.3887H373.79V9.73561H411.984V2.11519H365.168V69.8626H413.652V62.2421H373.79V39.0092Z" fill="white"/>
<path d="M452.275 1C432.9 1 419.736 15.3115 419.736 36.5C419.736 57.7814 432.807 72 452.368 72C460.619 72 467.85 69.4908 473.319 64.8442C480.643 58.6178 485 48.1165 485 37.0576C485 15.2186 472.114 1 452.275 1ZM452.275 8.62042C466.923 8.62042 476.378 19.6793 476.378 36.8717C476.378 53.2277 466.645 64.3796 452.368 64.3796C437.906 64.3796 428.358 53.2277 428.358 36.5C428.358 19.7722 437.906 8.62042 452.275 8.62042Z" fill="white"/>
</svg>
