<svg width="95" height="84" viewBox="0 0 95 84" fill="none" xmlns="http://www.w3.org/2000/svg">
<rect y="15" width="57" height="34" rx="11" fill="#84DEC9" fill-opacity="0.55"/>
<path d="M93.7695 73.5713H84.7147C84.4292 73.5716 84.1489 73.4936 83.9038 73.3456C83.6586 73.1976 83.4578 72.9852 83.3225 72.731L67.4811 43.0259C66.5335 41.2466 65.127 39.7601 63.4108 38.7244C61.6946 37.6887 59.733 37.1424 57.7344 37.1436H51.2305V12.6262C51.2306 12.3976 51.1683 12.1734 51.0506 11.9783C50.9329 11.7831 50.7642 11.6245 50.5632 11.52L28.6784 0.137169C28.5043 0.0470154 28.3115 0 28.1159 0C27.9203 0 27.7275 0.0470154 27.5534 0.137169L5.66727 11.52C5.46622 11.6245 5.29758 11.7831 5.17986 11.9783C5.06214 12.1734 4.99991 12.3976 5 12.6262V81.9277C5.00019 82.2576 5.12988 82.5739 5.3606 82.8072C5.59132 83.0405 5.90419 83.1716 6.23047 83.1718H12.2506C12.577 83.1718 12.8899 83.0407 13.1207 82.8074C13.3515 82.5741 13.4811 82.2577 13.4811 81.9277V46.7441H18.5788V81.9277C18.5788 82.2577 18.7084 82.5741 18.9391 82.8074C19.1699 83.0407 19.4829 83.1718 19.8092 83.1718C20.1356 83.1718 20.4485 83.0407 20.6793 82.8074C20.91 82.5741 21.0397 82.2577 21.0397 81.9277V77.5746H35.1901V81.9277C35.1901 82.2577 35.3197 82.5741 35.5505 82.8074C35.7812 83.0407 36.0942 83.1718 36.4205 83.1718C36.7469 83.1718 37.0599 83.0407 37.2906 82.8074C37.5214 82.5741 37.651 82.2577 37.651 81.9277V46.7441H42.7487V81.9277C42.7489 82.2576 42.8786 82.5739 43.1093 82.8072C43.34 83.0405 43.6529 83.1716 43.9791 83.1718H50C50.3263 83.1716 50.6391 83.0405 50.8699 82.8072C51.1006 82.5739 51.2303 82.2576 51.2305 81.9277V46.7413H57.7344C58.0198 46.7412 58.3 46.8193 58.5451 46.9673C58.7902 47.1152 58.9911 47.3275 59.1266 47.5816L74.9673 77.286C75.9146 79.0657 77.3212 80.5525 79.0376 81.5884C80.7539 82.6243 82.7158 83.1705 84.7147 83.169H93.7695C94.0959 83.169 94.4088 83.0379 94.6396 82.8046C94.8704 82.5713 95 82.2548 95 81.9248V74.8155C95.0001 74.6521 94.9683 74.4902 94.9065 74.3392C94.8447 74.1883 94.7541 74.0511 94.6398 73.9355C94.5255 73.82 94.3899 73.7283 94.2405 73.6658C94.0912 73.6034 93.9311 73.5712 93.7695 73.5713ZM37.651 44.2558V32.2587C37.6492 30.6095 37.0004 29.0283 35.847 27.8621C34.6936 26.6959 33.1298 26.0399 31.4987 26.038H24.7311C23.1 26.0401 21.5363 26.6962 20.383 27.8623C19.2296 29.0285 18.5808 30.6096 18.5788 32.2587V44.2558H7.46094V19.0175H48.7695V44.2558H37.651ZM21.0397 53.5805H35.1901V59.0902H21.0397V53.5805ZM21.0397 61.5785H35.1901V67.0883H21.0397V61.5785ZM35.1901 51.0922H21.0397V46.7441H35.1901V51.0922ZM35.1901 44.2558H21.0397V32.2587C21.0408 31.2692 21.4301 30.3205 22.1221 29.6208C22.8141 28.9211 23.7524 28.5275 24.7311 28.5263H31.4987C32.4774 28.5275 33.4156 28.9211 34.1077 29.6208C34.7997 30.3205 35.189 31.2692 35.1901 32.2587V44.2558ZM7.46094 13.3855L28.1152 2.64109L48.7695 13.3855V16.5293H7.46094V13.3855ZM11.0202 80.6864H7.46094V46.7441H11.0202V80.6864ZM21.0397 75.0892V69.5794H35.1901V75.0892H21.0397ZM48.7695 80.6864H45.2096V46.7441H48.7695V80.6864ZM92.5391 80.6864H84.7147C83.16 80.6875 81.634 80.2626 80.299 79.4569C78.9641 78.6513 77.8699 77.4949 77.1329 76.1108L61.2922 46.4007C60.9464 45.7511 60.433 45.2084 59.8065 44.8302C59.1801 44.4521 58.464 44.2526 57.7344 44.253H51.2305V39.6319H57.7344C59.289 39.6308 60.8148 40.0557 62.1497 40.8613C63.4846 41.667 64.5786 42.8234 65.3155 44.2075L81.1555 73.9112C81.5012 74.5611 82.0148 75.1042 82.6416 75.4825C83.2683 75.8608 83.9848 76.0603 84.7147 76.0596H92.5391V80.6864Z" fill="black"/>
</svg>
