<svg width="77" height="73" viewBox="0 0 77 73" fill="none" xmlns="http://www.w3.org/2000/svg">
<circle cx="60" cy="23" r="17" fill="#84DEC9" fill-opacity="0.55"/>
<g clip-path="url(#clip0_318_777)">
<path d="M51.7095 18.0836C51.2976 17.666 50.6298 17.666 50.2181 18.0836C49.1285 19.1883 49.3497 20.4986 49.5113 21.4553C49.6651 22.3666 49.6682 22.6738 49.3922 22.9538C48.9803 23.3714 48.9803 24.0485 49.3922 24.466C49.598 24.6748 49.868 24.7792 50.1379 24.7792C50.4078 24.7792 50.6778 24.6748 50.8836 24.466C51.9732 23.3613 51.7519 22.051 51.5903 21.0944C51.4364 20.1831 51.4333 19.8758 51.7095 19.5959C52.1216 19.1783 52.1216 18.5012 51.7095 18.0836Z" fill="black"/>
<path d="M7.94666 15.0663H9.96604C10.5485 15.0663 11.0207 14.5875 11.0207 13.9969C11.0207 13.4064 10.5485 12.9276 9.96604 12.9276H8.01416V5.99829H23.2171V12.9276H14.8879C14.3054 12.9276 13.8332 13.4064 13.8332 13.9969C13.8332 14.5875 14.3054 15.0663 14.8879 15.0663H23.2846C24.4105 15.0663 25.3265 14.1375 25.3265 12.996V5.92985C25.3265 4.78837 24.4105 3.85962 23.2846 3.85962H7.94666C6.82082 3.85962 5.90479 4.78837 5.90479 5.92985V12.996C5.90479 14.1375 6.82068 15.0663 7.94666 15.0663Z" fill="black"/>
<path d="M23.2844 22.8998H7.94603C6.82019 22.8998 5.9043 23.8284 5.9043 24.9699V32.0353C5.9043 33.1768 6.82019 34.1054 7.94603 34.1054H23.2843C24.4101 34.1054 25.326 33.1768 25.326 32.0353V24.9699C25.3262 23.8284 24.4101 22.8998 23.2844 22.8998ZM23.2168 31.9669H8.01367V25.0386H23.2166V31.9669H23.2168Z" fill="black"/>
<path d="M72 14.7808V11.4964C72 10.4064 71.1255 9.51966 70.0504 9.51966H67.95L65.0415 1.96387C64.5822 0.77092 63.4694 0.000142578 62.2065 0.000142578H38.9147C37.6518 0.000142578 36.5389 0.77092 36.0797 1.96387L33.1713 9.51966H31.2307V2.95008C31.2304 1.32341 29.9251 0 28.3207 0H2.90981C1.30528 0 0 1.32341 0 2.95008V18.2279C0 18.9422 0.251859 19.5978 0.670078 20.1086C0.251859 20.6198 0 21.2754 0 21.9897V37.2675C0 37.8851 0.189 38.4586 0.510188 38.933C0.191672 39.3299 0 39.8355 0 40.3858V44.2441C0 45.5162 1.02066 46.551 2.27531 46.551H2.30766V69.9788C2.30766 71.6447 3.64444 73 5.2875 73H31.4311C32.0136 73 32.4858 72.5212 32.4858 71.9307C32.4858 71.3401 32.0136 70.8613 31.4311 70.8613H25.6988V46.5518H46.3012V70.8613H36.353C35.7705 70.8613 35.2983 71.3401 35.2983 71.9307C35.2983 72.5212 35.7705 73 36.353 73H66.7125C68.3556 73 69.6923 71.6447 69.6923 69.9788V46.5512H69.7247C70.9792 46.5512 72 45.5164 72 44.2443V40.386C72 39.114 70.9793 38.0791 69.7247 38.0791H68.9906V36.9095C68.9906 35.5075 67.8656 34.3669 66.4829 34.3669H60.0221C60.1502 34.2467 60.276 34.1237 60.3963 33.9945L62.5549 31.6747H70.9453C71.5278 31.6747 72 31.196 72 30.6054C72 30.0148 71.5278 29.5361 70.9453 29.5361H64.545L64.5952 29.4822C65.1961 28.8367 65.3541 27.9292 65.0074 27.1141C64.6608 26.299 63.9011 25.7925 63.0253 25.7925H58.4845C57.9021 25.7925 57.4298 26.2713 57.4298 26.8619C57.4298 27.4524 57.9021 27.9312 58.4845 27.9312H63.0253C63.0477 27.9312 63.0578 27.9312 63.0705 27.9609C63.0831 27.9907 63.0759 27.9985 63.0612 28.0143L61.6451 29.5362H54.9721C54.3897 29.5362 53.9175 30.015 53.9175 30.6055C53.9175 31.1961 54.3897 31.6749 54.9721 31.6749H59.655L58.8625 32.5265C57.7741 33.6949 56.2423 34.3656 54.6592 34.367H45.4209C43.8368 34.3656 42.3051 33.6951 41.2179 32.5268L37.0173 28.0142C37.0029 27.9989 36.9958 27.9912 37.0086 27.9614C37.0214 27.9313 37.032 27.9313 37.0534 27.9313H53.5628C54.1453 27.9313 54.6175 27.4526 54.6175 26.862C54.6175 26.2714 54.1453 25.7927 53.5628 25.7927H37.0534C36.1777 25.7927 35.4184 26.2992 35.0716 27.1147C34.725 27.9298 34.8827 28.837 35.4833 29.4822L39.6838 33.9946C39.804 34.1238 39.9296 34.247 40.0576 34.367H35.3447C33.9619 34.367 32.8371 35.5077 32.8371 36.9096V38.0792H31.116C31.1891 37.821 31.2306 37.5494 31.2306 37.2676V21.9897C31.2306 21.2754 30.9787 20.6198 30.5605 20.1088C30.9787 19.5978 31.2306 18.9422 31.2306 18.228V16.7576H70.0505C71.1255 16.7576 72 15.8708 72 14.7808ZM38.0447 2.74149C38.1856 2.37549 38.5272 2.13881 38.9147 2.13881H62.2065C62.594 2.13881 62.9355 2.37535 63.0764 2.74149L65.6855 9.51966H35.4355L38.0447 2.74149ZM2.10938 2.95008C2.10938 2.50267 2.46839 2.13867 2.90967 2.13867H28.3206C28.762 2.13867 29.121 2.50267 29.121 2.95008V18.2279C29.121 18.6753 28.762 19.0393 28.3206 19.0393H2.90967C2.46839 19.0393 2.10938 18.6753 2.10938 18.2279V2.95008ZM23.5894 62.1298H4.41703V55.2134H23.5894V62.1298ZM5.2875 70.8613C4.80755 70.8613 4.41703 70.4654 4.41703 69.9788V64.2685H23.5894V70.8613H5.2875ZM23.5894 53.0747H4.41703V46.5518H23.5894V53.0747ZM67.583 69.9788C67.583 70.4654 67.1925 70.8613 66.7125 70.8613H48.4106V46.5518H67.583V69.9788ZM69.8906 40.3858V44.2441C69.8906 44.3369 69.8162 44.4124 69.7247 44.4124H2.27531C2.18391 44.4124 2.10938 44.3369 2.10938 44.2441V40.3858C2.10938 40.2931 2.18377 40.2176 2.27531 40.2176H69.7247C69.8162 40.2177 69.8906 40.2931 69.8906 40.3858ZM34.9464 36.9095C34.9464 36.6868 35.1252 36.5056 35.3447 36.5056H66.483C66.7027 36.5056 66.8814 36.6868 66.8814 36.9095V38.0791H34.9464V36.9095ZM2.90967 38.0791C2.46839 38.0791 2.10938 37.7151 2.10938 37.2675V21.9897C2.10938 21.5421 2.46839 21.1781 2.90967 21.1781H28.3206C28.762 21.1781 29.121 21.5421 29.121 21.9897V37.2675C29.121 37.7151 28.762 38.0791 28.3206 38.0791H2.90967ZM69.8906 14.619H31.2304V11.6585H69.8906V14.619Z" fill="black"/>
<path d="M24.2715 35.0029H6.95898C6.37652 35.0029 5.9043 35.4817 5.9043 36.0723C5.9043 36.6628 6.37652 37.1416 6.95898 37.1416H24.2713C24.8538 37.1416 25.326 36.6628 25.326 36.0723C25.326 35.4817 24.8539 35.0029 24.2715 35.0029Z" fill="black"/>
<path d="M44.7092 61.6438V55.6858C44.7092 55.0952 44.237 54.6165 43.6545 54.6165C43.0721 54.6165 42.5999 55.0952 42.5999 55.6858V61.6438C42.5999 62.2344 43.0721 62.7132 43.6545 62.7132C44.237 62.7132 44.7092 62.2344 44.7092 61.6438Z" fill="black"/>
<path d="M50.8232 62.7132C51.4057 62.7132 51.8779 62.2344 51.8779 61.6438V55.6858C51.8779 55.0952 51.4057 54.6165 50.8232 54.6165C50.2408 54.6165 49.7686 55.0952 49.7686 55.6858V61.6438C49.7686 62.2344 50.2408 62.7132 50.8232 62.7132Z" fill="black"/>
</g>
<defs>
<clipPath id="clip0_318_777">
<rect width="72" height="73" fill="white"/>
</clipPath>
</defs>
</svg>
