<svg width="81" height="61" viewBox="0 0 81 61" fill="none" xmlns="http://www.w3.org/2000/svg">
<rect x="9" y="28" width="52" height="29" rx="11" fill="#FFBE9D"/>
<path d="M62.1672 25.7407H7.76875C6.97497 25.7407 6.33148 26.3842 6.33148 27.178V58.0575C6.33148 58.8513 6.97497 59.4947 7.76875 59.4947H62.1672C62.9609 59.4947 63.6044 58.8513 63.6044 58.0575V27.178C63.6044 26.3842 62.9609 25.7407 62.1672 25.7407Z" stroke="black" stroke-width="3" stroke-linecap="round" stroke-linejoin="round"/>
<path d="M8.34832 25.7477C6.41721 22.5245 5.70747 18.7152 6.34824 15.0128C6.98901 11.3104 8.93771 7.96114 11.8397 5.57442C14.7417 3.1877 18.4042 1.92217 22.1606 2.00813C25.917 2.09409 29.5178 3.52582 32.3076 6.04278" stroke="black" stroke-width="3" stroke-linecap="round" stroke-linejoin="round"/>
<path d="M21.7929 21.5964C24.7479 21.5964 27.1434 19.201 27.1434 16.246C27.1434 13.291 24.7479 10.8956 21.7929 10.8956C18.838 10.8956 16.4425 13.291 16.4425 16.246C16.4425 19.201 18.838 21.5964 21.7929 21.5964Z" stroke="black" stroke-width="3" stroke-linecap="round" stroke-linejoin="round"/>
<path d="M42.8228 21.5964C45.7778 21.5964 48.1732 19.201 48.1732 16.246C48.1732 13.291 45.7778 10.8956 42.8228 10.8956C39.8679 10.8956 37.4724 13.291 37.4724 16.246C37.4724 19.201 39.8679 21.5964 42.8228 21.5964Z" stroke="black" stroke-width="3" stroke-linecap="round" stroke-linejoin="round"/>
<path d="M32.3076 6.04272C35.0977 3.52428 38.6992 2.09119 42.4568 2.00421C46.2144 1.91722 49.8784 3.18213 52.7821 5.56877C55.6858 7.95542 57.6361 11.3052 58.2783 15.0085C58.9205 18.7119 58.2118 22.5227 56.2812 25.7477" stroke="black" stroke-width="3" stroke-linecap="round" stroke-linejoin="round"/>
<path d="M63.6043 36.3159L79.2015 30.058V55.1786L63.6043 48.9193" stroke="black" stroke-width="3" stroke-linecap="round" stroke-linejoin="round"/>
<path d="M6.33768 46.9688H2V38.292H6.33768" stroke="black" stroke-width="3" stroke-linecap="round" stroke-linejoin="round"/>
<path d="M56.2423 33.3593H35.2126" stroke="black" stroke-width="3" stroke-linecap="round" stroke-linejoin="round"/>
<path d="M27.5369 33.3593H23.7545" stroke="black" stroke-width="3" stroke-linecap="round" stroke-linejoin="round"/>
<path d="M17.476 33.3593H13.6936" stroke="black" stroke-width="3" stroke-linecap="round" stroke-linejoin="round"/>
</svg>
