<svg width="68" height="73" viewBox="0 0 68 73" fill="none" xmlns="http://www.w3.org/2000/svg">
<rect x="65" y="22" width="33" height="21" rx="10.5" transform="rotate(90 65 22)" fill="#84DEC9" fill-opacity="0.55"/>
<rect x="24" y="20" width="36" height="21" rx="10.5" transform="rotate(90 24 20)" fill="#84DEC9" fill-opacity="0.55"/>
<path d="M13.2901 41.89C13.2901 41.89 12.8901 34.95 20.9701 34.85C28.4201 34.76 36.8601 43.73 43.4601 43.71C52.2201 43.68 54.3501 40.1601 54.3501 36.5501" stroke="black" stroke-width="2.63" stroke-miterlimit="10"/>
<path d="M22.71 66.6699V70.2999L19.23 68.5999" stroke="black" stroke-width="2.63" stroke-linecap="square" stroke-linejoin="round"/>
<path d="M22.71 39.6599V66.6699" stroke="black" stroke-width="2.63" stroke-miterlimit="10" stroke-linecap="square"/>
<path d="M19.23 68.6L2 60.18V13.47L22.71 23.6V30.25" stroke="black" stroke-width="2.63" stroke-miterlimit="10" stroke-linecap="square"/>
<path d="M43.4299 38.58V21.25" stroke="black" stroke-width="2.63" stroke-linecap="square" stroke-linejoin="round"/>
<path d="M33.8201 64.8701L43.4301 60.1801V48.3301" stroke="black" stroke-width="2.63" stroke-linecap="square" stroke-linejoin="round"/>
<path d="M22.71 70.3001L33.8199 64.8701" stroke="black" stroke-width="2.63" stroke-linecap="round" stroke-linejoin="round"/>
<path d="M43.43 13.47L41.3199 14.51L22.71 23.6" stroke="black" stroke-width="2.63" stroke-linecap="square" stroke-linejoin="round"/>
<path d="M64.1399 25.1201V70.3001L43.4299 60.1801" stroke="black" stroke-width="2.63" stroke-miterlimit="10" stroke-linecap="square"/>
<path d="M10.4399 46.28L15.2499 51.08" stroke="black" stroke-width="2.63" stroke-miterlimit="10" stroke-linecap="square"/>
<path d="M15.2499 46.28L10.4399 51.08" stroke="black" stroke-width="2.63" stroke-miterlimit="10" stroke-linecap="square"/>
<path d="M65.96 12.48C65.96 14.12 65.58 15.67 64.91 17.05C63.21 20.55 55.48 31.36 55.48 31.36C55.48 31.36 47.93 20.67 46.18 17.32C45.42 15.87 45 14.23 45 12.48C45 6.69 49.69 2 55.48 2C61.27 2 65.96 6.69 65.96 12.48Z" stroke="black" stroke-width="2.63" stroke-miterlimit="10" stroke-linecap="square"/>
<path d="M55.4799 16.75C57.8382 16.75 59.7499 14.8382 59.7499 12.48C59.7499 10.1217 57.8382 8.20996 55.4799 8.20996C53.1217 8.20996 51.21 10.1217 51.21 12.48C51.21 14.8382 53.1217 16.75 55.4799 16.75Z" stroke="black" stroke-width="2.63" stroke-miterlimit="10" stroke-linecap="square"/>
</svg>
