<svg width="94" height="78" viewBox="0 0 94 78" fill="none" xmlns="http://www.w3.org/2000/svg">
<circle cx="30" cy="48" r="30" fill="#84DEC9" fill-opacity="0.55"/>
<circle cx="69" cy="38" r="25" fill="#84DEC9" fill-opacity="0.55"/>
<path d="M49.4478 43.1102L47.772 51.1782C45.2178 60.8543 35.866 67.1384 25.9331 65.8275C16.0002 64.5167 8.59439 56.0433 8.63493 46.0293L10.6621 10.7708L43.7448 15.1223" stroke="black" stroke-width="3" stroke-linecap="round" stroke-linejoin="round"/>
<path d="M34.4876 50.4078C34.4876 50.4078 31.974 53.5837 27.6359 53.0161C23.0817 52.4214 21.6897 48.7321 21.6897 48.7321" stroke="black" stroke-width="3" stroke-linecap="round" stroke-linejoin="round"/>
<path d="M19.8787 29.2446L24.8384 29.8933" stroke="black" stroke-width="3" stroke-linecap="round" stroke-linejoin="round"/>
<path d="M36.0146 31.3663L40.9608 32.015" stroke="black" stroke-width="3" stroke-linecap="round" stroke-linejoin="round"/>
<path d="M70.9353 56.9757C61.0024 58.219 51.6911 51.8944 49.191 42.1912L42.2312 7.55433L86.5442 2L88.3551 37.272C88.3281 47.286 80.8683 55.7189 70.9353 56.9622V56.9757Z" stroke="black" stroke-width="3" stroke-linecap="round" stroke-linejoin="round"/>
<path d="M62.9215 44.948C62.9215 44.948 64.5567 41.2451 68.8948 40.6911C73.4491 40.1235 75.733 43.3398 75.733 43.3398" stroke="black" stroke-width="3" stroke-linecap="round" stroke-linejoin="round"/>
<path d="M55.813 23.1092L60.7727 22.4875" stroke="black" stroke-width="3" stroke-linecap="round" stroke-linejoin="round"/>
<path d="M71.9624 21.082L76.9221 20.4603" stroke="black" stroke-width="3" stroke-linecap="round" stroke-linejoin="round"/>
</svg>
