<svg width="32" height="25" viewBox="0 0 32 25" fill="none" xmlns="http://www.w3.org/2000/svg">
<path d="M5.92472 24.7897V23.1493C5.92472 22.5204 5.54194 22.1103 4.88574 22.1103C4.55764 22.1103 4.2022 22.2196 3.95613 22.5751C3.76474 22.2743 3.49132 22.1103 3.08119 22.1103C2.80778 22.1103 2.53436 22.1923 2.31563 22.4931V22.165H1.74146V24.7897H2.31563V23.3406C2.31563 22.8758 2.5617 22.6571 2.94448 22.6571C3.32727 22.6571 3.51866 22.9032 3.51866 23.3406V24.7897H4.09283V23.3406C4.09283 22.8758 4.36625 22.6571 4.72169 22.6571C5.10447 22.6571 5.29586 22.9032 5.29586 23.3406V24.7897H5.92472ZM14.428 22.165H13.4983V21.372H12.9242V22.165H12.4047V22.6844H12.9242V23.8875C12.9242 24.489 13.1702 24.8444 13.8264 24.8444C14.0725 24.8444 14.3459 24.7624 14.5373 24.653L14.3733 24.1609C14.2092 24.2703 14.0178 24.2976 13.8811 24.2976C13.6077 24.2976 13.4983 24.1336 13.4983 23.8601V22.6844H14.428V22.165ZM19.2948 22.1103C18.9667 22.1103 18.7479 22.2743 18.6112 22.4931V22.165H18.0371V24.7897H18.6112V23.3133C18.6112 22.8758 18.8026 22.6298 19.1581 22.6298C19.2674 22.6298 19.4041 22.6571 19.5135 22.6844L19.6775 22.1376C19.5682 22.1103 19.4041 22.1103 19.2948 22.1103ZM11.9399 22.3837C11.6665 22.1923 11.2837 22.1103 10.8735 22.1103C10.2174 22.1103 9.77988 22.4384 9.77988 22.9579C9.77988 23.3953 10.108 23.6414 10.6822 23.7234L10.9556 23.7508C11.2563 23.8054 11.4204 23.8875 11.4204 24.0242C11.4204 24.2156 11.2016 24.3523 10.8189 24.3523C10.4361 24.3523 10.1353 24.2156 9.94394 24.0789L9.67052 24.5163C9.97128 24.7351 10.3814 24.8444 10.7915 24.8444C11.5571 24.8444 11.9946 24.489 11.9946 23.9968C11.9946 23.532 11.6391 23.286 11.0923 23.2039L10.8189 23.1766C10.5728 23.1493 10.3814 23.0946 10.3814 22.9305C10.3814 22.7391 10.5728 22.6298 10.8735 22.6298C11.2016 22.6298 11.5297 22.7665 11.6938 22.8485L11.9399 22.3837ZM27.1965 22.1103C26.8684 22.1103 26.6497 22.2743 26.5129 22.4931V22.165H25.9388V24.7897H26.5129V23.3133C26.5129 22.8758 26.7043 22.6298 27.0598 22.6298C27.1691 22.6298 27.3059 22.6571 27.4152 22.6844L27.5793 22.1376C27.4699 22.1103 27.3059 22.1103 27.1965 22.1103ZM19.8689 23.4773C19.8689 24.2703 20.4158 24.8444 21.2634 24.8444C21.6461 24.8444 21.9196 24.7624 22.193 24.5437L21.9196 24.0789C21.7008 24.2429 21.4821 24.3249 21.236 24.3249C20.7712 24.3249 20.4431 23.9968 20.4431 23.4773C20.4431 22.9852 20.7712 22.6571 21.236 22.6298C21.4821 22.6298 21.7008 22.7118 21.9196 22.8758L22.193 22.411C21.9196 22.1923 21.6461 22.1103 21.2634 22.1103C20.4158 22.1103 19.8689 22.6844 19.8689 23.4773ZM25.1732 23.4773V22.165H24.599V22.4931C24.4076 22.247 24.1342 22.1103 23.7788 22.1103C23.0406 22.1103 22.4664 22.6844 22.4664 23.4773C22.4664 24.2703 23.0406 24.8444 23.7788 24.8444C24.1616 24.8444 24.435 24.7077 24.599 24.4616V24.7897H25.1732V23.4773ZM23.0679 23.4773C23.0679 23.0125 23.3687 22.6298 23.8608 22.6298C24.3256 22.6298 24.6537 22.9852 24.6537 23.4773C24.6537 23.9422 24.3256 24.3249 23.8608 24.3249C23.3687 24.2976 23.0679 23.9422 23.0679 23.4773ZM16.2052 22.1103C15.4396 22.1103 14.8928 22.6571 14.8928 23.4773C14.8928 24.2976 15.4396 24.8444 16.2325 24.8444C16.6153 24.8444 16.9981 24.7351 17.2988 24.489L17.0254 24.0789C16.8067 24.2429 16.5333 24.3523 16.2598 24.3523C15.9044 24.3523 15.549 24.1882 15.4669 23.7234H17.4082C17.4082 23.6414 17.4082 23.5867 17.4082 23.5047C17.4355 22.6571 16.9434 22.1103 16.2052 22.1103ZM16.2052 22.6024C16.5606 22.6024 16.8067 22.8212 16.8614 23.2313H15.4943C15.549 22.8758 15.795 22.6024 16.2052 22.6024ZM30.4501 23.4773V21.126H29.876V22.4931C29.6846 22.247 29.4112 22.1103 29.0557 22.1103C28.3175 22.1103 27.7433 22.6844 27.7433 23.4773C27.7433 24.2703 28.3175 24.8444 29.0557 24.8444C29.4385 24.8444 29.7119 24.7077 29.876 24.4616V24.7897H30.4501V23.4773ZM28.3448 23.4773C28.3448 23.0125 28.6456 22.6298 29.1377 22.6298C29.6025 22.6298 29.9306 22.9852 29.9306 23.4773C29.9306 23.9422 29.6025 24.3249 29.1377 24.3249C28.6456 24.2976 28.3448 23.9422 28.3448 23.4773ZM9.15103 23.4773V22.165H8.57686V22.4931C8.38546 22.247 8.11205 22.1103 7.75661 22.1103C7.01838 22.1103 6.44421 22.6844 6.44421 23.4773C6.44421 24.2703 7.01838 24.8444 7.75661 24.8444C8.13939 24.8444 8.41281 24.7077 8.57686 24.4616V24.7897H9.15103V23.4773ZM7.01838 23.4773C7.01838 23.0125 7.31914 22.6298 7.81129 22.6298C8.27609 22.6298 8.6042 22.9852 8.6042 23.4773C8.6042 23.9422 8.27609 24.3249 7.81129 24.3249C7.31914 24.2976 7.01838 23.9422 7.01838 23.4773Z" fill="white"/>
<path d="M20.3611 2.2334H11.7485V17.7087H20.3611V2.2334Z" fill="#A4A4A4"/>
<path d="M12.2957 9.9714C12.2957 6.82711 13.7721 4.03827 16.0415 2.23372C14.3736 0.921328 12.2683 0.128418 9.97164 0.128418C4.53066 0.128418 0.128662 4.53042 0.128662 9.9714C0.128662 15.4124 4.53066 19.8144 9.97164 19.8144C12.2683 19.8144 14.3736 19.0215 16.0415 17.7091C13.7721 15.9319 12.2957 13.1157 12.2957 9.9714Z" fill="#878787"/>
<path d="M31.9817 9.9714C31.9817 15.4124 27.5797 19.8144 22.1387 19.8144C19.842 19.8144 17.7367 19.0215 16.0688 17.7091C18.3655 15.9045 19.8147 13.1157 19.8147 9.9714C19.8147 6.82711 18.3382 4.03827 16.0688 2.23372C17.7367 0.921328 19.842 0.128418 22.1387 0.128418C27.5797 0.128418 31.9817 4.55776 31.9817 9.9714Z" fill="#BCBCBC"/>
</svg>
