<svg width="107" height="76" viewBox="0 0 107 76" fill="none" xmlns="http://www.w3.org/2000/svg">
<rect x="2" y="2" width="103" height="72" rx="9" stroke="#84DEC9" stroke-width="4"/>
<circle cx="17.5" cy="60.5" r="4.5" fill="black"/>
<circle cx="35.5" cy="60.5" r="4.5" fill="black"/>
<circle cx="53.5" cy="60.5" r="4.5" fill="black"/>
<circle cx="71.5" cy="60.5" r="4.5" fill="black"/>
<circle cx="89.5" cy="60.5" r="4.5" fill="black"/>
<circle cx="17.5" cy="45.5" r="4.5" fill="black"/>
<circle cx="35.5" cy="45.5" r="4.5" fill="black"/>
<circle cx="53.5" cy="45.5" r="4.5" fill="black"/>
<circle cx="71.5" cy="45.5" r="4.5" fill="black"/>
<circle cx="89.5" cy="45.5" r="4.5" fill="black"/>
<circle cx="17.5" cy="30.5" r="4.5" fill="black"/>
<circle cx="35.5" cy="30.5" r="4.5" fill="black"/>
<circle cx="53.5" cy="30.5" r="4.5" fill="black"/>
<circle cx="71.5" cy="30.5" r="4.5" fill="black"/>
<circle cx="89.5" cy="30.5" r="4.5" fill="black"/>
<circle cx="17.5" cy="15.5" r="4.5" fill="black"/>
<circle cx="35.5" cy="15.5" r="4.5" fill="black"/>
<circle cx="53.5" cy="15.5" r="4.5" fill="black"/>
<circle cx="71.5" cy="15.5" r="4.5" fill="black"/>
<circle cx="89.5" cy="15.5" r="4.5" fill="black"/>
</svg>
