<svg width="90" height="90" viewBox="0 0 90 90" fill="none" xmlns="http://www.w3.org/2000/svg">
<rect x="28" y="41.1951" width="33" height="18.0844" rx="9.04219" transform="rotate(-0.338676 28 41.1951)" fill="#84DEC9" fill-opacity="0.55"/>
<rect x="57" y="44" width="37" height="23" rx="11" transform="rotate(90 57 44)" fill="#84DEC9" fill-opacity="0.55"/>
<path d="M88.7344 60.4478C88.3391 60.1342 87.8777 59.9147 87.3851 59.8058C86.8925 59.6968 86.3815 59.7015 85.8909 59.8192L81.5358 60.8542L71.6062 55.971L66.9579 45.5725C66.3614 44.2409 65.3927 43.1101 64.1684 42.3164C62.9441 41.5226 61.5165 41.0997 60.0574 41.0985H50.2102L49.6744 38.878C51.0145 38.7376 52.2553 38.1063 53.1578 37.1056C54.0603 36.105 54.5606 34.8058 54.5625 33.4584V26.5593C54.5605 24.5551 53.7634 22.6335 52.3462 21.2163C50.929 19.7991 49.0074 19.002 47.0032 19H42.9954C40.9914 19.0024 39.0702 19.7997 37.6533 21.2168C36.2364 22.634 35.4395 24.5553 35.4375 26.5593V33.4584C35.4393 34.8057 35.9396 36.1048 36.8419 37.1054C37.7443 38.106 38.9849 38.7374 40.3249 38.878L39.7891 41.0985H29.9426C28.4835 41.0997 27.0559 41.5226 25.8316 42.3164C24.6073 43.1101 23.6386 44.2409 23.0421 45.5725L18.3937 55.971L8.46703 60.8542L4.11258 59.8192C3.62196 59.7025 3.11129 59.6985 2.61888 59.8073C2.12647 59.9162 1.6651 60.1352 1.2694 60.4478C0.873693 60.7604 0.553921 61.1586 0.334074 61.6125C0.114226 62.0663 1.21537e-05 62.5641 0 63.0684L0 67.9544C0.000930632 68.8399 0.353105 69.6888 0.979245 70.315C1.60539 70.9411 2.45435 71.2933 3.33984 71.2942H9.49219C9.69941 71.2944 9.90331 71.2421 10.0849 71.1423L14.5005 68.7145L13.4255 70.6206C13.0317 71.318 12.7965 72.0936 12.7367 72.8923C12.6768 73.6909 12.7938 74.4929 13.0793 75.2412C13.3648 75.9894 13.8117 76.6656 14.3883 77.2214C14.9649 77.7772 15.6569 78.1991 16.4152 78.457L24.1495 81.0902C24.1073 81.1373 24.0623 81.1809 24.023 81.2308C23.6823 81.6584 23.4519 82.1631 23.352 82.7006C23.2521 83.238 23.2857 83.7918 23.4499 84.3133L24.2887 86.9753C24.5001 87.6545 24.9236 88.248 25.4972 88.6687C26.0707 89.0893 26.764 89.315 27.4753 89.3125H41.4844C41.6193 89.3126 41.7532 89.2905 41.8809 89.2471L45 88.1875L48.1191 89.2485C48.2468 89.2915 48.3808 89.3131 48.5156 89.3125H62.5247C63.2358 89.3149 63.9289 89.0893 64.5023 88.6687C65.0757 88.2482 65.4991 87.6549 65.7105 86.976L66.5494 84.3133C66.7136 83.7918 66.7472 83.238 66.6473 82.7006C66.5474 82.1631 66.317 81.6584 65.9763 81.2308C65.937 81.1816 65.892 81.1373 65.8498 81.0902L73.5841 78.4577C74.3424 78.1998 75.0344 77.7779 75.611 77.2221C76.1876 76.6663 76.6345 75.9901 76.92 75.2419C77.2055 74.4936 77.3225 73.6916 77.2626 72.893C77.2028 72.0943 76.9676 71.3187 76.5738 70.6213L75.4987 68.7152L79.9144 71.143C80.096 71.2428 80.2999 71.2951 80.5071 71.2949H86.6595C87.5449 71.294 88.3939 70.9418 89.02 70.3157C89.6462 69.6895 89.9984 68.8406 89.9993 67.9551V63.0684C90.0011 62.5642 89.8882 62.0663 89.669 61.6122C89.4498 61.1582 89.1302 60.76 88.7344 60.4478ZM42.9968 21.4609H47.0046C48.3561 21.4624 49.6519 22 50.6076 22.9557C51.5632 23.9113 52.1008 25.2071 52.1023 26.5586V28.777H44.8636C42.9724 28.7779 41.1196 28.243 39.5198 27.2343L37.9083 26.219C37.9961 24.9289 38.5702 23.7202 39.5147 22.837C40.4592 21.9539 41.7037 21.462 42.9968 21.4609ZM37.8984 33.4584V29.125L38.2092 29.3205C40.201 30.5767 42.508 31.243 44.8629 31.2421H52.1016V33.4619C52.1006 34.2541 51.7855 35.0137 51.2253 35.5739C50.6651 36.1341 49.9055 36.4492 49.1133 36.4502H48.1184C47.9328 36.4518 47.75 36.495 47.5834 36.5768C47.4169 36.6586 47.2708 36.7767 47.156 36.9225C47.0413 37.0683 46.9608 37.2381 46.9204 37.4192C46.8801 37.6003 46.881 37.7882 46.923 37.9689L48.048 42.6208L48.998 46.5583C48.9639 47.1404 48.7088 47.6875 48.2849 48.0878C47.8609 48.4881 47.3001 48.7113 46.717 48.712H43.2865C42.7033 48.7115 42.1423 48.4883 41.7182 48.088C41.2941 47.6877 41.0389 47.1405 41.0048 46.5583L41.9548 42.6208L43.0798 37.9689C43.1218 37.7882 43.1227 37.6003 43.0824 37.4192C43.042 37.2381 42.9615 37.0683 42.8468 36.9225C42.732 36.7767 42.586 36.6586 42.4194 36.5768C42.2528 36.495 42.07 36.4518 41.8845 36.4502H40.8874C40.0944 36.4494 39.3342 36.1339 38.7737 35.5729C38.2133 35.0119 37.8984 34.2513 37.8984 33.4584ZM38.5734 46.1329C38.551 46.2273 38.5396 46.3241 38.5397 46.4212C38.5408 47.6796 39.0412 48.8861 39.931 49.7759C40.8208 50.6658 42.0274 51.1661 43.2858 51.1673H46.7135C47.9719 51.1661 49.1784 50.6659 50.0683 49.7762C50.9582 48.8866 51.4588 47.6802 51.4603 46.4219C51.5208 46.3938 50.8233 43.686 50.8043 43.5602H55.4449L57.948 53.9706L55.2727 60.6461C55.2142 60.7914 55.1841 60.9465 55.1841 61.1031V71.9312L45 76.851L34.8138 71.9291V61.101C34.8137 60.9442 34.7837 60.7888 34.7252 60.6433L32.0534 53.9706L34.5565 43.558H39.1971L38.5734 46.1329ZM34.7906 80.5994L38.1516 76.2766L42.082 78.175L42.1713 78.2179L36.8979 80.7646L34.7906 80.5994ZM9.17648 68.8333H3.33984C3.1068 68.8331 2.88336 68.7404 2.71857 68.5757C2.55378 68.4109 2.46112 68.1874 2.46094 67.9544V63.0684C2.4613 62.8363 2.5531 62.6138 2.71644 62.449C2.87978 62.2842 3.1015 62.1904 3.33352 62.188C3.40458 62.1882 3.47538 62.1967 3.54445 62.2134L8.32992 63.351C8.60841 63.4174 8.90131 63.3846 9.1582 63.2582L19.8809 57.9848C20.1383 57.8577 20.3434 57.6449 20.4609 57.3829L25.29 46.5794C25.6923 45.6813 26.3456 44.9186 27.1713 44.3832C27.997 43.8478 28.9599 43.5625 29.944 43.5616H32.0231L32.0105 43.615L29.6086 53.5994L26.1802 59.4845L9.17648 68.8333ZM27.663 61.4772C27.8586 61.3697 28.0212 61.211 28.1334 61.018L30.5564 56.8605L32.3529 61.3401V70.7423L22.0289 65.7578C21.6013 65.5528 21.1486 65.4048 20.6824 65.3177L27.663 61.4772ZM15.3787 74.3641C15.2221 73.9542 15.1578 73.5148 15.1907 73.0772C15.2235 72.6396 15.3525 72.2147 15.5686 71.8328L17.0557 69.1968C17.4301 68.5364 18.0413 68.0428 18.7657 67.8159C19.4902 67.5889 20.2737 67.6454 20.958 67.9741L35.8854 75.1797L31.8516 80.3687L29.0159 80.1466L17.2034 76.1275C16.7882 75.9859 16.4095 75.7544 16.0941 75.4496C15.7787 75.1448 15.5344 74.7741 15.3787 74.3641ZM41.2805 86.8516H27.4753C27.2882 86.8523 27.1059 86.793 26.955 86.6824C26.8041 86.5718 26.6927 86.4157 26.6372 86.237L25.7984 83.5743C25.7573 83.443 25.7475 83.304 25.7699 83.1683C25.7922 83.0326 25.846 82.904 25.927 82.7928C26.008 82.6817 26.114 82.591 26.2363 82.5282C26.3587 82.4654 26.494 82.4321 26.6316 82.431C26.6555 82.431 26.6801 82.431 26.7054 82.431L28.6741 82.585L32.3255 82.8712L37.0413 83.241C37.2588 83.2539 37.4761 83.2131 37.6741 83.1222L51.8484 76.2766L56.1375 81.7954L41.2805 86.8516ZM64.2023 83.5743L63.3635 86.2377C63.3079 86.4162 63.1964 86.5722 63.0456 86.6827C62.8947 86.7932 62.7124 86.8524 62.5254 86.8516H48.9199L61.4834 82.5766L63.2946 82.4359C63.4379 82.4249 63.5817 82.4491 63.7135 82.5065C63.8453 82.5639 63.961 82.6528 64.0505 82.7652C64.14 82.8777 64.2005 83.0104 64.2269 83.1517C64.2532 83.2929 64.2446 83.4385 64.2016 83.5757L64.2023 83.5743ZM74.622 74.3634C74.4659 74.7738 74.2212 75.1447 73.9051 75.4496C73.5891 75.7544 73.2096 75.9857 72.7938 76.1268L60.8407 80.1951L58.6076 80.9545L54.1146 75.1797L69.042 67.9691C69.7262 67.6406 70.5097 67.5841 71.234 67.8109C71.9584 68.0377 72.5696 68.531 72.9443 69.1912L74.4314 71.8279C74.6482 72.2104 74.7777 72.6362 74.8105 73.0747C74.8433 73.5132 74.7787 73.9535 74.6212 74.3641L74.622 74.3634ZM67.9711 65.7578L57.6471 70.7423V61.3401L59.4436 56.8598L61.8666 61.018C61.9788 61.211 62.1414 61.3697 62.337 61.4772L69.3176 65.3155C68.8513 65.4035 68.3987 65.5522 67.9711 65.7578ZM87.5391 67.9565C87.5389 68.1895 87.4462 68.413 87.2814 68.5778C87.1166 68.7425 86.8932 68.8352 86.6602 68.8354H80.8242L63.822 59.4838L60.3935 53.5987L59.5652 50.1534L57.979 43.5573H60.0581C61.0422 43.5582 62.0051 43.8436 62.8308 44.379C63.6565 44.9144 64.3098 45.6771 64.7121 46.5752L69.5391 57.3808C69.6566 57.6427 69.8617 57.8556 70.1191 57.9827L80.8418 63.2561C81.0987 63.3825 81.3916 63.4153 81.6701 63.3489L86.4555 62.2113C86.5846 62.1806 86.719 62.1795 86.8486 62.2082C86.9781 62.2368 87.0995 62.2945 87.2036 62.3767C87.3078 62.459 87.3919 62.5638 87.4497 62.6832C87.5076 62.8026 87.5376 62.9336 87.5377 63.0662L87.5391 67.9565Z" fill="black"/>
<path d="M2 62V1M19 57L27 1M86.5 62V1M70.5 57L63 1" stroke="black" stroke-width="2.5"/>
</svg>
