<svg width="67" height="44" viewBox="0 0 67 44" fill="none" xmlns="http://www.w3.org/2000/svg">
<rect x="10" y="6" width="57" height="34" rx="11" fill="#84DEC9" fill-opacity="0.55"/>
<path d="M61.7518 0H1.27229C0.570114 0 0 0.568882 0 1.27068V42.0669C0 42.769 0.569872 43.3381 1.27229 43.3381H61.7518C62.454 43.3381 63.0241 42.7692 63.0241 42.0669V1.27068C63.0241 0.568882 62.4542 0 61.7518 0ZM2.54459 2.54185H49.7231V40.796H2.54459V2.54185ZM60.4798 40.7962H52.267V2.54185H60.4798V40.7962Z" fill="black"/>
<path d="M39.788 7.71033H6.87605C6.17315 7.71033 5.60376 8.27945 5.60376 8.98149V34.3565C5.60376 35.0585 6.17315 35.6274 6.87605 35.6274H39.788C40.4902 35.6274 41.0603 35.0585 41.0603 34.3565V8.98149C41.0603 8.27945 40.4902 7.71033 39.788 7.71033ZM38.5157 33.0853H8.14811V10.2522H38.5157V33.0853Z" fill="black"/>
<path d="M56.4314 11.2895C57.9303 11.2895 59.1453 10.0755 59.1453 8.57796C59.1453 7.08044 57.9303 5.86646 56.4314 5.86646C54.9326 5.86646 53.7175 7.08044 53.7175 8.57796C53.7175 10.0755 54.9326 11.2895 56.4314 11.2895Z" fill="black"/>
<path d="M56.4314 28.7443C57.9303 28.7443 59.1453 27.5303 59.1453 26.0328C59.1453 24.5353 57.9303 23.3213 56.4314 23.3213C54.9326 23.3213 53.7175 24.5353 53.7175 26.0328C53.7175 27.5303 54.9326 28.7443 56.4314 28.7443Z" fill="black"/>
<path d="M54.5088 18.5762H58.3538C59.056 18.5762 59.6254 18.0073 59.6254 17.3055C59.6254 16.6037 59.056 16.0343 58.3538 16.0343H54.5088C53.8062 16.0343 53.2368 16.6034 53.2368 17.3055C53.2368 18.0075 53.8062 18.5762 54.5088 18.5762Z" fill="black"/>
<path d="M58.354 33.489H54.5091C53.8064 33.489 53.2371 34.0581 53.2371 34.7602C53.2371 35.4617 53.8064 36.0309 54.5091 36.0309H58.354C59.0562 36.0309 59.6256 35.462 59.6256 34.7602C59.6254 34.0584 59.0562 33.489 58.354 33.489Z" fill="black"/>
<path d="M13.1671 26.0638C13.4925 26.0638 13.8178 25.9398 14.0667 25.6916L24.1843 15.5825C24.6813 15.0861 24.6813 14.2813 24.1843 13.7849C23.6872 13.2888 22.882 13.2888 22.3852 13.7849L12.2676 23.8941C11.7705 24.3902 11.7705 25.1952 12.2676 25.6916C12.5157 25.9398 12.8408 26.0638 13.1671 26.0638Z" fill="black"/>
<path d="M22.4797 29.6426C22.7276 29.8908 23.0537 30.015 23.3793 30.015C23.7048 30.015 24.0299 29.8908 24.279 29.6426L34.3967 19.5337C34.8937 19.0376 34.8937 18.2326 34.3967 17.7364C33.8996 17.24 33.0941 17.24 32.5973 17.7364L22.4799 27.8453C21.9826 28.342 21.9826 29.1467 22.4797 29.6426Z" fill="black"/>
<path d="M45.3917 7.71033C44.6888 7.71033 44.1194 8.27945 44.1194 8.98149V34.7601C44.1194 35.4616 44.6888 36.0308 45.3917 36.0308C46.0939 36.0308 46.6633 35.4619 46.6633 34.7601V8.98149C46.6633 8.27945 46.0939 7.71033 45.3917 7.71033Z" fill="black"/>
</svg>
