<svg width="87" height="88" viewBox="0 0 87 88" fill="none" xmlns="http://www.w3.org/2000/svg">
<circle cx="43.5" cy="41.5" r="31.5" fill="#A6CB71" fill-opacity="0.55"/>
<path d="M81.5438 62.9814C81.0674 62.5893 80.9675 61.9068 81.3107 61.3956C82.514 59.6109 83.15 57.5668 83.15 55.4843C83.15 50.545 79.5227 46.1208 74.214 44.4319L73.871 17.33C74.6963 16.6927 75.231 15.6966 75.231 14.5755V8.1821C75.231 6.26226 73.669 4.70026 71.7492 4.70026H67.201C65.281 4.70026 63.719 6.26208 63.719 8.1821V14.5757C63.719 15.6965 64.2537 16.6927 65.0789 17.3298L65.0261 21.5263C65.017 22.2382 65.5869 22.8224 66.2987 22.8315C67.0113 22.8456 67.5948 22.2707 67.6039 21.5588L67.6481 18.0573H71.3019L71.7586 54.1238C71.0465 53.8611 70.2772 53.7175 69.4751 53.7175C68.6735 53.7175 67.9047 53.861 67.1929 54.1233L67.5283 27.5693C67.5374 26.8573 66.9674 26.273 66.2557 26.264C65.5489 26.2549 64.9596 26.8249 64.9505 27.5368L64.7372 44.4321C59.4276 46.1211 55.7997 50.5455 55.7997 55.4845C55.7997 57.5637 56.4354 59.6074 57.6384 61.3949C57.983 61.907 57.8835 62.5893 57.4071 62.9817C54.0983 65.7061 52.2762 69.3495 52.2762 73.2409C52.2762 81.1743 59.9921 87.6286 69.4758 87.6286C73.629 87.6286 77.6352 86.3775 80.7564 84.1058C81.3322 83.687 81.4591 82.8807 81.0402 82.3049C80.621 81.7295 79.8147 81.6025 79.2393 82.0213C76.5553 83.9747 73.0879 85.0504 69.4756 85.0504C61.4133 85.0504 54.8542 79.7527 54.8542 73.2409C54.8542 70.1343 56.3428 67.1976 59.0462 64.9717C60.5525 63.7305 60.8667 61.574 59.7772 59.9555C58.8616 58.5951 58.3776 57.0491 58.3776 55.4845C58.3776 51.9255 60.9078 48.6896 64.7023 47.1799L64.5925 55.8729C63.5148 57.0508 62.8562 58.6181 62.8562 60.3365C62.8562 63.9861 65.8253 66.9553 69.4751 66.9553C73.1247 66.9553 76.094 63.9861 76.094 60.3365C76.094 58.6187 75.4359 57.052 74.3589 55.8743L74.2487 47.1799C78.0424 48.6896 80.5719 51.9255 80.5719 55.4845C80.5719 57.0515 80.0882 58.5972 79.1718 59.9565C78.084 61.5768 78.3997 63.7331 79.9055 64.9717C82.6074 67.1978 84.0955 70.1344 84.0955 73.2407C84.0955 74.8894 83.6818 76.4842 82.8659 77.9811C82.5252 78.6062 82.7555 79.3891 83.3806 79.7299C83.5767 79.8368 83.788 79.8875 83.9965 79.8875C84.4531 79.8875 84.8955 79.6443 85.1295 79.2151C86.1542 77.3355 86.6736 75.3254 86.6736 73.2407C86.6734 69.3502 84.8519 65.7068 81.5438 62.9814ZM66.2971 8.1821C66.2971 7.68383 66.7026 7.27838 67.201 7.27838H71.7492C72.2474 7.27838 72.6529 7.68366 72.6529 8.1821V14.5757C72.6529 15.0726 72.2498 15.4766 71.7533 15.4789H67.1967C66.7003 15.4766 66.2971 15.0726 66.2971 14.5757V8.1821ZM69.4749 64.3771C67.2469 64.3771 65.4341 62.5646 65.4341 60.3365C65.4341 58.1085 67.2469 56.2958 69.4749 56.2958C71.7029 56.2958 73.5157 58.1084 73.5157 60.3365C73.5157 62.5646 71.7029 64.3771 69.4749 64.3771Z" fill="black"/>
<path d="M75.0316 73.859H63.9185C63.2064 73.859 62.6294 74.4362 62.6294 75.1481C62.6294 75.86 63.2064 76.4371 63.9185 76.4371H75.0316C75.7436 76.4371 76.3206 75.86 76.3206 75.1481C76.3206 74.4362 75.7436 73.859 75.0316 73.859Z" fill="black"/>
<path d="M37.2991 59.1455C39.4268 59.1455 41.1577 57.4145 41.1577 55.2869V45.1155H41.1866C41.8987 45.1155 42.4757 44.5383 42.4757 43.8264C42.4757 43.1145 41.8987 42.5373 41.1866 42.5373H41.1577V41.6745C41.1577 39.6122 39.479 37.9345 37.416 37.9345H17.1095V23.7933C21.9988 23.5568 26.6742 21.9802 30.7019 19.1909C31.4887 18.6459 31.8251 17.6646 31.5391 16.7492C31.2515 15.8292 30.4119 15.2109 29.4498 15.2109H17.1095V13.2H29.4498C30.4121 13.2 31.2517 12.5818 31.5391 11.6617C31.8251 10.7461 31.4887 9.76491 30.7019 9.22006C26.6742 6.4307 21.999 4.85409 17.1095 4.61759V1.28906C17.1095 0.577156 16.5325 0 15.8204 0C15.1083 0 14.5314 0.577156 14.5314 1.28906V4.61759C9.64152 4.85392 4.966 6.43053 0.938283 9.22006C0.151267 9.76491 -0.185264 10.7463 0.100736 11.6619C0.388283 12.5819 1.22806 13.2002 2.19022 13.2002H14.5314V15.2111H2.19039C1.22806 15.2111 0.388455 15.8292 0.10108 16.7492C-0.185092 17.6648 0.151439 18.646 0.938283 19.191C4.966 21.9806 9.64169 23.5572 14.5315 23.7935V37.9345H11.2807C9.2175 37.9345 7.53897 39.6124 7.53897 41.6745V42.5373H7.50941C6.79733 42.5373 6.22035 43.1145 6.22035 43.8264C6.22035 44.5383 6.79733 45.1155 7.50941 45.1155H7.53897V55.2869C7.53897 57.4145 9.26992 59.1455 11.3976 59.1455H12.2913C13.0034 59.1455 13.5804 58.5683 13.5804 57.8564C13.5804 57.1445 13.0034 56.5673 12.2913 56.5673H11.3976C10.6915 56.5673 10.1171 55.9929 10.1171 55.2869V45.1155H38.5796V55.2869C38.5796 55.9929 38.0052 56.5673 37.2991 56.5673H18.3069C17.5949 56.5673 17.0179 57.1445 17.0179 57.8564C17.0179 58.5683 17.5949 59.1455 18.3069 59.1455H23.0588V74.7778L15.9969 86.0253C15.6183 86.6283 15.8001 87.4239 16.4031 87.8025C17.0057 88.1806 17.8018 87.9993 18.1803 87.3962L23.0588 79.6263V86.7106C23.0588 87.4225 23.6358 87.9997 24.3478 87.9997C25.0599 87.9997 25.6369 87.4225 25.6369 86.7106V79.6247L30.5164 87.3962C30.7612 87.7862 31.1804 88 31.6092 88C31.8433 88 32.0805 87.9362 32.2934 87.8025C32.8964 87.4239 33.0782 86.6283 32.6996 86.0253L25.6367 74.7761V59.1455H37.2991ZM15.8199 7.16083C20.2063 7.16083 24.4367 8.35364 28.1337 10.622H3.5061C7.20347 8.35347 11.4331 7.16083 15.8199 7.16083ZM28.1339 17.7891C24.4365 20.0573 20.2065 21.2501 15.8201 21.2501C11.4337 21.2501 7.2033 20.0573 3.50627 17.7891H28.1339ZM10.1171 42.5373V41.6745C10.1171 41.0338 10.6391 40.5127 11.2807 40.5127H37.4158C38.0574 40.5127 38.5794 41.034 38.5794 41.6745V42.5373H10.1171Z" fill="black"/>
<path d="M54.5551 85.6979L47.787 80.3672V30.5301L48.1041 30.8089C48.7928 31.4144 49.6529 31.7145 50.5115 31.7145C51.4489 31.7145 52.3845 31.3569 53.0926 30.6489C54.449 29.2923 54.5193 27.1012 53.2528 25.6606L48.2584 19.9803C48.4157 18.1225 47.7607 16.2958 46.4115 14.9466C43.9246 12.4597 39.8776 12.4606 37.3903 14.9478C34.9036 17.4346 34.9036 21.4808 37.3904 23.9676C38.6087 25.1859 40.2155 25.8407 41.8838 25.8405C42.0632 25.8405 42.2433 25.83 42.4238 25.8149L45.209 28.2636V80.3674L38.4408 85.6981C37.8815 86.1386 37.7852 86.9491 38.2257 87.5084C38.48 87.8314 38.8577 88 39.2391 88C39.5182 88 39.7996 87.9098 40.0359 87.7236L45.209 83.6493V86.7109C45.209 87.4228 45.786 88 46.4981 88C47.2102 88 47.7872 87.4228 47.7872 86.7109V83.6493L52.9601 87.7236C53.5192 88.164 54.3299 88.0677 54.7703 87.5086C55.2106 86.949 55.1144 86.1384 54.5551 85.6979ZM39.213 16.7707C40.6954 15.2886 43.1065 15.2878 44.5882 16.7695C45.4582 17.6395 45.8443 18.8426 45.6562 20.0425L42.4862 23.2126C41.2865 23.4003 40.0829 23.0146 39.213 22.1445C37.7316 20.6628 37.7316 18.2523 39.213 16.7707ZM46.9493 22.3956L51.3163 27.3625C51.6879 27.785 51.6672 28.4278 51.2693 28.8257C50.8718 29.2234 50.2288 29.2443 49.8063 28.8726L44.8393 24.5056L46.9493 22.3956Z" fill="black"/>
</svg>
