<svg width="67" height="66" viewBox="0 0 67 66" fill="none" xmlns="http://www.w3.org/2000/svg">
<circle cx="18.5" cy="18.5" r="18.5" fill="#84DEC9" fill-opacity="0.55"/>
<path d="M46.7192 49.2493C46.7192 49.2493 43.7018 49.0801 33.5641 38.9283C23.4264 28.7765 23.2431 25.7732 23.2431 25.7732L26.8808 20.5281C27.8537 19.2168 27.7268 17.3979 26.5706 16.2559L18.6042 8.28951C17.1238 6.80904 14.6845 6.97824 13.4155 8.64201L11.357 11.3632C4.293 20.2884 14.3038 35.6571 25.5695 46.9228C36.8352 58.1885 52.3168 68.5378 61.1291 61.1354L63.8504 59.0768C65.5141 57.8078 65.6833 55.3686 64.2029 53.8881L56.2365 45.9218C55.0803 44.7656 53.2615 44.6387 51.9643 45.6116L46.7192 49.2493Z" stroke="black" stroke-width="3" stroke-linecap="round" stroke-linejoin="round"/>
</svg>
