<svg width="90" height="80" viewBox="0 0 90 80" fill="none" xmlns="http://www.w3.org/2000/svg">
<circle cx="30" cy="42" r="30" fill="#A6CB71" fill-opacity="0.55"/>
<path d="M54.2029 2V7.01951" stroke="#222222" stroke-width="3" stroke-linecap="round" stroke-linejoin="round"/>
<path d="M78.1018 11.898L74.5769 15.4229" stroke="#222222" stroke-width="3" stroke-linecap="round" stroke-linejoin="round"/>
<path d="M30.3038 11.898L33.8288 15.4229" stroke="#222222" stroke-width="3" stroke-linecap="round" stroke-linejoin="round"/>
<path d="M74.5769 56.1713L78.1018 59.6962" stroke="#222222" stroke-width="3" stroke-linecap="round" stroke-linejoin="round"/>
<path d="M88 35.7971H82.9946" stroke="#222222" stroke-width="3" stroke-linecap="round" stroke-linejoin="round"/>
<path d="M22.9156 23.0087C27.9634 10.6855 40.0751 2.0141 54.203 2.0141C72.8711 2.0141 88.0001 17.1431 88.0001 35.8112C88.0001 50.0802 79.1596 62.2765 66.6531 67.2396" stroke="#222222" stroke-width="3" stroke-linecap="round" stroke-linejoin="round"/>
<path d="M41.5554 31.4403C42.3591 23.5585 56.0218 26.6887 49.3244 35.4869L41.5554 44.7364H51.947" stroke="#222222" stroke-width="3" stroke-linecap="round" stroke-linejoin="round"/>
<path d="M63.9739 44.7222V26.8719L55.0347 39.9706H67.2592" stroke="#222222" stroke-width="3" stroke-linecap="round" stroke-linejoin="round"/>
<path d="M49.7192 63.2493C49.7192 63.2493 46.7018 63.0801 36.5641 52.9283C26.4264 42.7765 26.2431 39.7732 26.2431 39.7732L29.8808 34.5281C30.8537 33.2168 30.7268 31.3979 29.5706 30.2559L21.6042 22.2895C20.1238 20.809 17.6845 20.9782 16.4155 22.642L14.357 25.3632C7.293 34.2884 17.3038 49.6571 28.5695 60.9228C39.8352 72.1885 55.3168 82.5378 64.1291 75.1354L66.8504 73.0768C68.5141 71.8078 68.6833 69.3686 67.2029 67.8881L59.2365 59.9218C58.0803 58.7656 56.2615 58.6387 54.9643 59.6116L49.7192 63.2493Z" stroke="#222222" stroke-width="3" stroke-linecap="round" stroke-linejoin="round"/>
</svg>
