<svg width="91" height="76" viewBox="0 0 91 76" fill="none" xmlns="http://www.w3.org/2000/svg">
<circle cx="34.5" cy="27.5" r="10.5" fill="#84DEC9" fill-opacity="0.55"/>
<path d="M90.9541 74.1052L74.7355 17.022H82.6909C83.0208 17.022 83.3373 16.8923 83.5706 16.6616C83.8039 16.4308 83.935 16.1178 83.935 15.7915V11.6079C83.9337 10.3495 83.4277 9.14312 82.528 8.25333C81.6283 7.36355 80.4085 6.8631 79.1362 6.8618H63.4095V3.33984C63.4084 2.4544 63.0522 1.60555 62.4192 0.979451C61.7861 0.35335 60.9279 0.00111634 60.0326 0H57.3616C56.4662 0.000930632 55.6079 0.353105 54.9748 0.979246C54.3417 1.60539 53.9856 2.45435 53.9846 3.33984V6.86109H37.016V3.33984C37.0148 2.4544 36.6587 1.60555 36.0256 0.979451C35.3926 0.35335 34.5343 0.00111634 33.639 0H30.968C30.0727 0.000930632 29.2143 0.353105 28.5812 0.979246C27.9481 1.60539 27.592 2.45435 27.5911 3.33984V6.86109H11.8637C10.5914 6.86258 9.37172 7.36309 8.47209 8.25284C7.57246 9.14258 7.06639 10.3489 7.06488 11.6072V15.7887C7.06507 16.115 7.19621 16.4278 7.42949 16.6585C7.66277 16.8893 7.97911 17.019 8.30902 17.0191H16.2651L0.0465066 74.1052C-0.00554467 74.2881 -0.0140353 74.4805 0.0217005 74.6672C0.0574364 74.854 0.136427 75.03 0.252478 75.1815C0.36853 75.333 0.518487 75.4558 0.69059 75.5404C0.862693 75.625 1.05226 75.6689 1.24444 75.6689H8.3595C8.63077 75.6689 8.89459 75.5811 9.11074 75.419C9.32689 75.2569 9.48351 75.0293 9.55672 74.771L25.9644 17.022H31.059V56.7281H28.238C27.9081 56.7281 27.5916 56.8578 27.3583 57.0885C27.125 57.3193 26.9939 57.6323 26.9939 57.9586V61.4742C26.995 62.5461 27.4261 63.5738 28.1924 64.3318C28.9588 65.0898 29.9979 65.5161 31.0818 65.5172H59.9188C61.0026 65.5161 62.0418 65.0898 62.8081 64.3318C63.5745 63.5738 64.0056 62.5461 64.0067 61.4742V57.9586C64.0067 57.6323 63.8756 57.3193 63.6423 57.0885C63.409 56.8578 63.0925 56.7281 62.7626 56.7281H59.9409V17.022H65.0361L81.4439 74.7738C81.5171 75.0322 81.6737 75.2597 81.8899 75.4218C82.106 75.5839 82.3698 75.6717 82.6411 75.6717H89.7562C89.9483 75.6718 90.1379 75.6278 90.31 75.5432C90.4821 75.4587 90.6321 75.3358 90.7481 75.1843C90.8642 75.0328 90.9432 74.8568 90.9789 74.6701C91.0146 74.4833 91.0061 74.2909 90.9541 74.108V74.1052ZM56.4729 3.33984C56.4731 3.1068 56.5668 2.88336 56.7334 2.71857C56.9 2.55378 57.1259 2.46112 57.3616 2.46094H60.0326C60.2682 2.46112 60.4941 2.55378 60.6608 2.71857C60.8274 2.88336 60.9211 3.1068 60.9212 3.33984V6.86109H56.4729V3.33984ZM57.4526 9.32203V14.561H33.5473V9.32203H57.4526ZM30.0815 3.33984C30.0817 3.1068 30.1754 2.88336 30.342 2.71857C30.5086 2.55378 30.7345 2.46112 30.9702 2.46094H33.6411C33.8768 2.46112 34.1027 2.55378 34.2693 2.71857C34.4359 2.88336 34.5296 3.1068 34.5298 3.33984V6.86109H30.0793L30.0815 3.33984ZM7.4168 73.208H2.8867L18.8501 17.022H23.3802L7.4168 73.208ZM9.54961 14.5582V11.6079C9.55036 11.0021 9.79403 10.4213 10.2272 9.99286C10.6603 9.56447 11.2476 9.32348 11.8602 9.32273H31.0555V14.561L9.54961 14.5582ZM61.5184 61.4742C61.5181 61.8937 61.3494 62.2959 61.0495 62.5925C60.7496 62.8891 60.3429 63.0559 59.9188 63.0563H31.0818C30.6576 63.0559 30.251 62.8891 29.9511 62.5925C29.6512 62.2959 29.4825 61.8937 29.4822 61.4742V59.1891H61.5184V61.4742ZM51.7651 56.7281H39.2348V41.7417C39.2356 41.1359 39.4792 40.5551 39.9124 40.1267C40.3455 39.6983 40.9328 39.4573 41.5454 39.4566H49.4545C50.0671 39.4573 50.6544 39.6983 51.0875 40.1267C51.5207 40.5551 51.7643 41.1359 51.7651 41.7417V56.7281ZM57.4526 56.7281H54.2534V41.7417C54.252 40.4834 53.746 39.2769 52.8464 38.3872C51.9467 37.4974 50.7269 36.9969 49.4545 36.9956H41.5454C40.2731 36.9971 39.0534 37.4976 38.1537 38.3874C37.2541 39.2771 36.748 40.4834 36.7465 41.7417V56.7281H33.5473V17.022H57.4526V56.7281ZM59.9409 9.32203H79.1362C79.7487 9.32278 80.336 9.56377 80.7691 9.99216C81.2023 10.4205 81.446 11.0014 81.4467 11.6072V14.5603H59.9409V9.32203ZM83.5838 73.208L67.6204 17.022H72.1505L88.1139 73.2108L83.5838 73.208Z" fill="black"/>
</svg>
