<svg width="93" height="62" viewBox="0 0 93 62" fill="none" xmlns="http://www.w3.org/2000/svg">
<circle cx="4.5" cy="5.5" r="4.5" fill="black"/>
<circle cx="4.5" cy="23.5" r="4.5" fill="black"/>
<circle cx="4.5" cy="40.5" r="4.5" fill="black"/>
<circle cx="4.5" cy="57.5" r="4.5" fill="black"/>
<circle cx="53.5" cy="5.5" r="4.5" fill="black"/>
<circle cx="53.5" cy="23.5" r="4.5" fill="black"/>
<circle cx="53.5" cy="40.5" r="4.5" fill="black"/>
<circle cx="53.5" cy="57.5" r="4.5" fill="black"/>
<circle cx="39.5" cy="5.5" r="4.5" fill="black"/>
<circle cx="39.5" cy="23.5" r="4.5" fill="black"/>
<circle cx="39.5" cy="40.5" r="4.5" fill="black"/>
<circle cx="39.5" cy="57.5" r="4.5" fill="black"/>
<circle cx="88.5" cy="5.5" r="4.5" fill="black"/>
<circle cx="88.5" cy="23.5" r="4.5" fill="black"/>
<circle cx="88.5" cy="40.5" r="4.5" fill="black"/>
<circle cx="88.5" cy="57.5" r="4.5" fill="black"/>
<rect x="31" width="62" height="18" rx="4" transform="rotate(90 31 0)" fill="#A6CB71"/>
<rect x="80" width="62" height="18" rx="4" transform="rotate(90 80 0)" fill="#A6CB71"/>
</svg>
