<svg width="73" height="70" viewBox="0 0 73 70" fill="none" xmlns="http://www.w3.org/2000/svg">
<circle cx="68.5" cy="9.5" r="4.5" fill="black"/>
<circle cx="68.5" cy="27.5" r="4.5" fill="black"/>
<circle cx="68.5" cy="44.5" r="4.5" fill="black"/>
<circle cx="51.5" cy="65.5" r="4.5" fill="black"/>
<circle cx="36.5" cy="65.5" r="4.5" fill="black"/>
<circle cx="22.5" cy="65.5" r="4.5" fill="black"/>
<circle cx="4.5" cy="45.5" r="4.5" fill="black"/>
<circle cx="4.5" cy="28.5" r="4.5" fill="black"/>
<circle cx="4.5" cy="9.5" r="4.5" fill="black"/>
<rect x="29.6284" width="57.8659" height="16.2748" rx="4" transform="rotate(90 29.6284 0)" fill="#A6CB71"/>
<rect x="59.4655" y="3.8147e-06" width="57.8659" height="16.2748" rx="4" transform="rotate(90 59.4655 3.8147e-06)" fill="#A6CB71"/>
<rect x="59.4655" y="57.8659" width="46.1119" height="16.2748" rx="4" transform="rotate(-180 59.4655 57.8659)" fill="#A6CB71"/>
<circle cx="68.5" cy="9.5" r="4.5" fill="black"/>
<circle cx="68.5" cy="27.5" r="4.5" fill="black"/>
<circle cx="68.5" cy="44.5" r="4.5" fill="black"/>
</svg>
