<svg width="91" height="91" viewBox="0 0 91 91" fill="none" xmlns="http://www.w3.org/2000/svg">
<g clip-path="url(#clip0_206_4427)">
<rect y="80" width="91" height="9" rx="4.5" fill="#84DEC9" fill-opacity="0.55"/>
<ellipse cx="39.5" cy="45.5" rx="16.5" ry="14.5" fill="#84DEC9" fill-opacity="0.55"/>
<ellipse cx="72.5" cy="46.5" rx="12.5" ry="8.5" fill="#84DEC9" fill-opacity="0.55"/>
<path d="M82.7071 63.9338C84.6674 63.9351 86.5648 63.2415 88.0621 61.9762C89.5594 60.7108 90.5597 58.9557 90.8854 57.0226C91.2111 55.0895 90.841 53.1035 89.8409 51.4175C88.8408 49.7314 87.2754 48.4544 85.4229 47.8133C85.6489 47.0519 85.7629 46.2615 85.7613 45.4672C85.7601 43.8027 85.258 42.177 84.3204 40.8017C83.3827 39.4264 82.0529 38.365 80.5039 37.7557C80.5039 35.7193 79.695 33.7664 78.255 32.3264C76.8151 30.8865 74.8621 30.0776 72.8258 30.0776C70.7894 30.0776 68.8365 30.8865 67.3965 32.3264C65.9566 33.7664 65.1477 35.7193 65.1477 37.7557C64.0354 38.2043 63.0325 38.8868 62.207 39.7568C61.3815 40.6268 60.7527 41.6641 60.363 42.7984C60.1746 42.723 59.9862 42.6498 59.7943 42.5851C60.0859 41.672 60.2336 40.7191 60.2322 39.7605C60.2308 37.8563 59.6493 35.9977 58.5654 34.4321C57.4814 32.8666 55.9463 31.6683 54.1644 30.9968V30.876C54.1747 29.7315 53.9583 28.5963 53.5275 27.536C53.0967 26.4757 52.4601 25.5112 51.6545 24.6983C50.8489 23.8853 49.8902 23.24 48.8339 22.7997C47.7775 22.3593 46.6443 22.1326 45.4998 22.1326C44.3553 22.1326 43.2222 22.3593 42.1658 22.7997C41.1094 23.24 40.1507 23.8853 39.3451 24.6983C38.5395 25.5112 37.9029 26.4757 37.4721 27.536C37.0414 28.5963 36.8249 29.7315 36.8353 30.876V30.9968C35.0539 31.6688 33.5194 32.8672 32.436 34.4328C31.3525 35.9983 30.7715 37.8567 30.7703 39.7605C30.7699 40.7192 30.9183 41.672 31.2103 42.5851C31.017 42.6491 30.8279 42.7223 30.6416 42.7984C30.2514 41.6644 29.622 40.6276 28.7962 39.758C27.9703 38.8885 26.9672 38.2066 25.8548 37.7585C25.8548 35.7222 25.0459 33.7692 23.606 32.3293C22.166 30.8894 20.2131 30.0804 18.1767 30.0804C16.1404 30.0804 14.1874 30.8894 12.7475 32.3293C11.3075 33.7692 10.4986 35.7222 10.4986 37.7585C8.94929 38.3675 7.6191 39.4286 6.68107 40.8038C5.74304 42.179 5.24059 43.8047 5.23908 45.4694C5.23747 46.2637 5.35147 47.054 5.57748 47.8155C3.72492 48.4566 2.15955 49.7335 1.15946 51.4196C0.159359 53.1057 -0.210726 55.0916 0.114941 57.0247C0.440608 58.9579 1.44094 60.713 2.93825 61.9783C4.43556 63.2436 6.33291 63.9372 8.29326 63.936H13.771V71.5842C13.777 73.5318 13.2953 75.4499 12.3699 77.1635C11.4445 78.8772 10.1049 80.332 8.47313 81.3952H1.24432C1.0807 81.3952 0.918681 81.4275 0.76755 81.4902C0.616418 81.5529 0.479139 81.6448 0.363572 81.7606C0.248006 81.8764 0.156422 82.0139 0.0940659 82.1652C0.0317095 82.3164 -0.000195164 82.4785 0.00017883 82.6422V89.8397C0.00017883 90.1697 0.131258 90.4861 0.364579 90.7194C0.597901 90.9528 0.914353 91.0838 1.24432 91.0838H89.756C90.086 91.0838 90.4025 90.9528 90.6358 90.7194C90.8691 90.4861 91.0002 90.1697 91.0002 89.8397V82.6422C91.0002 82.3122 90.8691 81.9957 90.6358 81.7624C90.4025 81.5291 90.086 81.398 89.756 81.398H82.5272C80.8955 80.3348 79.5558 78.8801 78.6304 77.1664C77.705 75.4527 77.2234 73.5346 77.2293 71.5871V63.9338H82.7071ZM62.5627 44.0418C62.822 43.0407 63.3423 42.1263 64.0705 41.3919C64.7986 40.6575 65.7086 40.1294 66.7074 39.8615C66.9734 39.7919 67.2088 39.636 67.3768 39.4184C67.5448 39.2007 67.6359 38.9335 67.6359 38.6586V37.7664C67.6359 36.3899 68.1827 35.0699 69.156 34.0966C70.1293 33.1233 71.4493 32.5765 72.8258 32.5765C74.2022 32.5765 75.5223 33.1233 76.4955 34.0966C77.4688 35.0699 78.0156 36.3899 78.0156 37.7664V38.6586C78.0152 38.933 78.1057 39.1998 78.2729 39.4174C78.4401 39.635 78.6746 39.7912 78.9398 39.8615C80.1794 40.187 81.2765 40.9136 82.0597 41.9281C82.8429 42.9426 83.2683 44.1877 83.2694 45.4694C83.2707 46.3876 83.0512 47.2927 82.6296 48.1084C82.5393 48.2842 82.4923 48.479 82.4923 48.6766C82.4924 48.8742 82.5395 49.069 82.6299 49.2447C82.7202 49.4205 82.8512 49.5722 83.0118 49.6873C83.1725 49.8023 83.3583 49.8774 83.5538 49.9063C85.004 50.1198 86.3196 50.8744 87.236 52.0184C88.1525 53.1624 88.6019 54.6109 88.4938 56.0727C88.3857 57.5345 87.7282 58.9012 86.6535 59.898C85.5788 60.8947 84.1665 61.4477 82.7007 61.4456H62.9466C61.7858 61.4455 60.6517 61.0971 59.6912 60.4453C61.5996 59.8506 63.2678 58.6611 64.4519 57.0507C65.6361 55.4404 66.2742 53.4935 66.2731 51.4946C66.2626 50.0519 65.9229 48.6306 65.2799 47.339C64.6369 46.0475 63.7075 44.9198 62.5627 44.0418ZM63.1243 81.398H56.632C54.7095 80.1563 53.1301 78.4512 52.039 76.4394C50.9478 74.4276 50.3801 72.1737 50.3879 69.8851V60.8697H56.5297C57.3045 61.825 58.2825 62.5957 59.3925 63.1257C60.5024 63.6557 61.7166 63.9318 62.9466 63.9338H68.4208V71.5842C68.4276 73.532 67.9467 75.4504 67.0219 77.1646C66.0972 78.8788 64.758 80.3341 63.1265 81.398H63.1243ZM27.8718 81.398C26.24 80.3348 24.9004 78.8801 23.975 77.1664C23.0496 75.4527 22.5679 73.5346 22.5739 71.5871V63.9338H28.0538C29.2838 63.9318 30.4979 63.6557 31.6079 63.1257C32.7179 62.5957 33.6958 61.825 34.4707 60.8697H40.6125V69.8851C40.6199 72.1734 40.052 74.4268 38.9609 76.4382C37.8698 78.4496 36.2905 80.1544 34.3683 81.3959L27.8718 81.398ZM43.1008 69.8851V60.8697H47.8996V69.8851C47.8918 72.0247 48.3101 74.1444 49.1299 76.1206C49.9498 78.0969 51.1549 79.8902 52.675 81.3959H38.3254C39.8455 79.8902 41.0505 78.0969 41.8704 76.1206C42.6903 74.1444 43.1085 72.0247 43.1008 69.8851ZM33.0922 44.6909C33.2876 44.6618 33.4733 44.5866 33.6339 44.4716C33.7945 44.3565 33.9253 44.2048 34.0157 44.0291C34.106 43.8534 34.1532 43.6587 34.1533 43.4611C34.1534 43.2635 34.1065 43.0688 34.0164 42.8929C33.5171 41.9258 33.2567 40.8532 33.2571 39.7648C33.2585 38.2441 33.7632 36.7667 34.6925 35.563C35.6219 34.3594 36.9235 33.4972 38.3944 33.1111C38.6595 33.0407 38.894 32.8845 39.0612 32.667C39.2283 32.4494 39.3188 32.1826 39.3186 31.9082V30.876C39.3098 30.0593 39.4631 29.249 39.7696 28.492C40.076 27.735 40.5296 27.0462 41.104 26.4657C41.6783 25.8851 42.3622 25.4242 43.1159 25.1096C43.8695 24.795 44.6781 24.6331 45.4948 24.6331C46.3115 24.6331 47.1201 24.795 47.8738 25.1096C48.6275 25.4242 49.3114 25.8851 49.8857 26.4657C50.4601 27.0462 50.9137 27.735 51.2201 28.492C51.5266 29.249 51.6799 30.0593 51.6711 30.876V31.9054C51.6712 32.1803 51.7624 32.4474 51.9304 32.6651C52.0984 32.8827 52.3337 33.0386 52.5996 33.1083C54.0704 33.4944 55.3721 34.3565 56.3014 35.5602C57.2308 36.7639 57.7355 38.2413 57.7368 39.762C57.7372 40.8504 57.4769 41.923 56.9776 42.8901C56.8875 43.0659 56.8405 43.2607 56.8407 43.4583C56.8408 43.6558 56.888 43.8505 56.9783 44.0262C57.0686 44.202 57.1995 44.3536 57.3601 44.4687C57.5207 44.5838 57.7064 44.659 57.9018 44.6881C59.6224 44.9411 61.1834 45.8362 62.271 47.1933C63.3585 48.5505 63.8918 50.2691 63.7638 52.0035C63.6357 53.7379 62.8557 55.3595 61.5806 56.5422C60.3055 57.725 58.63 58.381 56.8908 58.3786H34.1031C32.364 58.381 30.6884 57.725 29.4134 56.5422C28.1383 55.3595 27.3583 53.7379 27.2302 52.0035C27.1021 50.2691 27.6355 48.5505 28.723 47.1933C29.8105 45.8362 31.3716 44.9411 33.0922 44.6881V44.6909ZM2.48846 55.64C2.49585 54.2513 2.99878 52.9108 3.9067 51.8599C4.81462 50.809 6.06788 50.1167 7.44085 49.9078C7.63635 49.8788 7.82214 49.8037 7.98282 49.6887C8.1435 49.5736 8.27444 49.4219 8.36479 49.2462C8.45514 49.0704 8.50229 48.8756 8.50234 48.678C8.50239 48.4804 8.45533 48.2856 8.36507 48.1098C7.94343 47.2941 7.72398 46.389 7.72523 45.4708C7.72635 44.1893 8.15162 42.9441 8.93471 41.9297C9.7178 40.9152 10.8146 40.1885 12.0541 39.8629C12.3201 39.7933 12.5555 39.6374 12.7235 39.4198C12.8915 39.2022 12.9826 38.935 12.9826 38.66V37.7664C12.9826 36.3899 13.5294 35.0699 14.5027 34.0966C15.476 33.1233 16.796 32.5765 18.1725 32.5765C19.5489 32.5765 20.8689 33.1233 21.8422 34.0966C22.8155 35.0699 23.3623 36.3899 23.3623 37.7664V38.6586C23.3619 38.933 23.4524 39.1998 23.6196 39.4174C23.7868 39.635 24.0213 39.7912 24.2865 39.8615C25.2866 40.1284 26.1978 40.6561 26.9272 41.3905C27.6565 42.125 28.1778 43.0399 28.4377 44.0418C27.2932 44.92 26.3643 46.0478 25.7217 47.3393C25.079 48.6309 24.7397 50.052 24.7294 51.4946C24.7282 53.4935 25.3664 55.4404 26.5506 57.0507C27.7347 58.6611 29.4029 59.8506 31.3113 60.4453C30.3508 61.0971 29.2167 61.4455 28.0559 61.4456H8.29326C6.75419 61.4437 5.2787 60.8314 4.19047 59.743C3.10225 58.6547 2.49015 57.1791 2.48846 55.64ZM16.2593 71.5842V63.9338H20.0877V71.5842C20.0758 75.2367 21.4769 78.7522 23.9979 81.3952H12.3485C14.8697 78.7523 16.271 75.2368 16.2593 71.5842ZM88.5119 88.5956H2.48846V83.8863H88.5119V88.5956ZM78.6519 81.398H67.0018C69.5227 78.7551 70.9238 75.2395 70.9119 71.5871V63.9338H74.7403V71.5842C74.7281 75.2379 76.1297 78.7546 78.6519 81.398Z" fill="black"/>
<path d="M83.5956 0H81.4628C80.2911 0.00464703 79.1475 0.358977 78.1784 1.0176C77.2094 1.67622 76.459 2.60915 76.0234 3.69687C74.1224 3.88592 72.3389 4.7042 70.9557 6.02196C69.5725 7.33972 68.6688 9.08153 68.388 10.9712H67.7865C66.3039 10.9729 64.8732 11.5176 63.7649 12.5024C62.6565 13.4872 61.9473 14.8439 61.7713 16.316L55.5954 20.2112C55.3673 20.3552 55.1921 20.5693 55.0963 20.8214C55.0005 21.0735 54.9892 21.3499 55.0641 21.609C55.139 21.8681 55.2961 22.0958 55.5117 22.2579C55.7273 22.42 55.9897 22.5076 56.2594 22.5076H89.7559C90.0859 22.5076 90.4023 22.3765 90.6356 22.1432C90.869 21.9098 91 21.5934 91 21.2634V7.40015C90.9967 5.43781 90.2153 3.55687 88.8273 2.16969C87.4394 0.7825 85.558 0.00225546 83.5956 0ZM88.5118 20.0193H60.5627L63.6375 18.0806C63.8151 17.9682 63.9615 17.8128 64.0629 17.6287C64.1643 17.4446 64.2175 17.2378 64.2176 17.0277C64.2189 16.0816 64.5954 15.1747 65.2644 14.5058C65.9334 13.8369 66.8405 13.4606 67.7865 13.4595H69.5418C69.8718 13.4595 70.1882 13.3284 70.4216 13.0951C70.6549 12.8617 70.786 12.5453 70.786 12.2153C70.7878 10.6057 71.4281 9.06248 72.5663 7.92427C73.7045 6.78607 75.2477 6.1458 76.8574 6.14392H76.954C77.2395 6.1437 77.5161 6.0454 77.7377 5.86549C77.9593 5.68559 78.1123 5.43501 78.1712 5.15572C78.3332 4.40253 78.7478 3.72736 79.3462 3.24218C79.9447 2.75701 80.691 2.491 81.4614 2.48828H83.5942C84.8976 2.48979 86.1472 3.00822 87.0688 3.92985C87.9904 4.85147 88.5088 6.10104 88.5103 7.40441L88.5118 20.0193Z" fill="black"/>
<path d="M76.8574 7.76265C75.6769 7.76397 74.5451 8.2335 73.7104 9.06824C72.8756 9.90298 72.4061 11.0348 72.4048 12.2153V13.0812C72.4048 13.4111 72.5359 13.7276 72.7692 13.9609C73.0025 14.1942 73.319 14.3253 73.6489 14.3253C73.9789 14.3253 74.2953 14.1942 74.5287 13.9609C74.762 13.7276 74.8931 13.4111 74.8931 13.0812V12.2138C74.8936 11.693 75.1008 11.1937 75.469 10.8255C75.8373 10.4572 76.3366 10.2501 76.8574 10.2495C77.1874 10.2495 77.5038 10.1184 77.7371 9.88511C77.9704 9.65179 78.1015 9.33534 78.1015 9.00537C78.1015 8.6754 77.9704 8.35895 77.7371 8.12563C77.5038 7.89231 77.1874 7.76123 76.8574 7.76123V7.76265Z" fill="black"/>
<path d="M1.24414 22.5076H34.7414C35.0111 22.5076 35.2735 22.42 35.4891 22.2579C35.7047 22.0958 35.8617 21.8681 35.9367 21.609C36.0116 21.3499 36.0003 21.0735 35.9045 20.8214C35.8086 20.5693 35.6335 20.3552 35.4054 20.2112L29.2288 16.3153C29.0526 14.8433 28.3433 13.4868 27.235 12.5021C26.1267 11.5175 24.6961 10.9728 23.2135 10.9712H22.6121C22.3313 9.08175 21.4278 7.3401 20.0449 6.02237C18.662 4.70463 16.8788 3.88622 14.978 3.69687C14.5424 2.60904 13.7919 1.67603 12.8227 1.0174C11.8535 0.358769 10.7097 0.00450571 9.53794 0L7.40513 0C5.44229 0.00206867 3.5604 0.782523 2.1722 2.17019C0.784 3.55786 0.00282259 5.43945 0 7.40228L0 21.2656C0.000565024 21.5952 0.131893 21.9111 0.365154 22.1439C0.598414 22.3768 0.914543 22.5076 1.24414 22.5076ZM2.48828 7.40228C2.49035 6.09927 3.00903 4.85026 3.9306 3.92909C4.85216 3.00792 6.10141 2.48979 7.40441 2.48828H9.53723C10.308 2.49095 11.0548 2.75719 11.6534 3.24279C12.252 3.7284 12.6666 4.40415 12.8282 5.15785C12.887 5.43714 13.04 5.68772 13.2616 5.86763C13.4832 6.04753 13.7599 6.14583 14.0453 6.14606H14.142C15.7516 6.14794 17.2948 6.7882 18.433 7.92641C19.5712 9.06461 20.2115 10.6078 20.2134 12.2175C20.2134 12.5474 20.3445 12.8639 20.5778 13.0972C20.8111 13.3305 21.1275 13.4616 21.4575 13.4616H23.2128C24.159 13.4627 25.0661 13.8391 25.7352 14.5082C26.4042 15.1772 26.7806 16.0843 26.7817 17.0305C26.7817 17.2407 26.8349 17.4475 26.9364 17.6316C27.0378 17.8157 27.1842 17.9711 27.3619 18.0834L30.4359 20.0214H2.48828V7.40228Z" fill="black"/>
<path d="M14.1428 7.7627C13.8129 7.7627 13.4964 7.89377 13.2631 8.1271C13.0298 8.36042 12.8987 8.67687 12.8987 9.00684C12.8987 9.3368 13.0298 9.65325 13.2631 9.88658C13.4964 10.1199 13.8129 10.251 14.1428 10.251C14.6636 10.2515 15.1629 10.4587 15.5312 10.8269C15.8994 11.1952 16.1066 11.6945 16.1071 12.2153V13.0812C16.1071 13.4112 16.2382 13.7276 16.4715 13.961C16.7049 14.1943 17.0213 14.3254 17.3513 14.3254C17.6813 14.3254 17.9977 14.1943 18.231 13.961C18.4643 13.7276 18.5954 13.4112 18.5954 13.0812V12.2139C18.5937 11.0336 18.124 9.90222 17.2893 9.06778C16.4546 8.23335 15.3231 7.76401 14.1428 7.7627Z" fill="black"/>
<path d="M21 72H42" stroke="black" stroke-width="2.5"/>
<path d="M21 68H42" stroke="black" stroke-width="2.5"/>
<path d="M27 72L27 65" stroke="black" stroke-width="2.5"/>
<path d="M32 72L32 65" stroke="black" stroke-width="2.5"/>
<path d="M37 72L37 65" stroke="black" stroke-width="2.5"/>
<path d="M60.0001 62C60.0001 62 58 64 55 65C52 66 49.0001 66 49.0001 66" stroke="black" stroke-width="2.5"/>
<path d="M65 63.0001C65 63.0001 61 67.5001 55.9998 68.9998C50.9997 70.4996 49 70.0001 49 70.0001" stroke="black" stroke-width="2.5"/>
</g>
<defs>
<clipPath id="clip0_206_4427">
<rect width="91" height="91" fill="white"/>
</clipPath>
</defs>
</svg>
