<svg width="70" height="57" viewBox="0 0 70 57" fill="none" xmlns="http://www.w3.org/2000/svg">
<rect x="13" y="5" width="57" height="34" rx="11" fill="#84DEC9" fill-opacity="0.55"/>
<path d="M61.7513 0H8.10591C7.40374 0 6.83362 0.569127 6.83362 1.27117V22.9924H4.19302C1.88064 22.9924 0 24.8714 0 27.1815V52.454C0 54.7641 1.88064 56.6435 4.19302 56.6435H12.0193C14.3314 56.6435 16.212 54.7641 16.212 52.454V38.8989H29.275L25.1795 42.9908C24.6824 43.487 24.6824 44.2917 25.1795 44.7883C25.4274 45.036 25.753 45.1602 26.0791 45.1602C26.4046 45.1602 26.7297 45.036 26.9781 44.7883L32.8728 38.8992H36.9842L42.8789 44.7883C43.1275 45.0365 43.4531 45.1602 43.7784 45.1602C44.104 45.1602 44.4298 45.036 44.6782 44.7883C45.1753 44.2917 45.1745 43.487 44.6782 42.9908L40.5827 38.8989H61.7513C62.4542 38.8989 63.0236 38.3298 63.0236 37.6278V1.27117C63.0236 0.569127 62.4545 0 61.7513 0ZM13.6677 52.454C13.6677 53.3622 12.928 54.1012 12.0195 54.1012H4.19325C3.28378 54.1012 2.54435 53.3619 2.54435 52.454V27.1815C2.54435 26.2728 3.28402 25.5343 4.19325 25.5343H12.0195C12.9283 25.5343 13.6677 26.273 13.6677 27.1815V52.454ZM60.4793 36.3566H16.2123V27.1812C16.2123 24.8711 14.3317 22.9922 12.0195 22.9922H9.37821V2.5421H60.4793V36.3566Z" fill="black"/>
<path d="M19.8343 17.8942C20.1596 17.8942 20.4857 17.77 20.7339 17.5218L29.7057 8.55792C30.2028 8.06178 30.2028 7.25703 29.7057 6.76041C29.2086 6.26378 28.4034 6.26378 27.9066 6.76041L18.9348 15.7243C18.4384 16.2205 18.4384 17.0257 18.9348 17.5218C19.1834 17.77 19.5087 17.8942 19.8343 17.8942Z" fill="black"/>
<path d="M23.5367 30.0836C23.7848 30.3318 24.1102 30.4561 24.4365 30.4561C24.7618 30.4561 25.0871 30.3318 25.3353 30.0836L44.9617 10.475C45.4588 9.97889 45.4588 9.17415 44.9617 8.67752C44.4646 8.1809 43.6592 8.1809 43.1624 8.67752L23.5369 28.2861C23.0398 28.7827 23.0398 29.5875 23.5367 30.0836Z" fill="black"/>
<path d="M37.6702 33.1219C37.9181 33.3701 38.2437 33.4943 38.5692 33.4943C38.8953 33.4943 39.2206 33.3701 39.4688 33.1219L50.923 21.678C51.4201 21.1814 51.4201 20.3767 50.923 19.8805C50.4265 19.3844 49.6205 19.3844 49.1237 19.8805L37.6702 31.3246C37.1731 31.8213 37.1731 32.626 37.6702 33.1219Z" fill="black"/>
<path d="M8.10579 30.5822C8.44104 30.5822 8.76804 30.4467 9.00605 30.2103C9.24261 29.9737 9.37808 29.6458 9.37808 29.3111C9.37808 28.9764 9.24237 28.6494 9.00605 28.4123C8.76828 28.1755 8.44104 28.0404 8.10579 28.0404C7.77127 28.0404 7.4428 28.1755 7.20624 28.4123C6.96944 28.6489 6.8335 28.9764 6.8335 29.3111C6.8335 29.6458 6.96968 29.9737 7.20624 30.2103C7.4428 30.4467 7.77127 30.5822 8.10579 30.5822Z" fill="black"/>
<path d="M11.4537 36.52C11.1184 36.52 10.79 36.6556 10.5534 36.8929C10.3166 37.1295 10.1814 37.4565 10.1814 37.7912C10.1814 38.1259 10.3168 38.4538 10.5534 38.6899C10.79 38.9267 11.1184 39.0623 11.4537 39.0623C11.7885 39.0623 12.1155 38.9267 12.352 38.6899C12.5898 38.4531 12.7252 38.1259 12.7252 37.7912C12.7252 37.4569 12.5898 37.1295 12.352 36.8929C12.1155 36.6553 11.7885 36.52 11.4537 36.52Z" fill="black"/>
<path d="M9.00605 38.6896C9.24261 38.4535 9.37808 38.1255 9.37808 37.7908C9.37808 37.4561 9.24237 37.1292 9.00605 36.8926C8.76828 36.6553 8.44104 36.5197 8.10579 36.5197C7.77127 36.5197 7.4428 36.6553 7.20624 36.8926C6.96944 37.1292 6.8335 37.4561 6.8335 37.7908C6.8335 38.1255 6.96968 38.4535 7.20624 38.6896C7.4428 38.9264 7.77127 39.062 8.10579 39.062C8.44104 39.062 8.76828 38.9267 9.00605 38.6896Z" fill="black"/>
<path d="M4.75887 36.52C4.42338 36.52 4.09561 36.6556 3.85905 36.8929C3.62249 37.1295 3.48657 37.4565 3.48657 37.7912C3.48657 38.1259 3.62273 38.4538 3.85905 38.6899C4.09561 38.9267 4.42338 39.0623 4.75887 39.0623C5.09411 39.0623 5.42111 38.9267 5.65791 38.6899C5.89544 38.4531 6.03116 38.1259 6.03116 37.7912C6.03116 37.4569 5.89544 37.1295 5.65791 36.8929C5.42136 36.6553 5.09411 36.52 4.75887 36.52Z" fill="black"/>
<path d="M11.4537 49.0535C11.1184 49.0535 10.79 49.1891 10.5534 49.4254C10.3166 49.662 10.1814 49.989 10.1814 50.3246C10.1814 50.6593 10.3168 50.9863 10.5534 51.2224C10.79 51.4593 11.1184 51.5953 11.4537 51.5953C11.7885 51.5953 12.1155 51.4593 12.352 51.2224C12.5898 50.9863 12.7252 50.6584 12.7252 50.3246C12.7252 49.9894 12.5898 49.662 12.352 49.4254C12.1155 49.1891 11.7885 49.0535 11.4537 49.0535Z" fill="black"/>
<path d="M8.10579 49.0535C7.77127 49.0535 7.4428 49.1891 7.20624 49.4254C6.96944 49.662 6.8335 49.9894 6.8335 50.3246C6.8335 50.6584 6.96968 50.9863 7.20624 51.2224C7.4428 51.4593 7.77127 51.5953 8.10579 51.5953C8.44031 51.5953 8.76804 51.4593 9.00605 51.2224C9.24261 50.9863 9.37808 50.6593 9.37808 50.3246C9.37808 49.989 9.24237 49.662 9.00605 49.4254C8.76828 49.1891 8.44104 49.0535 8.10579 49.0535Z" fill="black"/>
<path d="M4.75887 49.0535C4.42338 49.0535 4.09561 49.1891 3.85905 49.4254C3.62249 49.6618 3.48657 49.989 3.48657 50.3246C3.48657 50.6593 3.62273 50.9863 3.85905 51.2224C4.09609 51.4593 4.42338 51.5953 4.75887 51.5953C5.09411 51.5953 5.42111 51.4593 5.65791 51.2224C5.89544 50.9863 6.03116 50.6584 6.03116 50.3246C6.03116 49.9894 5.89544 49.662 5.65791 49.4254C5.42136 49.1891 5.09411 49.0535 4.75887 49.0535Z" fill="black"/>
<path d="M11.7031 32.3662H4.50862C3.80644 32.3662 3.23633 32.9353 3.23633 33.6369C3.23633 34.3392 3.8062 34.9081 4.50862 34.9081H11.7031C12.406 34.9081 12.9754 34.3392 12.9754 33.6369C12.9754 32.9356 12.4063 32.3662 11.7031 32.3662Z" fill="black"/>
<path d="M3.97803 44.0577C3.97803 46.3318 5.82987 48.182 8.10597 48.182C10.3825 48.182 12.2339 46.3318 12.2339 44.0577C12.2339 41.7832 10.3825 39.933 8.10597 39.933C5.82987 39.933 3.97803 41.7832 3.97803 44.0577ZM8.10597 42.4753C8.97915 42.4753 9.69003 43.1853 9.69003 44.058C9.69003 44.9302 8.9794 45.6402 8.10597 45.6402C7.23254 45.6402 6.52238 44.9302 6.52238 44.058C6.52238 43.1851 7.23278 42.4753 8.10597 42.4753Z" fill="black"/>
</svg>
