<svg width="67" height="22" viewBox="0 0 67 22" fill="none" xmlns="http://www.w3.org/2000/svg">
<g clip-path="url(#clip0_217_249)">
<path d="M23.28 21.1499L26.62 0.359863H31.97L28.63 21.1499H23.28Z" fill="#878787"/>
<path d="M48.03 0.87C46.97 0.45 45.31 0 43.23 0C37.94 0 34.22 2.82 34.19 6.86C34.16 9.85 36.85 11.51 38.88 12.51C40.96 13.53 41.66 14.18 41.65 15.09C41.64 16.49 39.99 17.12 38.45 17.12C36.31 17.12 35.17 16.8 33.41 16.03L32.72 15.7L31.97 20.36C33.22 20.94 35.53 21.44 37.93 21.47C43.55 21.47 47.2 18.68 47.25 14.37C47.27 12.01 45.84 10.21 42.76 8.72C40.89 7.76 39.74 7.12 39.76 6.14C39.76 5.27 40.73 4.35 42.82 4.35C44.57 4.32 45.84 4.73 46.82 5.15L47.3 5.39L48.02 0.88" fill="#878787"/>
<path d="M61.7501 0.379883H57.6201C56.3401 0.379883 55.3801 0.749883 54.8201 2.09988L46.8701 21.1499H52.4901C52.4901 21.1499 53.4101 18.5899 53.6201 18.0299C54.2301 18.0299 59.6901 18.0299 60.4701 18.0299C60.6301 18.7599 61.1201 21.1499 61.1201 21.1499H66.0801L61.7501 0.379883ZM55.1501 13.7799C55.5901 12.5799 57.2801 7.96988 57.2801 7.96988C57.2501 8.02988 57.7201 6.76988 57.9901 5.98988L58.3501 7.77988C58.3501 7.77988 59.3701 12.7399 59.5901 13.7799H55.1501Z" fill="#878787"/>
<path d="M18.7901 0.379883L13.5501 14.5599L12.9901 11.6799C12.0101 8.35988 8.98008 4.75988 5.58008 2.95988L10.3701 21.1399H16.0301L24.4601 0.379883H18.7901Z" fill="#878787"/>
<path d="M8.69 0.359863H0.07L0 0.789863C6.71 2.50986 11.15 6.66986 13 11.6699L11.12 2.11986C10.8 0.799863 9.86 0.409863 8.7 0.369863" fill="#BCBCBC"/>
</g>
<defs>
<clipPath id="clip0_217_249">
<rect width="66.08" height="21.46" fill="white"/>
</clipPath>
</defs>
</svg>
