<svg width="47" height="36" viewBox="0 0 47 36" fill="none" xmlns="http://www.w3.org/2000/svg">
<circle cx="23" cy="17" r="17" fill="#84DEC9" fill-opacity="0.55"/>
<path d="M44.8874 13.8152C33.0982 2.06009 13.9087 2.05838 2.11437 13.8152L0 11.7069C6.27596 5.44739 14.6233 2 23.5009 2C32.3767 2 40.724 5.44567 47 11.7069L44.8874 13.8152ZM41.3904 17.3021C31.5279 7.46809 15.479 7.46465 5.61307 17.3021L7.72744 19.4103C16.426 10.7352 30.5775 10.7335 39.2777 19.4103L41.3904 17.3021ZM35.779 22.8955C29.0089 16.1449 17.9928 16.1449 11.2227 22.8955L13.3371 25.0037C18.9415 19.4155 28.0602 19.4172 33.6664 25.0037L35.779 22.8955ZM26.8394 34.6231C28.68 32.7861 28.68 29.8005 26.8394 27.9635C25.0556 26.1849 21.9426 26.1849 20.1606 27.9635C19.2687 28.8511 18.7762 30.034 18.7762 31.2925C18.7762 32.5509 19.2687 33.7338 20.1606 34.6231C21.08 35.5399 22.2887 36 23.4991 36C24.7096 36 25.9183 35.5399 26.8394 34.6231ZM24.7268 30.0718C25.4035 30.7465 25.4017 31.8419 24.7268 32.5148C24.0518 33.1878 22.9499 33.1878 22.2767 32.5148C21.9495 32.1869 21.7687 31.7543 21.7687 31.2925C21.7687 30.8306 21.9478 30.398 22.2767 30.0718C22.6038 29.7439 23.0394 29.5653 23.5009 29.5653C23.9623 29.5653 24.3979 29.7456 24.7268 30.0718Z" fill="black"/>
</svg>
