<svg width="87" height="88" viewBox="0 0 87 88" fill="none" xmlns="http://www.w3.org/2000/svg">
<circle cx="67.5" cy="19.5" r="19.5" fill="#A6CB71" fill-opacity="0.55"/>
<g clip-path="url(#clip0_243_274)">
<path d="M57.85 36.18L73.42 20.61L66.42 13.61L50.85 29.18C49.17 30.86 47.05 32.02 44.74 32.54L34.46 34.84C32.03 35.38 29.8 36.61 28.04 38.37L1.85999 64.54L22.49 85.17L48.67 58.99C50.43 57.23 51.65 55 52.2 52.57L54.5 42.29C55.02 39.97 56.18 37.85 57.86 36.18H57.85Z" stroke="black" stroke-width="2.63" stroke-miterlimit="10" stroke-linecap="square"/>
<path d="M62.66 17.38L69.66 24.38" stroke="black" stroke-width="2.63" stroke-miterlimit="10" stroke-linecap="square"/>
<path d="M34.9249 49.5499L25.8881 40.5131L11.5126 54.8885L20.5494 63.9254L34.9249 49.5499Z" stroke="black" stroke-width="2.63" stroke-miterlimit="10" stroke-linecap="square"/>
<path d="M21.17 45.23L24.39 48.45" stroke="black" stroke-width="2.63" stroke-miterlimit="10" stroke-linecap="square"/>
<path d="M16.51 49.9L21.65 55.04" stroke="black" stroke-width="2.63" stroke-miterlimit="10" stroke-linecap="square"/>
<path d="M66.4299 7.39001V5.32001" stroke="black" stroke-width="2.63" stroke-miterlimit="10" stroke-linecap="square"/>
<path d="M74.8099 12.23L77.8999 9.14001" stroke="black" stroke-width="2.63" stroke-miterlimit="10" stroke-linecap="square"/>
<path d="M79.65 20.61H81.72" stroke="black" stroke-width="2.63" stroke-miterlimit="10" stroke-linecap="square"/>
<path d="M73.1435 6.02064L72.995 5.87215C72.4209 5.29807 71.4902 5.29808 70.9161 5.87215L70.7676 6.02064C70.1936 6.59471 70.1936 7.52546 70.7676 8.09953L70.9161 8.24803C71.4902 8.8221 72.4209 8.82209 72.995 8.24802L73.1435 8.09953C73.7176 7.52546 73.7176 6.59471 73.1435 6.02064Z" fill="black"/>
<path d="M81.3635 14.2596L81.215 14.1111C80.6409 13.537 79.7102 13.537 79.1361 14.1111L78.9876 14.2596C78.4135 14.8337 78.4135 15.7644 78.9876 16.3385L79.1361 16.487C79.7102 17.0611 80.6409 17.0611 81.215 16.487L81.3635 16.3385C81.9375 15.7644 81.9375 14.8337 81.3635 14.2596Z" fill="black"/>
</g>
<defs>
<clipPath id="clip0_243_274">
<rect width="83.03" height="83.03" fill="white" transform="translate(0 4)"/>
</clipPath>
</defs>
</svg>
